<svg width="24" height="24" viewBox="0 0 24 24" fill="none" xmlns="http://www.w3.org/2000/svg">
<path d="M4.0752 3L5.51777 19.1952L11.9908 21L18.4819 19.1886L19.9256 3H4.0752ZM16.9287 6.71038L16.4485 12.1055L16.4499 12.1346L16.4479 12.2016V12.2011L16.1068 15.9734L16.0692 16.3086L12.0004 17.4339L11.9972 17.4368L7.9355 16.3051L7.66048 13.1863H9.65225L9.79357 14.7722L12.001 15.3704L12.0004 15.3716V15.3713L14.216 14.7646L14.4501 12.182H9.81853L9.77879 11.7454L9.68826 10.7226L9.64077 10.1734H14.6262L14.8075 8.16487H7.21429L7.17455 7.72858L7.08416 6.70551L7.03653 6.15631H16.9762L16.9287 6.71038Z" fill="#6278F2"/>
</svg>
