<?xml version="1.0" standalone="no"?>
<!DOCTYPE svg PUBLIC "-//W3C//DTD SVG 20010904//EN"
 "http://www.w3.org/TR/2001/REC-SVG-20010904/DTD/svg10.dtd">
<svg version="1.0" xmlns="http://www.w3.org/2000/svg"
 width="96.000000pt" height="96.000000pt" viewBox="0 0 96.000000 96.000000"
 preserveAspectRatio="xMidYMid meet">

<g transform="translate(0.000000,96.000000) scale(0.100000,-0.100000)"
fill="#000000" stroke="none">
<path d="M418 953 c6 -2 18 -2 25 0 6 3 1 5 -13 5 -14 0 -19 -2 -12 -5z"/>
<path d="M329 923 c-13 -16 -12 -17 4 -4 9 7 17 15 17 17 0 8 -8 3 -21 -13z"/>
<path d="M310 877 c0 -53 25 -93 75 -118 26 -13 50 -29 52 -36 6 -15 -83 -130
-106 -138 -27 -8 -24 -52 3 -71 30 -19 69 -4 59 23 -4 11 -3 14 5 9 7 -4 12
-2 12 6 1 7 7 2 15 -12 16 -29 10 -37 -31 -49 -20 -6 -43 -4 -67 4 -23 8 -39
9 -45 3 -27 -27 -25 72 1 130 l12 26 5 -29 5 -29 19 28 c10 16 14 26 8 22 -6
-3 -13 13 -16 39 -8 50 -26 71 -26 29 0 -15 -9 -47 -21 -71 -12 -24 -23 -61
-26 -82 -6 -42 17 -132 49 -194 11 -22 16 -37 11 -34 -5 3 -24 37 -43 76 l-34
72 -22 -36 c-12 -20 -34 -50 -50 -67 l-29 -31 30 6 c17 3 38 9 48 12 28 11 21
-20 -15 -61 l-33 -37 27 6 c31 8 61 -1 52 -15 -3 -5 13 2 36 17 l42 27 15 -21
c18 -27 38 -28 23 -2 -19 37 -10 42 33 16 24 -14 48 -25 53 -25 5 0 -15 14
-43 30 -29 17 -53 37 -53 46 0 8 -4 12 -10 9 -6 -3 -10 -2 -10 2 0 9 57 73
138 156 26 26 39 45 30 41 -26 -9 -22 7 13 49 l31 37 -21 36 c-12 19 -16 32
-11 29 17 -11 40 -63 34 -78 -3 -8 -1 -18 5 -22 7 -4 11 3 11 16 0 21 1 22 20
4 25 -23 25 -37 0 -53 -17 -10 -18 -16 -8 -37 13 -30 53 -43 79 -26 10 6 21
11 23 11 3 0 6 -26 8 -57 l3 -58 17 35 c10 19 17 29 18 22 0 -23 -31 -76 -74
-122 -22 -24 -37 -41 -32 -38 5 4 17 3 28 -3 14 -7 23 -7 33 1 11 9 22 7 51
-11 36 -22 36 -22 25 -1 -6 11 -11 28 -11 37 0 15 2 15 22 1 38 -27 52 -20 27
15 -29 41 -49 111 -49 173 -1 29 -9 65 -18 84 l-18 33 3 -68 3 -68 -13 46
c-13 45 -70 133 -104 160 -17 13 -17 13 -1 -12 16 -26 51 -129 43 -129 -3 0
-18 29 -34 64 -37 82 -91 141 -161 176 -32 16 -71 46 -88 67 l-31 38 -1 -28z
m51 -320 c-1 -12 -15 -9 -19 4 -3 6 1 10 8 8 6 -3 11 -8 11 -12z m249 -8 c0
-5 -4 -9 -10 -9 -5 0 -10 7 -10 16 0 8 5 12 10 9 6 -3 10 -10 10 -16z m-300
-75 c0 -3 -5 -15 -11 -26 -9 -17 -13 -18 -20 -7 -15 23 -10 39 11 39 11 0 20
-3 20 -6z"/>
<path d="M249 823 l-34 -38 38 34 c20 19 37 36 37 38 0 8 -8 0 -41 -34z"/>
<path d="M730 737 c0 -7 60 -69 97 -100 21 -18 21 -18 16 2 -3 11 -9 19 -13
16 -5 -3 -19 7 -32 22 -30 35 -68 68 -68 60z"/>
<path d="M193 665 c0 -27 2 -38 4 -22 2 15 2 37 0 50 -2 12 -4 0 -4 -28z"/>
<path d="M201 554 c0 -11 3 -14 6 -6 3 7 2 16 -1 19 -3 4 -6 -2 -5 -13z"/>
<path d="M434 345 c11 -8 32 -15 46 -15 14 0 35 7 46 15 17 13 13 14 -46 14
-59 0 -63 -1 -46 -14z"/>
<path d="M561 264 c0 -16 6 -39 15 -50 8 -10 12 -12 8 -4 -4 8 -11 30 -15 50
-7 35 -7 35 -8 4z"/>
<path d="M180 235 c-19 -19 -29 -35 -22 -35 7 0 12 5 12 11 0 5 4 8 9 5 10 -7
34 19 37 40 3 19 3 19 -36 -21z m30 11 c0 -2 -8 -10 -17 -17 -16 -13 -17 -12
-4 4 13 16 21 21 21 13z"/>
<path d="M398 247 c-3 -19 -2 -25 4 -19 6 6 8 18 6 28 -3 14 -5 12 -10 -9z"/>
<path d="M719 252 c31 -25 38 -56 10 -49 -10 3 -19 1 -19 -5 0 -6 -7 -8 -15
-4 -8 3 -15 1 -15 -5 0 -6 -7 -8 -16 -5 -10 4 -13 2 -8 -6 5 -8 2 -9 -10 -5
-9 4 -15 3 -12 -2 3 -5 -1 -12 -10 -15 -10 -4 -13 -2 -8 7 4 6 -13 -10 -38
-37 -28 -32 -45 -44 -45 -33 0 9 3 14 7 12 4 -2 18 7 31 21 20 21 21 24 5 18
-16 -6 -18 -4 -13 12 7 18 6 18 -9 -1 -8 -11 -27 -41 -42 -67 -27 -48 -42 -60
-42 -35 0 7 -9 23 -19 34 -11 12 -17 25 -13 29 4 5 1 4 -7 -3 -10 -9 -19 -6
-38 15 -14 15 -21 20 -17 12 4 -8 -4 -3 -17 11 -30 31 -108 62 -140 56 -23 -4
-22 -4 3 -6 48 -2 39 -18 -15 -25 l-52 -7 67 -24 c77 -27 169 -84 192 -120 14
-21 24 -25 70 -25 51 0 55 2 88 44 43 55 147 145 123 106 -3 -6 1 -7 9 -4 9 3
14 10 11 14 -3 5 11 14 30 21 36 13 47 29 19 29 -8 0 -13 4 -10 9 6 9 -17 32
-44 45 -8 4 -4 -1 9 -12z"/>
<path d="M800 180 c8 -5 20 -10 25 -10 6 0 3 5 -5 10 -8 5 -19 10 -25 10 -5 0
-3 -5 5 -10z"/>
<path d="M789 103 c-18 -20 -27 -32 -18 -25 9 6 18 10 21 7 3 -3 11 1 18 10 7
8 9 15 5 15 -4 0 -2 7 5 15 25 30 3 14 -31 -22z"/>
<path d="M825 103 c-17 -20 -37 -47 -46 -60 -12 -18 -18 -20 -28 -10 -10 9
-10 7 0 -11 12 -19 22 -22 76 -22 72 0 75 4 39 67 -17 29 -21 44 -13 52 6 6 9
13 6 15 -3 3 -18 -11 -34 -31z"/>
<path d="M700 123 c0 -6 8 -17 18 -24 16 -13 16 -13 2 6 -8 11 -16 22 -17 24
-2 2 -3 0 -3 -6z"/>
<path d="M106 40 l-26 -40 67 1 c38 0 62 3 55 6 -6 2 -10 8 -7 13 3 5 -6 17
-20 28 -13 11 -21 22 -18 26 3 3 -1 6 -9 6 -8 0 -27 -18 -42 -40z"/>
<path d="M195 50 c10 -11 20 -20 23 -20 3 0 -3 9 -13 20 -10 11 -20 20 -23 20
-3 0 3 -9 13 -20z"/>
<path d="M684 38 l-19 -23 23 19 c21 18 27 26 19 26 -2 0 -12 -10 -23 -22z"/>
<path d="M756 48 c3 -5 10 -6 15 -3 13 9 11 12 -6 12 -8 0 -12 -4 -9 -9z"/>
</g>
</svg>
