<svg width="24" height="24" viewBox="0 0 24 24" fill="none" xmlns="http://www.w3.org/2000/svg">
<path d="M1.99902 16.6595L4.32069 15.2473C4.76854 16.0458 5.17627 16.7211 6.15366 16.7211C7.0902 16.7211 7.68101 16.3545 7.68101 14.9196V5.17531H10.5322V14.9599C10.5322 17.9279 8.80136 19.2792 6.2762 19.2792C5.38348 19.3278 4.49707 19.1034 3.7337 18.6356C2.97033 18.1679 2.36581 17.4786 1.99975 16.6587L1.99902 16.6595ZM12.0814 16.3515L14.4031 15.0002C14.6613 15.5267 15.0619 15.9692 15.5591 16.277C16.0562 16.5847 16.6296 16.7453 17.2135 16.7401C18.3951 16.7401 19.1478 16.1462 19.1478 15.3272C19.1478 14.3448 18.3739 13.9965 17.0705 13.4209L16.3601 13.1174C14.3032 12.2375 12.9385 11.1319 12.9385 8.79807C12.9385 6.64832 14.5679 5.01108 17.1135 5.01108C17.9384 4.95098 18.7625 5.13636 19.4832 5.54409C20.2039 5.95182 20.7892 6.56384 21.166 7.3038L18.9458 8.73722C18.8001 8.3699 18.5467 8.05576 18.2194 7.83644C17.8921 7.61712 17.5061 7.50296 17.1128 7.5091C16.9413 7.49166 16.7681 7.51035 16.6042 7.56398C16.4403 7.6176 16.2894 7.70499 16.161 7.82055C16.0325 7.93611 15.9295 8.07731 15.8584 8.23514C15.7873 8.39297 15.7498 8.56397 15.7481 8.73722C15.7481 9.59726 16.2776 9.9448 17.4987 10.4771L18.2113 10.7843C20.6351 11.8284 21.999 12.893 21.999 15.2877C21.999 17.8671 19.983 19.2799 17.2747 19.2799C14.627 19.2799 12.9166 18.0108 12.0814 16.3523" fill="#FDE635"/>
</svg>
