<svg width="24" height="24" viewBox="0 0 24 24" fill="none" xmlns="http://www.w3.org/2000/svg">
<path d="M12.3579 20.1075C12.1677 19.9284 11.9679 19.7486 11.7776 19.5503C11.6255 19.6994 11.483 19.8387 11.3309 19.978C9.44744 21.6974 7.50731 22.4135 6.35631 21.7173C5.24311 21.0511 4.89114 19.0817 5.33853 16.6054C5.38604 16.3368 5.44315 16.0683 5.50987 15.7999C5.31003 15.7402 5.1198 15.6805 4.92956 15.611C2.56095 14.7568 1.00098 13.3633 1.00098 11.9709C1.00098 10.6286 2.45716 9.32552 4.72942 8.49029C4.98626 8.4009 5.25271 8.31118 5.52846 8.23157C5.46184 7.97284 5.41413 7.72456 5.36673 7.48573C4.89114 4.96894 5.22421 2.96047 6.3467 2.28446C7.51661 1.56831 9.45704 2.33405 11.4068 4.13437C11.5208 4.24366 11.6351 4.36275 11.7587 4.48216C11.9397 4.30337 12.1107 4.12327 12.2916 3.96536C14.1376 2.28446 15.9727 1.5781 17.0945 2.25444C18.2645 2.95036 18.6071 5.09945 18.0838 7.75392C18.0553 7.92325 18.0172 8.08214 17.9794 8.25147C18.217 8.32129 18.4547 8.40057 18.6737 8.47985C20.9946 9.31541 22.4976 10.6182 22.4787 11.9908C22.4787 13.3937 20.8713 14.7754 18.4076 15.6305C18.2744 15.6703 18.1415 15.7199 18.0082 15.761C18.0652 15.9601 18.1033 16.1588 18.1415 16.3578C18.6372 18.9353 18.2558 21.0423 17.1048 21.7385C16.7986 21.9174 16.4528 22.0075 16.1028 21.9995C15.0463 21.9998 13.7072 21.3183 12.3579 20.1075ZM14.2225 16.4576C13.6736 17.2937 13.0733 18.0911 12.4255 18.8446C12.6061 19.0338 12.7867 19.2034 12.9677 19.3617C14.5369 20.7737 15.9829 21.301 16.658 20.8932C16.9722 20.7042 17.2383 20.2269 17.3622 19.501C17.4997 18.5142 17.4609 17.509 17.2479 16.5372C17.2194 16.3581 17.1813 16.1783 17.1336 15.9901C16.1734 16.2101 15.201 16.3658 14.2222 16.4563L14.2225 16.4576ZM6.25159 16.7761C5.86183 18.8941 6.14687 20.4755 6.82229 20.8834C7.13645 21.0723 7.65882 21.0723 8.32525 20.8237C9.21245 20.4605 10.0283 19.9278 10.7317 19.2524C10.8745 19.133 11.0074 18.9937 11.1502 18.8547C10.4876 18.1004 9.87102 17.3026 9.3043 16.4661C8.32953 16.3862 7.36066 16.2403 6.40371 16.0292C6.3467 16.2873 6.29899 16.5356 6.25128 16.7744L6.25159 16.7761ZM11.7875 18.1682C12.2061 17.6808 12.6241 17.1437 13.0433 16.547C12.6247 16.5669 12.1872 16.5767 11.7498 16.5767C11.3216 16.5767 10.9031 16.5668 10.4943 16.547C10.899 17.1097 11.3305 17.6503 11.7872 18.1669L11.7875 18.1682ZM9.78979 8.45995C9.42854 9.00677 9.0772 9.5836 8.74351 10.1891C8.41045 10.7859 8.1062 11.3927 7.83015 11.9989C8.1155 12.5957 8.41882 13.2025 8.75281 13.8191C9.08587 14.4159 9.43783 15.0025 9.79909 15.5594C10.4268 15.5992 11.0833 15.6191 11.7491 15.6191C12.4242 15.6191 13.0814 15.5992 13.7178 15.5496C14.0604 15.0025 14.4121 14.4159 14.7451 13.809C15.0782 13.2022 15.3917 12.5859 15.6678 11.9891C15.3921 11.4019 15.0791 10.7957 14.7451 10.1891C14.4112 9.58262 14.0601 9.00546 13.7085 8.45995C13.0712 8.41003 12.4146 8.38002 11.7491 8.38002C11.0836 8.38002 10.4271 8.41036 9.78979 8.45995ZM6.65095 15.1134C7.3045 15.2596 7.96494 15.3693 8.6295 15.442C8.40116 15.0638 8.17313 14.686 7.95408 14.2883C7.74495 13.9007 7.5355 13.5124 7.34527 13.1248C7.08084 13.7744 6.84908 14.4382 6.65095 15.1134ZM15.5429 14.2779C15.3242 14.6756 15.1055 15.0537 14.8867 15.4217C15.5612 15.3387 16.2311 15.2189 16.8938 15.0628C16.6865 14.39 16.4451 13.7294 16.1707 13.0837C15.9719 13.4813 15.7631 13.8795 15.5442 14.2782L15.5429 14.2779ZM5.02437 9.40611C3.08424 10.1219 1.91434 11.1679 1.91434 11.9816C1.91434 12.3598 2.18048 12.8371 2.71307 13.3141C3.46512 13.9312 4.31541 14.4026 5.22421 14.7062C5.39554 14.7659 5.57617 14.8159 5.7568 14.8756C6.05013 13.8947 6.40292 12.9346 6.81299 12.0012C6.40212 11.0832 6.05241 10.1361 5.7664 9.16696C5.50966 9.23591 5.26232 9.31563 5.02437 9.40611ZM16.6952 11.9816C17.117 12.903 17.4792 13.8533 17.7796 14.826C17.9035 14.7865 18.0274 14.7464 18.1411 14.7066C20.2622 13.9705 21.5749 12.8469 21.5845 11.9715C21.5845 11.1559 20.3669 10.102 18.3788 9.38588C18.1792 9.31639 17.9605 9.24657 17.7418 9.17708C17.452 10.1349 17.1023 11.0714 16.6952 11.9806V11.9816ZM15.5349 9.69322C15.7536 10.0909 15.9628 10.4792 16.1545 10.8678C16.4182 10.2358 16.6468 9.58829 16.8393 8.92846C16.1923 8.77416 15.5384 8.65438 14.8799 8.56958C15.1067 8.9376 15.3254 9.30562 15.5349 9.69322ZM6.66025 8.91672C6.85048 9.55293 7.07882 10.1996 7.34527 10.8658C7.5355 10.4782 7.74495 10.09 7.95408 9.70236C8.16321 9.31476 8.38195 8.93662 8.61029 8.5686C7.92558 8.6593 7.27897 8.77871 6.66025 8.91672ZM12.8908 4.69097C12.7291 4.84007 12.5674 4.99929 12.4057 5.1585C13.0631 5.90178 13.6702 6.69274 14.2225 7.52554C15.1889 7.6169 16.1484 7.77648 17.0945 8.00318C17.1327 7.85408 17.1612 7.70465 17.1897 7.55555C17.6364 5.26845 17.361 3.51773 16.6379 3.08054C16.4773 2.99308 16.2981 2.9504 16.1174 2.95656C15.3403 2.95623 14.1481 3.54938 12.8908 4.69097ZM6.80308 3.10925C6.12766 3.51675 5.86152 5.14806 6.26088 7.29617C6.30829 7.52456 6.35631 7.75294 6.41301 7.99209C7.36047 7.77388 8.31988 7.61784 9.28571 7.52488C9.83996 6.69097 10.4502 5.89993 11.1118 5.15785C11.0071 5.04823 10.8931 4.94904 10.7884 4.84921C9.46324 3.62116 8.19203 2.97287 7.36076 2.97287C7.16675 2.96623 6.97446 3.01325 6.80308 3.10925ZM13.0238 7.44528C12.6307 6.88725 12.2084 6.35276 11.7587 5.84431C11.3309 6.33142 10.9027 6.86877 10.4841 7.44528C10.9027 7.42537 11.3206 7.41559 11.7491 7.41559C12.1776 7.41559 12.6052 7.42603 13.0238 7.4456V7.44528ZM9.84587 12.0208C9.84324 11.6201 9.95365 11.2277 10.1631 10.8932C10.3726 10.5587 10.6716 10.2972 11.0224 10.142C11.3732 9.9867 11.7598 9.94463 12.1333 10.0211C12.5068 10.0976 12.8503 10.2891 13.1203 10.5714C13.3903 10.8538 13.5746 11.2142 13.6498 11.6069C13.725 11.9997 13.6877 12.4071 13.5427 12.7776C13.3977 13.148 13.1515 13.4648 12.8354 13.6877C12.5192 13.9106 12.1473 14.0296 11.7668 14.0296C11.5152 14.0312 11.2659 13.9804 11.033 13.8802C10.8001 13.78 10.5883 13.6323 10.4098 13.4456C10.2313 13.2589 10.0896 13.037 9.99285 12.7925C9.89606 12.5479 9.84611 12.2857 9.84587 12.0208Z" fill="#81D8F7"/>
</svg>
