<svg width="24" height="24" viewBox="0 0 24 24" fill="none" xmlns="http://www.w3.org/2000/svg">
<path d="M1 7.99749V5.375H11.9995V7.99749H7.8273V19.2367H5.17224V7.99749H1Z" fill="#0288D1"/>
<path d="M19.5861 9.12105L21.8619 7.62249L21.6195 7.2634C20.812 6.06699 19.5134 5.29254 18.077 5.15065L17.8403 5.12728C17.0017 5.04445 16.158 5.22226 15.4241 5.63647L15.2776 5.71915C14.3957 6.21691 13.7561 7.05406 13.5076 8.03578L13.4168 8.39453C13.2381 9.10057 13.3422 9.84848 13.7069 10.4789C14.3253 11.5478 15.2461 12.41 16.3533 12.9568L18.5035 14.0187C18.9452 14.2368 19.2553 14.6537 19.3373 15.1395C19.4674 15.9107 18.873 16.6139 18.0909 16.6139H18.0448C17.5657 16.6139 17.0971 16.4734 16.6969 16.2099L15.0346 15.1153L12.7588 16.6139L14.7647 18.375C15.6721 19.1717 16.8383 19.611 18.0457 19.611H18.1613C18.849 19.611 19.5285 19.4521 20.1452 19.1476C21.0124 18.7193 21.7187 18.0206 22.1556 17.1576C22.6822 16.1173 22.6476 14.8813 22.0637 13.872L21.9198 13.6232C21.6317 13.1253 21.2392 12.6957 20.7691 12.3641L18.8275 10.9943L17.0096 9.64754C16.4319 9.21957 16.477 8.34115 17.0955 7.9746C17.4534 7.76247 17.905 7.79271 18.2315 8.05068L19.5861 9.12105Z" fill="#0288D1"/>
</svg>
