<svg width="24" height="24" viewBox="0 0 24 24" fill="none" xmlns="http://www.w3.org/2000/svg">
<g clip-path="url(#clip0_4266_5408)">
<path d="M21.7537 4.94717L12.6586 21.2353C12.4708 21.5716 11.9883 21.5736 11.7977 21.2389L2.52219 4.94874C2.31454 4.58405 2.62592 4.14231 3.03856 4.21618L12.1435 5.84607C12.2016 5.85646 12.261 5.85637 12.3191 5.84577L21.2336 4.21851C21.6449 4.14344 21.9577 4.58176 21.7537 4.94717Z" fill="url(#paint0_linear_4266_5408)"/>
<path d="M16.4811 2.07802L9.7504 3.39885C9.63978 3.42056 9.55787 3.51445 9.5512 3.62713L9.13716 10.6303C9.12743 10.7952 9.27868 10.9232 9.43943 10.8861L11.3134 10.453C11.4887 10.4125 11.6471 10.5672 11.6111 10.7437L11.0543 13.4741C11.0169 13.6579 11.1891 13.815 11.3683 13.7605L12.5258 13.4083C12.7052 13.3537 12.8776 13.5113 12.8396 13.6952L11.9549 17.984C11.8995 18.2523 12.2558 18.3985 12.4044 18.1685L12.5037 18.0149L17.9882 7.05315C18.0801 6.86961 17.9217 6.66033 17.7204 6.69923L15.7915 7.07206C15.6102 7.10706 15.456 6.938 15.5072 6.76039L16.7661 2.38953C16.8173 2.21162 16.6626 2.04242 16.4811 2.07802Z" fill="url(#paint1_linear_4266_5408)"/>
</g>
<defs>
<linearGradient id="paint0_linear_4266_5408" x1="2.29572" y1="3.63406" x2="13.6374" y2="19.0139" gradientUnits="userSpaceOnUse">
<stop stop-color="#41D1FF"/>
<stop offset="1" stop-color="#BD34FE"/>
</linearGradient>
<linearGradient id="paint1_linear_4266_5408" x1="11.6214" y1="2.43663" x2="13.6751" y2="16.5036" gradientUnits="userSpaceOnUse">
<stop stop-color="#FFEA83"/>
<stop offset="0.0833333" stop-color="#FFDD35"/>
<stop offset="1" stop-color="#FFA800"/>
</linearGradient>
<clipPath id="clip0_4266_5408">
<rect width="20" height="20" fill="white" transform="translate(2 2)"/>
</clipPath>
</defs>
</svg>
