<?xml version="1.0" encoding="UTF-8"?>
<svg id="Camada_2" data-name="Camada 2" xmlns="http://www.w3.org/2000/svg" viewBox="0 0 1393.2 408.79">
  <defs>
    <style>
      .cls-1 {
        fill: #fff;
      }
    </style>
  </defs>
  <g id="Camada_1-2" data-name="Camada 1">
    <g>
      <g>
        <path class="cls-1" d="M438.43,131.59c9.16-17.24,21.89-30.51,38.17-39.81,16.27-9.3,34.82-13.96,55.61-13.96,23.54,0,43.51,5.75,59.93,17.24,16.42,11.49,27.91,26.13,34.47,43.92v-39.81c0-10.2,8.27-18.47,18.47-18.47h0v204.39c0,10.2-8.27,18.47-18.47,18.47h0v-58.69c-6.57,18.06-18.13,32.91-34.68,44.53-16.56,11.64-36.47,17.44-59.72,17.44-20.8,0-39.34-4.71-55.61-14.16-16.28-9.44-29-22.84-38.17-40.22-9.17-17.37-13.75-37.56-13.75-60.54s4.58-43.1,13.75-60.33ZM614.51,140.41c-8.07-14.9-19.08-26.4-33.04-34.47-13.95-8.06-29.55-12.11-46.79-12.11s-33.92,3.9-47.6,11.7c-13.69,7.79-24.36,19.08-32.01,33.86-7.67,14.77-11.5,32.28-11.5,52.53s3.83,37.76,11.5,52.54c7.65,14.77,18.4,26.13,32.21,34.06,13.81,7.95,29.62,11.9,47.4,11.9s32.91-4.03,47-12.1c14.09-8.07,25.1-19.56,33.04-34.48,7.93-14.9,11.9-32.21,11.9-51.92s-4.04-36.59-12.11-51.51Z"/>
        <path class="cls-1" d="M696.07,18.56v286.64h0c-10.2,0-18.47-8.31-18.47-18.56V0h0c10.2,0,18.47,8.31,18.47,18.56Z"/>
        <path class="cls-1" d="M933.14,201.84h-192.5c.55,19.98,4.93,36.81,13.14,50.49,8.21,13.69,19.01,23.94,32.42,30.78,13.41,6.85,28.05,10.26,43.92,10.26,21.89,0,40.22-5.4,55-16.21,14.78-10.81,24.08-25.52,27.91-44.12h0c10.14,0,17.31,10.37,13.32,19.69-5.95,13.91-15.17,25.75-27.7,35.52-18.06,14.09-40.91,21.13-68.54,21.13-20.8,0-39.4-4.65-55.82-13.95-16.42-9.3-29.27-22.64-38.57-40.02-9.31-17.37-13.96-37.68-13.96-60.95s4.58-43.5,13.75-60.75c9.16-17.24,21.96-30.43,38.38-39.6,16.42-9.16,35.16-13.75,56.22-13.75s39.88,4.59,55.61,13.75c15.73,9.17,27.71,21.34,35.92,36.53,8.21,15.18,12.32,31.54,12.32,49.04,0,9.85-.28,17.24-.82,22.17ZM905.02,136.58c-7.79-13.68-18.4-23.87-31.81-30.57-13.41-6.7-27.91-10.06-43.5-10.06s-30.03,3.35-43.3,10.06c-13.27,6.7-24.08,16.89-32.42,30.57-8.35,13.69-12.79,30.37-13.34,50.08h174.85c.82-19.71-2.67-36.39-10.47-50.08Z"/>
        <path class="cls-1" d="M1018.07,95.22c16.55-11.49,36.59-17.24,60.13-17.24,20.79,0,39.33,4.66,55.61,13.96,16.27,9.3,29,22.57,38.17,39.81,9.16,17.24,13.75,37.35,13.75,60.33s-4.59,43.17-13.75,60.54c-9.17,17.38-21.9,30.78-38.17,40.22-16.28,9.44-34.83,14.16-55.61,14.16-23.26,0-43.17-5.8-59.72-17.44-16.56-11.62-28.11-26.33-34.68-44.11v144.88c0,10.2-8.27,18.47-18.47,18.47h0V99.33c0-10.2,8.27-18.47,18.47-18.47h0v58.69c6.29-18.07,17.71-32.84,34.28-44.33ZM1155.36,139.55c-7.66-14.78-18.4-26.07-32.21-33.86-13.82-7.8-29.76-11.7-47.82-11.7s-32.83,4.05-46.79,12.11c-13.96,8.07-24.9,19.57-32.83,34.47-7.94,14.92-11.9,32.09-11.9,51.51s3.96,37.01,11.9,51.92c7.93,14.92,18.88,26.41,32.83,34.48,13.96,8.07,29.55,12.1,46.79,12.1s34-3.96,47.82-11.9c13.81-7.93,24.55-19.29,32.21-34.06,7.66-14.78,11.5-32.28,11.5-52.54s-3.84-37.76-11.5-52.53Z"/>
        <path class="cls-1" d="M1368.16,100.76c16.69,16.28,25.04,40.43,25.04,72.44v130.52h0c-9.97,0-18.06-8.08-18.06-18.06v-111.23c0-26.54-6.71-46.85-20.11-60.95-13.42-14.09-31.61-21.14-54.59-21.14s-43.29,7.67-57.67,22.99c-14.36,15.33-21.54,38.03-21.54,68.13v101.79c0,10.2-8.27,18.47-18.47,18.47h0V18.47c0-10.2,8.27-18.47,18.47-18.47h0v128.06c6.29-16.69,16.83-29.48,31.6-38.38,14.78-8.88,31.74-13.34,50.9-13.34,26.27,0,47.75,8.15,64.43,24.42Z"/>
      </g>
      <polyline class="cls-1" points="170.86 15.97 129.42 144.23 0 186.83 128.84 227.46 170.51 357.34 213.81 228.62 341.37 186.48 214.1 143.25"/>
    </g>
  </g>
</svg>