<svg width="356" height="248" viewBox="0 0 356 248" fill="none" xmlns="http://www.w3.org/2000/svg">
<g clip-path="url(#clip0_78_92)">
<g filter="url(#filter0_d_78_92)">
<rect x="128.15" y="61.15" width="99.7" height="99.7" rx="14.85" stroke="white" stroke-opacity="0.3" stroke-width="0.3" shape-rendering="crispEdges"/>
</g>
<g filter="url(#filter1_d_78_92)">
<rect x="274.15" y="0.15" width="61.7" height="61.7" rx="9.85" stroke="white" stroke-opacity="0.1" stroke-width="0.3" shape-rendering="crispEdges"/>
</g>
<g filter="url(#filter2_d_78_92)">
<rect x="-30.85" y="12.15" width="61.7" height="61.7" rx="9.85" stroke="white" stroke-opacity="0.1" stroke-width="0.3" shape-rendering="crispEdges"/>
</g>
<g filter="url(#filter3_d_78_92)">
<rect x="100.15" y="-30.85" width="61.7" height="61.7" rx="9.85" stroke="white" stroke-opacity="0.1" stroke-width="0.3" shape-rendering="crispEdges"/>
</g>
<g filter="url(#filter4_f_78_92)">
<rect x="130" y="63" width="95" height="95" rx="15" fill="white" fill-opacity="0.05"/>
</g>
<rect x="226" y="108" width="4" height="4" rx="1" fill="white"/>
<path d="M228.75 110H284.75C295.796 110 304.75 101.046 304.75 90V-23" stroke="white" stroke-opacity="0.5" stroke-width="0.5"/>
<path d="M126 111L70.3004 111C59.2547 111 50.3004 119.954 50.3004 131L50.3004 226C50.3004 237.046 41.3461 246 30.3004 246L-8.34465e-06 246" stroke="#FFA600" stroke-width="0.5"/>
<path d="M127.976 111H87.75C76.7043 111 67.75 102.046 67.75 91L67.75 46.136C67.75 35.0903 76.7043 26.136 87.75 26.136L110.75 26.136C121.796 26.136 130.75 17.1817 130.75 6.136V-25" stroke="#0080FF" stroke-opacity="0.75" stroke-width="0.5"/>
<path d="M228 110L330 110C341.046 110 350 118.954 350 130L350 248" stroke="white" stroke-opacity="0.5" stroke-width="0.5"/>
<path d="M128 111L25.5216 111C14.4759 111 5.52158 102.046 5.52158 91L5.52159 41.5216C5.52159 38.4721 3.04949 36 9.83506e-06 36V36" stroke="#009905" stroke-width="0.5"/>
<g clip-path="url(#clip1_78_92)">
<path d="M193.79 99.4733C192.856 99.4741 191.95 99.7846 191.212 100.356C190.473 100.928 189.946 101.728 189.712 102.632H184.883C183.887 102.631 182.923 102.985 182.162 103.629C181.402 104.273 180.894 105.165 180.73 106.148L180.558 107.188C180.477 107.68 180.224 108.127 179.843 108.449C179.463 108.771 178.98 108.948 178.482 108.947H176.813C176.58 108.043 176.052 107.243 175.314 106.671C174.576 106.1 173.669 105.79 172.736 105.79C171.802 105.79 170.895 106.1 170.157 106.671C169.419 107.243 168.892 108.043 168.658 108.947H166.288C166.032 107.954 165.422 107.089 164.574 106.514C163.726 105.939 162.696 105.693 161.68 105.822C160.663 105.951 159.728 106.447 159.05 107.216C158.373 107.985 157.999 108.975 157.999 110C157.999 111.025 158.373 112.015 159.05 112.784C159.728 113.553 160.663 114.049 161.68 114.178C162.696 114.307 163.726 114.061 164.574 113.486C165.422 112.911 166.032 112.046 166.288 111.053H168.658C168.891 111.958 169.419 112.759 170.157 113.331C170.895 113.903 171.803 114.214 172.737 114.214C173.671 114.214 174.578 113.903 175.316 113.331C176.055 112.759 176.582 111.958 176.815 111.053H178.482C178.98 111.052 179.464 111.228 179.844 111.55C180.225 111.872 180.479 112.319 180.56 112.812L180.732 113.85C180.895 114.833 181.403 115.726 182.163 116.371C182.924 117.015 183.888 117.368 184.885 117.368H185.502C185.758 118.361 186.367 119.226 187.216 119.801C188.064 120.377 189.093 120.623 190.11 120.494C191.127 120.365 192.062 119.869 192.74 119.1C193.417 118.331 193.791 117.341 193.791 116.316C193.791 115.291 193.417 114.301 192.74 113.532C192.062 112.762 191.127 112.267 190.11 112.138C189.093 112.009 188.064 112.255 187.216 112.83C186.367 113.406 185.758 114.271 185.502 115.263H184.885C184.386 115.264 183.903 115.088 183.523 114.765C183.142 114.443 182.889 113.996 182.808 113.503L182.637 112.465C182.478 111.51 181.994 110.639 181.267 110C181.993 109.36 182.476 108.488 182.633 107.533L182.807 106.497C182.887 106.004 183.141 105.557 183.521 105.235C183.902 104.912 184.385 104.736 184.883 104.737H189.71C189.907 105.499 190.313 106.192 190.884 106.735C191.454 107.278 192.166 107.651 192.937 107.81C193.709 107.969 194.51 107.909 195.249 107.635C195.987 107.362 196.635 106.887 197.117 106.265C197.6 105.642 197.898 104.896 197.978 104.113C198.058 103.329 197.917 102.539 197.57 101.831C197.223 101.124 196.685 100.528 196.017 100.111C195.348 99.6943 194.576 99.4733 193.788 99.4733M193.788 101.578C194.347 101.578 194.882 101.8 195.277 102.195C195.672 102.59 195.893 103.125 195.893 103.683C195.894 103.96 195.839 104.234 195.734 104.489C195.628 104.745 195.473 104.977 195.277 105.173C195.082 105.369 194.85 105.524 194.594 105.63C194.339 105.735 194.065 105.79 193.788 105.79C193.512 105.79 193.238 105.735 192.982 105.63C192.727 105.524 192.495 105.369 192.299 105.173C192.104 104.977 191.949 104.745 191.843 104.489C191.737 104.234 191.683 103.96 191.683 103.683C191.683 103.407 191.738 103.133 191.844 102.877C191.95 102.622 192.105 102.39 192.3 102.194C192.496 101.999 192.728 101.844 192.984 101.738C193.24 101.632 193.513 101.578 193.79 101.578M162.21 107.895C162.487 107.895 162.76 107.949 163.016 108.055C163.272 108.16 163.504 108.315 163.7 108.511C163.895 108.706 164.05 108.939 164.156 109.194C164.262 109.45 164.317 109.723 164.317 110C164.317 110.277 164.262 110.55 164.156 110.806C164.05 111.061 163.895 111.294 163.7 111.489C163.504 111.685 163.272 111.84 163.016 111.945C162.76 112.051 162.487 112.105 162.21 112.105C161.652 112.105 161.116 111.883 160.722 111.488C160.327 111.094 160.105 110.558 160.105 110C160.105 109.442 160.327 108.906 160.722 108.512C161.116 108.117 161.652 107.895 162.21 107.895ZM172.737 107.895C173.013 107.895 173.287 107.949 173.542 108.055C173.798 108.161 174.03 108.316 174.225 108.512C174.421 108.707 174.576 108.939 174.681 109.194C174.787 109.45 174.842 109.724 174.842 110C174.842 110.558 174.62 111.094 174.225 111.488C173.83 111.883 173.295 112.105 172.737 112.105C172.179 112.105 171.644 111.883 171.249 111.488C170.855 111.093 170.633 110.558 170.633 110C170.633 109.442 170.855 108.906 171.25 108.512C171.645 108.117 172.18 107.895 172.738 107.895M189.582 114.212C190.14 114.212 190.675 114.433 191.07 114.828C191.465 115.223 191.687 115.758 191.687 116.317C191.687 116.875 191.465 117.41 191.07 117.805C190.675 118.2 190.14 118.422 189.582 118.422C189.305 118.422 189.031 118.368 188.776 118.262C188.52 118.156 188.288 118.001 188.092 117.806C187.896 117.61 187.741 117.378 187.635 117.123C187.529 116.867 187.475 116.593 187.475 116.317C187.475 116.04 187.529 115.766 187.635 115.511C187.74 115.255 187.895 115.023 188.091 114.827C188.286 114.631 188.519 114.476 188.774 114.37C189.03 114.264 189.303 114.21 189.58 114.21" fill="white" fill-opacity="0.8"/>
</g>
<path d="M128.354 111.354C128.549 111.158 128.549 110.842 128.354 110.646L125.172 107.464C124.976 107.269 124.66 107.269 124.464 107.464C124.269 107.66 124.269 107.976 124.464 108.172L127.293 111L124.464 113.828C124.269 114.024 124.269 114.34 124.464 114.536C124.66 114.731 124.976 114.731 125.172 114.536L128.354 111.354ZM127 111V111.5H128V111V110.5H127V111Z" fill="#009905"/>
<path d="M132.534 38.6H133.992L137.046 47H135.726L135.144 45.404H131.382L130.806 47H129.48L132.534 38.6ZM131.844 44.156H134.682L133.26 40.256L131.844 44.156ZM137.578 44.75V41H138.826V44.444C138.826 44.712 138.892 44.956 139.024 45.176C139.156 45.396 139.332 45.572 139.552 45.704C139.772 45.832 140.014 45.896 140.278 45.896C140.546 45.896 140.788 45.832 141.004 45.704C141.224 45.572 141.398 45.396 141.526 45.176C141.658 44.956 141.724 44.712 141.724 44.444V41H142.972L142.978 47H141.73L141.724 46.352C141.52 46.6 141.266 46.796 140.962 46.94C140.658 47.084 140.332 47.156 139.984 47.156C139.54 47.156 139.136 47.048 138.772 46.832C138.408 46.616 138.118 46.326 137.902 45.962C137.686 45.598 137.578 45.194 137.578 44.75ZM147.349 42.248H146.089L146.083 47H144.835L144.841 42.248H143.887V41H144.841L144.835 39.116H146.083L146.089 41H147.349V42.248ZM150.923 47.156C150.371 47.156 149.867 47.014 149.411 46.73C148.959 46.446 148.597 46.066 148.325 45.59C148.057 45.11 147.923 44.58 147.923 44C147.923 43.56 148.001 43.15 148.157 42.77C148.313 42.386 148.527 42.05 148.799 41.762C149.075 41.47 149.395 41.242 149.759 41.078C150.123 40.914 150.511 40.832 150.923 40.832C151.475 40.832 151.977 40.974 152.429 41.258C152.885 41.542 153.247 41.924 153.515 42.404C153.787 42.884 153.923 43.416 153.923 44C153.923 44.436 153.845 44.844 153.689 45.224C153.533 45.604 153.317 45.94 153.041 46.232C152.769 46.52 152.451 46.746 152.087 46.91C151.727 47.074 151.339 47.156 150.923 47.156ZM150.923 45.908C151.255 45.908 151.553 45.82 151.817 45.644C152.081 45.468 152.289 45.236 152.441 44.948C152.597 44.656 152.675 44.34 152.675 44C152.675 43.652 152.595 43.332 152.435 43.04C152.279 42.748 152.069 42.516 151.805 42.344C151.541 42.168 151.247 42.08 150.923 42.08C150.595 42.08 150.297 42.168 150.029 42.344C149.765 42.52 149.555 42.754 149.399 43.046C149.247 43.338 149.171 43.656 149.171 44C149.171 44.356 149.251 44.678 149.411 44.966C149.571 45.254 149.783 45.484 150.047 45.656C150.315 45.824 150.607 45.908 150.923 45.908ZM154.892 47V41H156.14V41.636C156.348 41.388 156.602 41.192 156.902 41.048C157.206 40.904 157.534 40.832 157.886 40.832C158.314 40.832 158.708 40.936 159.068 41.144C159.428 41.348 159.714 41.62 159.926 41.96C160.138 41.62 160.42 41.348 160.772 41.144C161.128 40.936 161.52 40.832 161.948 40.832C162.392 40.832 162.796 40.94 163.16 41.156C163.524 41.372 163.814 41.662 164.03 42.026C164.246 42.39 164.354 42.794 164.354 43.238V47H163.106V43.556C163.106 43.292 163.042 43.05 162.914 42.83C162.786 42.61 162.614 42.432 162.398 42.296C162.182 42.16 161.942 42.092 161.678 42.092C161.414 42.092 161.174 42.156 160.958 42.284C160.742 42.412 160.57 42.586 160.442 42.806C160.314 43.026 160.25 43.276 160.25 43.556V47H159.002V43.556C159.002 43.276 158.938 43.026 158.81 42.806C158.682 42.586 158.508 42.412 158.288 42.284C158.072 42.156 157.832 42.092 157.568 42.092C157.308 42.092 157.068 42.16 156.848 42.296C156.632 42.432 156.46 42.61 156.332 42.83C156.204 43.05 156.14 43.292 156.14 43.556V47H154.892ZM170.107 41H171.355V47H170.101L170.053 46.13C169.877 46.438 169.639 46.686 169.339 46.874C169.039 47.062 168.685 47.156 168.277 47.156C167.837 47.156 167.423 47.074 167.035 46.91C166.647 46.742 166.305 46.51 166.009 46.214C165.717 45.918 165.489 45.578 165.325 45.194C165.161 44.806 165.079 44.39 165.079 43.946C165.079 43.518 165.159 43.116 165.319 42.74C165.479 42.36 165.701 42.028 165.985 41.744C166.269 41.46 166.597 41.238 166.969 41.078C167.345 40.914 167.747 40.832 168.175 40.832C168.611 40.832 168.995 40.932 169.327 41.132C169.663 41.328 169.941 41.58 170.161 41.888L170.107 41ZM168.247 45.95C168.599 45.95 168.907 45.864 169.171 45.692C169.435 45.516 169.639 45.28 169.783 44.984C169.931 44.688 170.005 44.36 170.005 44C170.005 43.636 169.931 43.306 169.783 43.01C169.635 42.714 169.429 42.48 169.165 42.308C168.905 42.132 168.599 42.044 168.247 42.044C167.899 42.044 167.581 42.132 167.293 42.308C167.005 42.484 166.777 42.72 166.609 43.016C166.441 43.312 166.357 43.64 166.357 44C166.357 44.364 166.443 44.694 166.615 44.99C166.791 45.282 167.021 45.516 167.305 45.692C167.593 45.864 167.907 45.95 168.247 45.95ZM176.353 45.296L177.469 45.902C177.197 46.282 176.851 46.586 176.431 46.814C176.015 47.042 175.563 47.156 175.075 47.156C174.523 47.156 174.019 47.014 173.563 46.73C173.111 46.446 172.749 46.066 172.477 45.59C172.209 45.11 172.075 44.58 172.075 44C172.075 43.56 172.153 43.15 172.309 42.77C172.465 42.386 172.679 42.05 172.951 41.762C173.227 41.47 173.547 41.242 173.911 41.078C174.275 40.914 174.663 40.832 175.075 40.832C175.563 40.832 176.015 40.946 176.431 41.174C176.851 41.402 177.197 41.708 177.469 42.092L176.353 42.698C176.185 42.498 175.989 42.346 175.765 42.242C175.541 42.134 175.311 42.08 175.075 42.08C174.747 42.08 174.449 42.17 174.181 42.35C173.917 42.526 173.707 42.76 173.551 43.052C173.399 43.34 173.323 43.656 173.323 44C173.323 44.34 173.401 44.656 173.557 44.948C173.713 45.236 173.923 45.468 174.187 45.644C174.455 45.82 174.751 45.908 175.075 45.908C175.323 45.908 175.559 45.852 175.783 45.74C176.007 45.628 176.197 45.48 176.353 45.296ZM175.111 49.238C174.835 49.31 174.573 49.274 174.325 49.13C174.081 48.99 173.921 48.784 173.845 48.512L174.517 48.332C174.541 48.42 174.593 48.486 174.673 48.53C174.753 48.578 174.839 48.59 174.931 48.566C175.023 48.542 175.091 48.49 175.135 48.41C175.183 48.33 175.195 48.244 175.171 48.152C175.147 48.06 175.095 47.992 175.015 47.948C174.935 47.908 174.849 47.896 174.757 47.912L174.055 47.954L174.859 46.544L175.465 46.892L175.225 47.3C175.373 47.352 175.501 47.436 175.609 47.552C175.721 47.672 175.797 47.814 175.837 47.978C175.913 48.25 175.879 48.51 175.735 48.758C175.595 49.006 175.387 49.166 175.111 49.238ZM183.068 41H184.316V47H183.062L183.014 46.13C182.838 46.438 182.6 46.686 182.3 46.874C182 47.062 181.646 47.156 181.238 47.156C180.798 47.156 180.384 47.074 179.996 46.91C179.608 46.742 179.266 46.51 178.97 46.214C178.678 45.918 178.45 45.578 178.286 45.194C178.122 44.806 178.04 44.39 178.04 43.946C178.04 43.518 178.12 43.116 178.28 42.74C178.44 42.36 178.662 42.028 178.946 41.744C179.23 41.46 179.558 41.238 179.93 41.078C180.306 40.914 180.708 40.832 181.136 40.832C181.572 40.832 181.956 40.932 182.288 41.132C182.624 41.328 182.902 41.58 183.122 41.888L183.068 41ZM181.208 45.95C181.56 45.95 181.868 45.864 182.132 45.692C182.396 45.516 182.6 45.28 182.744 44.984C182.892 44.688 182.966 44.36 182.966 44C182.966 43.636 182.892 43.306 182.744 43.01C182.596 42.714 182.39 42.48 182.126 42.308C181.866 42.132 181.56 42.044 181.208 42.044C180.86 42.044 180.542 42.132 180.254 42.308C179.966 42.484 179.738 42.72 179.57 43.016C179.402 43.312 179.318 43.64 179.318 44C179.318 44.364 179.404 44.694 179.576 44.99C179.752 45.282 179.982 45.516 180.266 45.692C180.554 45.864 180.868 45.95 181.208 45.95ZM182.258 40.316C182.11 40.316 181.938 40.266 181.742 40.166C181.55 40.066 181.356 39.954 181.16 39.83C180.964 39.702 180.79 39.598 180.638 39.518C180.486 39.438 180.376 39.42 180.308 39.464C180.236 39.508 180.186 39.576 180.158 39.668C180.13 39.756 180.136 39.87 180.176 40.01L179.42 40.214C179.324 39.934 179.302 39.674 179.354 39.434C179.41 39.194 179.528 39.002 179.708 38.858C179.888 38.71 180.114 38.636 180.386 38.636C180.534 38.636 180.702 38.68 180.89 38.768C181.078 38.856 181.266 38.956 181.454 39.068C181.642 39.18 181.812 39.28 181.964 39.368C182.116 39.456 182.228 39.5 182.3 39.5C182.388 39.5 182.448 39.47 182.48 39.41C182.512 39.346 182.526 39.272 182.522 39.188C182.518 39.104 182.502 39.026 182.474 38.954L183.242 38.708C183.342 39.008 183.36 39.28 183.296 39.524C183.236 39.764 183.114 39.956 182.93 40.1C182.75 40.244 182.526 40.316 182.258 40.316ZM188.036 47.156C187.484 47.156 186.98 47.014 186.524 46.73C186.072 46.446 185.71 46.066 185.438 45.59C185.17 45.11 185.036 44.58 185.036 44C185.036 43.56 185.114 43.15 185.27 42.77C185.426 42.386 185.64 42.05 185.912 41.762C186.188 41.47 186.508 41.242 186.872 41.078C187.236 40.914 187.624 40.832 188.036 40.832C188.588 40.832 189.09 40.974 189.542 41.258C189.998 41.542 190.36 41.924 190.628 42.404C190.9 42.884 191.036 43.416 191.036 44C191.036 44.436 190.958 44.844 190.802 45.224C190.646 45.604 190.43 45.94 190.154 46.232C189.882 46.52 189.564 46.746 189.2 46.91C188.84 47.074 188.452 47.156 188.036 47.156ZM188.036 45.908C188.368 45.908 188.666 45.82 188.93 45.644C189.194 45.468 189.402 45.236 189.554 44.948C189.71 44.656 189.788 44.34 189.788 44C189.788 43.652 189.708 43.332 189.548 43.04C189.392 42.748 189.182 42.516 188.918 42.344C188.654 42.168 188.36 42.08 188.036 42.08C187.708 42.08 187.41 42.168 187.142 42.344C186.878 42.52 186.668 42.754 186.512 43.046C186.36 43.338 186.284 43.656 186.284 44C186.284 44.356 186.364 44.678 186.524 44.966C186.684 45.254 186.896 45.484 187.16 45.656C187.428 45.824 187.72 45.908 188.036 45.908ZM191.923 47V38.6H194.905C195.337 38.6 195.727 38.688 196.075 38.864C196.427 39.04 196.705 39.294 196.909 39.626C197.117 39.954 197.221 40.348 197.221 40.808C197.221 41.032 197.185 41.252 197.113 41.468C197.041 41.684 196.939 41.874 196.807 42.038C196.675 42.202 196.515 42.318 196.327 42.386C196.583 42.45 196.795 42.566 196.963 42.734C197.135 42.898 197.271 43.09 197.371 43.31C197.471 43.53 197.541 43.758 197.581 43.994C197.625 44.23 197.647 44.454 197.647 44.666C197.647 45.114 197.539 45.514 197.323 45.866C197.107 46.218 196.817 46.496 196.453 46.7C196.093 46.9 195.695 47 195.259 47H191.923ZM193.171 45.92H195.139C195.395 45.92 195.627 45.856 195.835 45.728C196.047 45.6 196.215 45.424 196.339 45.2C196.463 44.972 196.525 44.716 196.525 44.432C196.525 44.184 196.463 43.95 196.339 43.73C196.215 43.506 196.047 43.326 195.835 43.19C195.627 43.054 195.395 42.986 195.139 42.986H193.171V45.92ZM193.171 41.924H194.773C195.101 41.924 195.383 41.824 195.619 41.624C195.855 41.424 195.973 41.15 195.973 40.802C195.973 40.43 195.855 40.152 195.619 39.968C195.383 39.78 195.101 39.686 194.773 39.686H193.171V41.924ZM202.654 41H203.986L200.698 50H199.372L200.458 47L198.304 41H199.666L201.082 45.29L202.654 41ZM204.884 47V38.6H206.234L210.092 44.744V38.6H211.34V47H209.99L206.132 40.856V47H204.884ZM215.291 47.156C214.783 47.156 214.321 47.04 213.905 46.808C213.489 46.576 213.157 46.266 212.909 45.878C212.665 45.486 212.543 45.05 212.543 44.57C212.543 44.166 212.643 43.79 212.843 43.442C213.043 43.094 213.309 42.806 213.641 42.578C213.373 42.378 213.155 42.126 212.987 41.822C212.819 41.518 212.735 41.19 212.735 40.838C212.735 40.398 212.849 39.998 213.077 39.638C213.309 39.274 213.619 38.984 214.007 38.768C214.395 38.552 214.823 38.444 215.291 38.444C215.759 38.444 216.187 38.552 216.575 38.768C216.963 38.984 217.271 39.274 217.499 39.638C217.731 39.998 217.847 40.398 217.847 40.838C217.847 41.19 217.763 41.518 217.595 41.822C217.431 42.126 217.213 42.378 216.941 42.578C217.281 42.806 217.549 43.094 217.745 43.442C217.945 43.79 218.045 44.166 218.045 44.57C218.045 45.046 217.921 45.48 217.673 45.872C217.425 46.264 217.093 46.576 216.677 46.808C216.261 47.04 215.799 47.156 215.291 47.156ZM215.291 45.908C215.555 45.908 215.795 45.848 216.011 45.728C216.227 45.608 216.399 45.448 216.527 45.248C216.659 45.044 216.725 44.818 216.725 44.57C216.725 44.326 216.659 44.104 216.527 43.904C216.399 43.7 216.227 43.538 216.011 43.418C215.795 43.298 215.555 43.238 215.291 43.238C215.031 43.238 214.791 43.298 214.571 43.418C214.355 43.538 214.181 43.7 214.049 43.904C213.921 44.104 213.857 44.326 213.857 44.57C213.857 44.818 213.921 45.044 214.049 45.248C214.181 45.448 214.355 45.608 214.571 45.728C214.791 45.848 215.031 45.908 215.291 45.908ZM215.291 41.99C215.519 41.99 215.725 41.938 215.909 41.834C216.097 41.73 216.247 41.592 216.359 41.42C216.471 41.244 216.527 41.05 216.527 40.838C216.527 40.626 216.471 40.434 216.359 40.262C216.247 40.09 216.097 39.952 215.909 39.848C215.725 39.744 215.519 39.692 215.291 39.692C215.063 39.692 214.855 39.744 214.667 39.848C214.483 39.952 214.335 40.09 214.223 40.262C214.111 40.434 214.055 40.626 214.055 40.838C214.055 41.05 214.111 41.244 214.223 41.42C214.335 41.592 214.483 41.73 214.667 41.834C214.855 41.938 215.063 41.99 215.291 41.99ZM219.24 47V38.6H220.59L224.448 44.744V38.6H225.696V47H224.346L220.488 40.856V47H219.24Z" fill="#FBFBFB" fill-opacity="0.75"/>
</g>
<defs>
<filter id="filter0_d_78_92" x="118" y="51" width="120" height="120" filterUnits="userSpaceOnUse" color-interpolation-filters="sRGB">
<feFlood flood-opacity="0" result="BackgroundImageFix"/>
<feColorMatrix in="SourceAlpha" type="matrix" values="0 0 0 0 0 0 0 0 0 0 0 0 0 0 0 0 0 0 127 0" result="hardAlpha"/>
<feOffset/>
<feGaussianBlur stdDeviation="5"/>
<feComposite in2="hardAlpha" operator="out"/>
<feColorMatrix type="matrix" values="0 0 0 0 0 0 0 0 0 0 0 0 0 0 0 0 0 0 0.25 0"/>
<feBlend mode="normal" in2="BackgroundImageFix" result="effect1_dropShadow_78_92"/>
<feBlend mode="normal" in="SourceGraphic" in2="effect1_dropShadow_78_92" result="shape"/>
</filter>
<filter id="filter1_d_78_92" x="264" y="-10" width="82" height="82" filterUnits="userSpaceOnUse" color-interpolation-filters="sRGB">
<feFlood flood-opacity="0" result="BackgroundImageFix"/>
<feColorMatrix in="SourceAlpha" type="matrix" values="0 0 0 0 0 0 0 0 0 0 0 0 0 0 0 0 0 0 127 0" result="hardAlpha"/>
<feOffset/>
<feGaussianBlur stdDeviation="5"/>
<feComposite in2="hardAlpha" operator="out"/>
<feColorMatrix type="matrix" values="0 0 0 0 0 0 0 0 0 0 0 0 0 0 0 0 0 0 0.25 0"/>
<feBlend mode="normal" in2="BackgroundImageFix" result="effect1_dropShadow_78_92"/>
<feBlend mode="normal" in="SourceGraphic" in2="effect1_dropShadow_78_92" result="shape"/>
</filter>
<filter id="filter2_d_78_92" x="-41" y="2" width="82" height="82" filterUnits="userSpaceOnUse" color-interpolation-filters="sRGB">
<feFlood flood-opacity="0" result="BackgroundImageFix"/>
<feColorMatrix in="SourceAlpha" type="matrix" values="0 0 0 0 0 0 0 0 0 0 0 0 0 0 0 0 0 0 127 0" result="hardAlpha"/>
<feOffset/>
<feGaussianBlur stdDeviation="5"/>
<feComposite in2="hardAlpha" operator="out"/>
<feColorMatrix type="matrix" values="0 0 0 0 0 0 0 0 0 0 0 0 0 0 0 0 0 0 0.25 0"/>
<feBlend mode="normal" in2="BackgroundImageFix" result="effect1_dropShadow_78_92"/>
<feBlend mode="normal" in="SourceGraphic" in2="effect1_dropShadow_78_92" result="shape"/>
</filter>
<filter id="filter3_d_78_92" x="90" y="-41" width="82" height="82" filterUnits="userSpaceOnUse" color-interpolation-filters="sRGB">
<feFlood flood-opacity="0" result="BackgroundImageFix"/>
<feColorMatrix in="SourceAlpha" type="matrix" values="0 0 0 0 0 0 0 0 0 0 0 0 0 0 0 0 0 0 127 0" result="hardAlpha"/>
<feOffset/>
<feGaussianBlur stdDeviation="5"/>
<feComposite in2="hardAlpha" operator="out"/>
<feColorMatrix type="matrix" values="0 0 0 0 0 0 0 0 0 0 0 0 0 0 0 0 0 0 0.25 0"/>
<feBlend mode="normal" in2="BackgroundImageFix" result="effect1_dropShadow_78_92"/>
<feBlend mode="normal" in="SourceGraphic" in2="effect1_dropShadow_78_92" result="shape"/>
</filter>
<filter id="filter4_f_78_92" x="120" y="53" width="115" height="115" filterUnits="userSpaceOnUse" color-interpolation-filters="sRGB">
<feFlood flood-opacity="0" result="BackgroundImageFix"/>
<feBlend mode="normal" in="SourceGraphic" in2="BackgroundImageFix" result="shape"/>
<feGaussianBlur stdDeviation="5" result="effect1_foregroundBlur_78_92"/>
</filter>
<clipPath id="clip0_78_92">
<rect width="356" height="248" fill="white"/>
</clipPath>
<clipPath id="clip1_78_92">
<rect width="40" height="40" fill="white" transform="translate(158 90)"/>
</clipPath>
</defs>
</svg>
