<svg width="705" height="517" viewBox="0 0 705 517" fill="none" xmlns="http://www.w3.org/2000/svg">
<g filter="url(#filter0_n_74_17)">
<circle cx="351.137" cy="259.282" r="80.4" stroke="white" stroke-opacity="0.2" stroke-width="0.2"/>
<circle cx="351.137" cy="258.282" r="92.4" stroke="white" stroke-opacity="0.2" stroke-width="0.2"/>
<circle cx="351.137" cy="258.282" r="101.64" stroke="white" stroke-opacity="0.2" stroke-width="0.22"/>
<circle cx="351.137" cy="258.282" r="111.804" stroke="white" stroke-opacity="0.2" stroke-width="0.242"/>
<circle cx="351.137" cy="258.282" r="122.984" stroke="white" stroke-opacity="0.2" stroke-width="0.2662"/>
<circle cx="351.137" cy="258.282" r="135.283" stroke="white" stroke-opacity="0.2" stroke-width="0.29282"/>
<circle cx="351.137" cy="258.282" r="148.811" stroke="white" stroke-opacity="0.2" stroke-width="0.322102"/>
<circle cx="351.137" cy="258.282" r="163.692" stroke="white" stroke-opacity="0.2" stroke-width="0.354312"/>
<circle cx="351.137" cy="258.282" r="180.061" stroke="white" stroke-opacity="0.2" stroke-width="0.389743"/>
<circle cx="351.137" cy="258.282" r="198.068" stroke="white" stroke-opacity="0.2" stroke-width="0.428718"/>
<circle cx="351.137" cy="258.282" r="198.068" stroke="white" stroke-opacity="0.2" stroke-width="0.428718"/>
<g filter="url(#filter1_n_74_17)">
<path d="M350.968 188.961C371.247 188.961 389.502 197.626 402.233 211.46C413.65 223.866 420.62 240.425 420.62 258.614C420.62 297.082 389.436 328.266 350.968 328.266C312.5 328.266 281.315 297.082 281.315 258.614C281.315 220.146 312.5 188.961 350.968 188.961Z" stroke="url(#paint0_linear_74_17)" stroke-width="2"/>
</g>
<g filter="url(#filter2_f_74_17)">
<circle cx="350.968" cy="258.614" r="64.4189" fill="black"/>
</g>
<g filter="url(#filter3_f_74_17)">
<circle cx="350.968" cy="258.614" r="64.4189" fill="black"/>
</g>
<g filter="url(#filter4_f_74_17)">
<circle cx="350.968" cy="258.614" r="64.4189" fill="#4A4A4A" fill-opacity="0.4"/>
</g>
<g clip-path="url(#clip0_74_17)">
<path d="M375.664 235.14L352.466 247.009L328.948 235.14L341.007 258.308L328.948 281.762L352.465 270.082L375.664 281.762L364.175 258.451" fill="white"/>
</g>
<circle cx="470.683" cy="145.766" r="47.1607" fill="black"/>
<circle cx="470.683" cy="145.766" r="46.9529" stroke="white" stroke-opacity="0.5" stroke-width="0.415606"/>
<g filter="url(#filter5_f_74_17)">
<circle cx="470.683" cy="145.766" r="42.9994" fill="black"/>
<circle cx="470.683" cy="145.766" r="41.9604" stroke="black" stroke-width="2.07803"/>
</g>
<path d="M477.985 151.587C477.149 151.588 476.324 151.774 475.569 152.134C474.814 152.493 474.149 153.017 473.622 153.665L465.524 148.462C465.91 147.686 466.111 146.83 466.111 145.962C466.111 145.095 465.91 144.239 465.524 143.462L473.622 138.259C474.53 139.37 475.829 140.092 477.252 140.275C478.675 140.459 480.115 140.09 481.275 139.246C482.435 138.401 483.227 137.144 483.489 135.734C483.752 134.323 483.464 132.865 482.685 131.66C481.906 130.455 480.696 129.594 479.302 129.253C477.908 128.913 476.436 129.119 475.19 129.83C473.943 130.541 473.016 131.702 472.599 133.075C472.181 134.447 472.306 135.928 472.946 137.212L464.847 142.415C464.115 141.513 463.121 140.861 462.002 140.547C460.883 140.233 459.695 140.273 458.6 140.661C457.505 141.05 456.557 141.768 455.887 142.718C455.216 143.667 454.857 144.8 454.857 145.962C454.857 147.124 455.216 148.258 455.887 149.207C456.557 150.156 457.505 150.874 458.6 151.263C459.695 151.652 460.883 151.692 462.002 151.378C463.121 151.064 464.115 150.411 464.847 149.509L472.946 154.712C472.402 155.808 472.231 157.051 472.457 158.253C472.683 159.455 473.295 160.55 474.2 161.373C475.104 162.196 476.253 162.702 477.471 162.814C478.689 162.925 479.91 162.637 480.949 161.993C481.989 161.348 482.79 160.382 483.231 159.241C483.672 158.101 483.73 156.847 483.394 155.671C483.059 154.495 482.35 153.46 481.374 152.723C480.398 151.986 479.208 151.587 477.985 151.587ZM477.985 130.337C478.85 130.337 479.696 130.594 480.415 131.075C481.135 131.555 481.696 132.239 482.027 133.038C482.358 133.837 482.445 134.717 482.276 135.566C482.107 136.414 481.69 137.194 481.078 137.806C480.467 138.418 479.687 138.834 478.838 139.003C477.99 139.172 477.11 139.085 476.311 138.754C475.511 138.423 474.828 137.862 474.347 137.143C473.866 136.423 473.61 135.578 473.61 134.712C473.61 133.552 474.071 132.439 474.891 131.619C475.712 130.798 476.825 130.337 477.985 130.337ZM460.485 150.337C459.62 150.337 458.774 150.081 458.054 149.6C457.335 149.119 456.774 148.436 456.443 147.636C456.112 146.837 456.025 145.957 456.194 145.109C456.363 144.26 456.779 143.48 457.391 142.869C458.003 142.257 458.783 141.84 459.631 141.671C460.48 141.502 461.36 141.589 462.159 141.92C462.959 142.251 463.642 142.812 464.123 143.532C464.603 144.251 464.86 145.097 464.86 145.962C464.86 147.123 464.399 148.235 463.578 149.056C462.758 149.876 461.645 150.337 460.485 150.337ZM477.985 161.587C477.12 161.587 476.274 161.331 475.554 160.85C474.835 160.369 474.274 159.686 473.943 158.886C473.612 158.087 473.525 157.207 473.694 156.359C473.863 155.51 474.279 154.73 474.891 154.119C475.503 153.507 476.283 153.09 477.131 152.921C477.98 152.752 478.86 152.839 479.659 153.17C480.459 153.501 481.142 154.062 481.623 154.782C482.103 155.501 482.36 156.347 482.36 157.212C482.36 158.373 481.899 159.485 481.078 160.306C480.258 161.126 479.145 161.587 477.985 161.587Z" fill="#8F8F8F" fill-opacity="0.4"/>
<circle cx="470.683" cy="370.686" r="47.1607" fill="black"/>
<circle cx="470.683" cy="370.686" r="46.9529" stroke="white" stroke-opacity="0.5" stroke-width="0.415606"/>
<g filter="url(#filter6_f_74_17)">
<circle cx="470.683" cy="370.686" r="42.9994" fill="black"/>
</g>
<path d="M470.783 355.337C467.692 355.337 464.671 356.254 462.102 357.971C459.532 359.687 457.53 362.128 456.347 364.983C455.164 367.838 454.855 370.98 455.458 374.011C456.061 377.041 457.549 379.826 459.734 382.011C461.919 384.196 464.703 385.684 467.734 386.287C470.765 386.89 473.907 386.58 476.762 385.398C479.617 384.215 482.058 382.213 483.774 379.643C485.491 377.073 486.408 374.053 486.408 370.962C486.403 366.82 484.755 362.848 481.826 359.919C478.897 356.989 474.925 355.342 470.783 355.337ZM485.142 370.337H477.642C477.462 363.22 474.245 358.693 472.411 356.681C475.81 357.073 478.958 358.663 481.291 361.165C483.624 363.668 484.99 366.919 485.144 370.337H485.142ZM470.783 385.12C469.483 383.87 465.381 379.318 465.169 371.587H476.397C476.184 379.318 472.083 383.87 470.783 385.12ZM465.169 370.337C465.381 362.606 469.483 358.054 470.783 356.804C472.083 358.054 476.184 362.606 476.397 370.337H465.169ZM469.148 356.681C467.314 358.693 464.097 363.22 463.917 370.337H456.417C456.571 366.919 457.936 363.668 460.269 361.166C462.602 358.663 465.75 357.073 469.148 356.681ZM456.422 371.587H463.922C464.101 378.704 467.319 383.231 469.153 385.243C465.754 384.851 462.607 383.261 460.274 380.759C457.941 378.256 456.575 375.005 456.422 371.587ZM472.417 385.243C474.251 383.231 477.469 378.704 477.648 371.587H485.148C484.995 375.005 483.629 378.256 481.296 380.759C478.964 383.261 475.816 384.851 472.417 385.243Z" fill="#8F8F8F" fill-opacity="0.4"/>
<circle cx="231.252" cy="370.686" r="47.1607" fill="black"/>
<circle cx="231.252" cy="370.686" r="46.9529" stroke="white" stroke-opacity="0.5" stroke-width="0.415606"/>
<g filter="url(#filter7_f_74_17)">
<circle cx="231.252" cy="370.686" r="42.9994" fill="black"/>
</g>
<path d="M243.32 369.125C242.284 369.125 241.281 369.494 240.491 370.164C239.7 370.835 239.174 371.765 239.005 372.788L231.841 371.764C231.39 371.7 230.979 371.474 230.683 371.128L224.531 363.953C225.569 363.654 226.46 362.981 227.031 362.065C227.603 361.148 227.815 360.052 227.628 358.989C227.44 357.925 226.865 356.968 226.014 356.303C225.163 355.637 224.096 355.31 223.018 355.385C221.941 355.459 220.929 355.929 220.177 356.705C219.425 357.481 218.987 358.508 218.947 359.587C218.907 360.666 219.268 361.723 219.96 362.552C220.652 363.382 221.626 363.926 222.695 364.08V377.92C221.601 378.078 220.606 378.645 219.913 379.507C219.219 380.368 218.877 381.461 218.957 382.564C219.036 383.667 219.53 384.699 220.34 385.453C221.149 386.206 222.214 386.625 223.32 386.625C224.427 386.625 225.492 386.206 226.301 385.453C227.111 384.699 227.605 383.667 227.684 382.564C227.763 381.461 227.422 380.368 226.728 379.507C226.034 378.645 225.04 378.078 223.945 377.92V365.189L229.727 371.938C230.221 372.513 230.907 372.89 231.658 372.997L238.975 374.042C239.079 374.878 239.423 375.665 239.964 376.311C240.505 376.956 241.22 377.431 242.025 377.68C242.829 377.929 243.688 377.94 244.499 377.712C245.309 377.485 246.037 377.028 246.595 376.397C247.152 375.766 247.516 374.988 247.642 374.155C247.768 373.323 247.651 372.472 247.306 371.704C246.96 370.936 246.4 370.284 245.693 369.827C244.986 369.37 244.162 369.126 243.32 369.125ZM220.195 359.75C220.195 359.132 220.379 358.528 220.722 358.014C221.065 357.5 221.554 357.099 222.125 356.863C222.696 356.626 223.324 356.564 223.93 356.685C224.536 356.806 225.093 357.103 225.53 357.54C225.967 357.977 226.265 358.534 226.385 359.14C226.506 359.747 226.444 360.375 226.208 360.946C225.971 361.517 225.571 362.005 225.057 362.348C224.543 362.692 223.939 362.875 223.32 362.875C222.492 362.875 221.697 362.546 221.111 361.96C220.525 361.374 220.195 360.579 220.195 359.75ZM226.445 382.25C226.445 382.868 226.262 383.472 225.919 383.986C225.575 384.5 225.087 384.901 224.516 385.137C223.945 385.374 223.317 385.436 222.711 385.315C222.105 385.194 221.548 384.897 221.111 384.46C220.674 384.023 220.376 383.466 220.256 382.86C220.135 382.253 220.197 381.625 220.433 381.054C220.67 380.483 221.07 379.995 221.584 379.652C222.098 379.308 222.702 379.125 223.32 379.125C224.149 379.125 224.944 379.454 225.53 380.04C226.116 380.626 226.445 381.421 226.445 382.25ZM243.32 376.625C242.702 376.625 242.098 376.442 241.584 376.098C241.07 375.755 240.67 375.267 240.433 374.696C240.197 374.125 240.135 373.497 240.256 372.89C240.376 372.284 240.674 371.727 241.111 371.29C241.548 370.853 242.105 370.556 242.711 370.435C243.317 370.314 243.945 370.376 244.516 370.613C245.087 370.849 245.575 371.25 245.919 371.764C246.262 372.278 246.445 372.882 246.445 373.5C246.445 373.91 246.365 374.317 246.208 374.696C246.051 375.075 245.82 375.42 245.53 375.71C245.24 376 244.895 376.23 244.516 376.387C244.137 376.544 243.731 376.625 243.32 376.625Z" fill="#8F8F8F" fill-opacity="0.4"/>
<circle cx="231.252" cy="149.394" r="47.1607" fill="black"/>
<circle cx="231.252" cy="149.394" r="46.9529" stroke="white" stroke-opacity="0.5" stroke-width="0.415606"/>
<g filter="url(#filter8_f_74_17)">
<circle cx="231.252" cy="149.394" r="42.9994" fill="black"/>
</g>
<path d="M247.683 159.992L245.455 141.242C245.401 140.784 245.179 140.362 244.833 140.056C244.488 139.751 244.041 139.584 243.58 139.587H237.695V138.962C237.695 137.139 236.971 135.39 235.682 134.101C234.393 132.812 232.644 132.087 230.82 132.087C228.997 132.087 227.248 132.812 225.959 134.101C224.67 135.39 223.945 137.139 223.945 138.962V139.587H218.06C217.598 139.584 217.152 139.751 216.806 140.056C216.46 140.362 216.239 140.784 216.185 141.242L213.956 159.992C213.926 160.254 213.951 160.519 214.029 160.771C214.108 161.023 214.239 161.255 214.414 161.453C214.592 161.653 214.811 161.813 215.055 161.923C215.3 162.032 215.565 162.088 215.833 162.087H245.808C246.075 162.088 246.34 162.031 246.584 161.922C246.828 161.813 247.046 161.653 247.224 161.453C247.399 161.255 247.53 161.023 247.609 160.771C247.688 160.52 247.714 160.254 247.683 159.992ZM225.195 138.962C225.195 137.47 225.788 136.04 226.843 134.985C227.898 133.93 229.329 133.337 230.82 133.337C232.312 133.337 233.743 133.93 234.798 134.985C235.853 136.04 236.445 137.47 236.445 138.962V139.587H225.195V138.962ZM246.289 160.623C246.229 160.691 246.155 160.745 246.072 160.782C245.989 160.819 245.899 160.838 245.808 160.837H215.833C215.742 160.838 215.652 160.819 215.569 160.782C215.486 160.745 215.412 160.691 215.352 160.623C215.293 160.559 215.248 160.482 215.221 160.399C215.194 160.315 215.185 160.227 215.195 160.14L217.422 141.39C217.44 141.237 217.513 141.096 217.629 140.994C217.744 140.892 217.893 140.836 218.047 140.837H223.945V145.212C223.945 145.378 224.011 145.537 224.129 145.654C224.246 145.771 224.405 145.837 224.57 145.837C224.736 145.837 224.895 145.771 225.012 145.654C225.13 145.537 225.195 145.378 225.195 145.212V140.837H236.445V145.212C236.445 145.378 236.511 145.537 236.629 145.654C236.746 145.771 236.905 145.837 237.07 145.837C237.236 145.837 237.395 145.771 237.512 145.654C237.63 145.537 237.695 145.378 237.695 145.212V140.837H243.581C243.737 140.834 243.888 140.889 244.005 140.992C244.122 141.094 244.196 141.236 244.214 141.39L246.441 160.14C246.452 160.227 246.444 160.315 246.417 160.398C246.391 160.482 246.348 160.558 246.289 160.623Z" fill="#8F8F8F" fill-opacity="0.4"/>
<circle cx="175.779" cy="258.226" r="47.1607" fill="black"/>
<circle cx="175.779" cy="258.226" r="46.9529" stroke="white" stroke-opacity="0.5" stroke-width="0.415606"/>
<g filter="url(#filter9_f_74_17)">
<circle cx="175.779" cy="258.226" r="42.9994" fill="black"/>
</g>
<path d="M186.869 245.952C185.42 244.49 183.697 243.329 181.799 242.536C179.9 241.742 177.864 241.331 175.806 241.327C173.749 241.322 171.71 241.724 169.808 242.509C167.907 243.295 166.179 244.448 164.724 245.903C163.269 247.358 162.115 249.086 161.33 250.988C160.545 252.89 160.143 254.928 160.147 256.986C160.152 259.043 160.562 261.08 161.356 262.978C162.15 264.877 163.311 266.6 164.772 268.048C166.221 269.51 167.944 270.671 169.842 271.464C171.74 272.258 173.777 272.669 175.835 272.673C177.892 272.678 179.931 272.276 181.832 271.491C183.734 270.705 185.462 269.552 186.917 268.097C188.372 266.642 189.526 264.914 190.311 263.012C191.096 261.11 191.498 259.072 191.494 257.014C191.489 254.957 191.078 252.92 190.285 251.022C189.491 249.123 188.33 247.4 186.869 245.952ZM172.181 257.625H179.46L182.16 263.477C181.669 263.116 181.109 262.863 180.515 262.731C179.92 262.6 179.305 262.594 178.709 262.714C178.112 262.834 177.547 263.077 177.05 263.427C176.553 263.778 176.134 264.228 175.82 264.75C175.507 264.228 175.088 263.778 174.591 263.427C174.094 263.077 173.529 262.834 172.932 262.714C172.335 262.594 171.72 262.6 171.126 262.731C170.532 262.863 169.972 263.116 169.481 263.477L172.181 257.625ZM172.76 256.375L175.82 249.742L178.881 256.375H172.76ZM176.445 267C176.445 266.171 176.775 265.376 177.361 264.79C177.947 264.204 178.742 263.875 179.57 263.875C180.399 263.875 181.194 264.204 181.78 264.79C182.366 265.376 182.695 266.171 182.695 267V269.63C180.773 270.678 178.634 271.27 176.445 271.359V267ZM168.945 267C168.945 266.171 169.275 265.376 169.861 264.79C170.447 264.204 171.242 263.875 172.07 263.875C172.899 263.875 173.694 264.204 174.28 264.79C174.866 265.376 175.195 266.171 175.195 267V271.359C173.007 271.27 170.868 270.678 168.945 269.63V267ZM185.985 267.164C185.358 267.791 184.676 268.358 183.945 268.859V264.5C183.945 264.409 183.925 264.32 183.888 264.238L176.388 247.988C176.338 247.879 176.258 247.788 176.157 247.723C176.057 247.659 175.94 247.625 175.82 247.625C175.701 247.625 175.584 247.659 175.484 247.723C175.383 247.788 175.303 247.879 175.253 247.988L167.753 264.238C167.716 264.32 167.696 264.409 167.695 264.5V268.859C166.968 268.358 166.288 267.79 165.664 267.164C163.654 265.154 162.284 262.592 161.73 259.804C161.175 257.015 161.459 254.125 162.547 251.498C163.635 248.871 165.478 246.626 167.842 245.047C170.206 243.467 172.985 242.624 175.828 242.624C178.671 242.624 181.451 243.467 183.815 245.047C186.179 246.626 188.021 248.871 189.109 251.498C190.197 254.125 190.482 257.015 189.927 259.804C189.372 262.592 188.003 265.154 185.992 267.164H185.985Z" fill="#8F8F8F" fill-opacity="0.4"/>
<circle cx="529.854" cy="258.226" r="47.1607" fill="black"/>
<circle cx="529.854" cy="258.226" r="46.9529" stroke="white" stroke-opacity="0.5" stroke-width="0.415606"/>
<g filter="url(#filter10_f_74_17)">
<circle cx="529.854" cy="258.226" r="42.9994" fill="black"/>
</g>
<path d="M544.195 243.25V248.875C544.195 249.041 544.13 249.2 544.012 249.317C543.895 249.434 543.736 249.5 543.57 249.5C543.405 249.5 543.246 249.434 543.129 249.317C543.011 249.2 542.945 249.041 542.945 248.875V243.875H537.945C537.78 243.875 537.621 243.809 537.504 243.692C537.386 243.575 537.32 243.416 537.32 243.25C537.32 243.084 537.386 242.925 537.504 242.808C537.621 242.691 537.78 242.625 537.945 242.625H543.57C543.736 242.625 543.895 242.691 544.012 242.808C544.13 242.925 544.195 243.084 544.195 243.25ZM543.57 264.5C543.405 264.5 543.246 264.566 543.129 264.683C543.011 264.8 542.945 264.959 542.945 265.125V270.125H537.945C537.78 270.125 537.621 270.191 537.504 270.308C537.386 270.425 537.32 270.584 537.32 270.75C537.32 270.916 537.386 271.075 537.504 271.192C537.621 271.309 537.78 271.375 537.945 271.375H543.57C543.736 271.375 543.895 271.309 544.012 271.192C544.13 271.075 544.195 270.916 544.195 270.75V265.125C544.195 264.959 544.13 264.8 544.012 264.683C543.895 264.566 543.736 264.5 543.57 264.5ZM521.695 270.125H516.695V265.125C516.695 264.959 516.63 264.8 516.512 264.683C516.395 264.566 516.236 264.5 516.07 264.5C515.905 264.5 515.746 264.566 515.629 264.683C515.511 264.8 515.445 264.959 515.445 265.125V270.75C515.445 270.916 515.511 271.075 515.629 271.192C515.746 271.309 515.905 271.375 516.07 271.375H521.695C521.861 271.375 522.02 271.309 522.137 271.192C522.255 271.075 522.32 270.916 522.32 270.75C522.32 270.584 522.255 270.425 522.137 270.308C522.02 270.191 521.861 270.125 521.695 270.125ZM516.07 249.5C516.236 249.5 516.395 249.434 516.512 249.317C516.63 249.2 516.695 249.041 516.695 248.875V243.875H521.695C521.861 243.875 522.02 243.809 522.137 243.692C522.255 243.575 522.32 243.416 522.32 243.25C522.32 243.084 522.255 242.925 522.137 242.808C522.02 242.691 521.861 242.625 521.695 242.625H516.07C515.905 242.625 515.746 242.691 515.629 242.808C515.511 242.925 515.445 243.084 515.445 243.25V248.875C515.445 249.041 515.511 249.2 515.629 249.317C515.746 249.434 515.905 249.5 516.07 249.5ZM537.32 263.875C537.223 263.875 537.128 263.852 537.041 263.809C536.954 263.766 536.879 263.703 536.82 263.625C536.005 262.538 534.949 261.656 533.734 261.049C532.519 260.441 531.179 260.125 529.82 260.125C528.462 260.125 527.122 260.441 525.907 261.049C524.692 261.656 523.636 262.538 522.82 263.625C522.721 263.758 522.573 263.845 522.409 263.869C522.245 263.892 522.078 263.849 521.945 263.75C521.813 263.651 521.725 263.502 521.702 263.338C521.678 263.174 521.721 263.008 521.82 262.875C523.089 261.174 524.868 259.923 526.899 259.305C525.85 258.667 525.038 257.704 524.588 256.562C524.137 255.421 524.073 254.163 524.404 252.981C524.735 251.799 525.444 250.758 526.421 250.016C527.399 249.275 528.593 248.873 529.82 248.873C531.048 248.873 532.242 249.275 533.219 250.016C534.197 250.758 534.906 251.799 535.237 252.981C535.568 254.163 535.503 255.421 535.053 256.562C534.603 257.704 533.791 258.667 532.742 259.305C534.773 259.923 536.552 261.174 537.82 262.875C537.89 262.968 537.933 263.078 537.943 263.194C537.953 263.309 537.931 263.426 537.879 263.53C537.828 263.633 537.748 263.721 537.649 263.782C537.55 263.843 537.437 263.875 537.32 263.875ZM529.82 258.875C530.686 258.875 531.532 258.618 532.251 258.138C532.971 257.657 533.531 256.974 533.862 256.174C534.194 255.375 534.28 254.495 534.111 253.646C533.943 252.798 533.526 252.018 532.914 251.406C532.302 250.795 531.523 250.378 530.674 250.209C529.825 250.04 528.946 250.127 528.146 250.458C527.347 250.789 526.664 251.35 526.183 252.069C525.702 252.789 525.445 253.635 525.445 254.5C525.445 255.66 525.906 256.773 526.727 257.594C527.547 258.414 528.66 258.875 529.82 258.875Z" fill="#8F8F8F" fill-opacity="0.4"/>
<g filter="url(#filter11_n_74_17)">
<path d="M353.046 187.961V167.18C353.046 155.704 362.349 146.4 373.826 146.4H423.699" stroke="white" stroke-opacity="0.5"/>
</g>
<g filter="url(#filter12_n_74_17)">
<path d="M353.046 187.961V167.18C353.046 155.704 362.349 146.4 373.826 146.4H375.904" stroke="url(#paint1_linear_74_17)" stroke-opacity="0.75"/>
</g>
<g filter="url(#filter13_n_74_17)">
<path d="M421.621 258.613H483.961" stroke="white" stroke-opacity="0.5"/>
</g>
<g filter="url(#filter14_n_74_17)">
<path d="M421.621 258.613H471.493" stroke="url(#paint2_linear_74_17)" stroke-opacity="0.75"/>
</g>
<g filter="url(#filter15_n_74_17)">
<path d="M222.13 258.613H280.315" stroke="white" stroke-opacity="0.5"/>
</g>
<g filter="url(#filter16_n_74_17)">
<path d="M232.52 258.613H280.315" stroke="url(#paint3_linear_74_17)" stroke-opacity="0.75"/>
</g>
<g filter="url(#filter17_n_74_17)">
<path d="M353.046 329.266V350.047C353.046 361.523 343.742 370.827 332.265 370.827H278.237" stroke="white" stroke-opacity="0.5"/>
</g>
<g filter="url(#filter18_n_74_17)">
<path d="M353.046 329.266V350.047C353.046 361.523 343.742 370.827 332.265 370.827H292.783" stroke="url(#paint4_linear_74_17)" stroke-opacity="0.75"/>
</g>
<rect x="348.637" y="183.782" width="8" height="8" rx="0.415606" fill="#0080FF" fill-opacity="0.75"/>
<rect width="8" height="8" rx="0.415606" transform="matrix(1 0 0 -1 348.637 333.782)" fill="#00FF09" fill-opacity="0.75"/>
<rect width="8" height="8" rx="0.415606" transform="matrix(1 0 0 -1 419.637 262.782)" fill="#FFA600" fill-opacity="0.75"/>
<rect width="4.15606" height="4.15606" rx="0.415606" transform="matrix(1 0 0 -1 220.052 260.691)" fill="#D9D9D9" fill-opacity="0.75"/>
<rect width="4.15606" height="4.15606" rx="0.415606" transform="matrix(1 0 0 -1 481.883 260.691)" fill="#D9D9D9" fill-opacity="0.75"/>
<rect width="8" height="8" rx="0.415606" transform="matrix(1 0 0 -1 276.637 262.782)" fill="#FF0000" fill-opacity="0.75"/>
<rect x="276.159" y="144.322" width="4.15606" height="4.15606" rx="0.415606" fill="#D9D9D9" fill-opacity="0.75"/>
<rect width="4.15606" height="4.15606" rx="0.415606" transform="matrix(1 0 0 -1 276.159 372.905)" fill="#D9D9D9" fill-opacity="0.75"/>
<rect x="421.621" y="144.322" width="4.15606" height="4.15606" rx="0.415606" fill="#D9D9D9" fill-opacity="0.75"/>
<rect width="4.15606" height="4.15606" rx="0.415606" transform="matrix(1 0 0 -1 421.621 372.905)" fill="#D9D9D9" fill-opacity="0.75"/>
</g>
<defs>
<filter id="filter0_n_74_17" x="0.816772" y="0" width="704" height="516.564" filterUnits="userSpaceOnUse" color-interpolation-filters="sRGB">
<feFlood flood-opacity="0" result="BackgroundImageFix"/>
<feBlend mode="normal" in="SourceGraphic" in2="BackgroundImageFix" result="shape"/>
<feTurbulence type="fractalNoise" baseFrequency="1 1" stitchTiles="stitch" numOctaves="3" result="noise" seed="9858" />
<feColorMatrix in="noise" type="luminanceToAlpha" result="alphaNoise" />
<feComponentTransfer in="alphaNoise" result="coloredNoise1">
<feFuncA type="discrete" tableValues="1 1 1 1 1 1 1 1 1 1 1 1 1 1 1 1 1 1 1 1 1 1 1 1 1 1 1 1 1 1 1 1 1 1 1 1 1 1 1 1 1 1 1 1 1 1 1 1 1 1 1 0 0 0 0 0 0 0 0 0 0 0 0 0 0 0 0 0 0 0 0 0 0 0 0 0 0 0 0 0 0 0 0 0 0 0 0 0 0 0 0 0 0 0 0 0 0 0 0 0 "/>
</feComponentTransfer>
<feComposite operator="in" in2="shape" in="coloredNoise1" result="noise1Clipped" />
<feFlood flood-color="rgba(0, 0, 0, 0.25)" result="color1Flood" />
<feComposite operator="in" in2="noise1Clipped" in="color1Flood" result="color1" />
<feMerge result="effect1_noise_74_17">
<feMergeNode in="shape" />
<feMergeNode in="color1" />
</feMerge>
</filter>
<filter id="filter1_n_74_17" x="280.315" y="187.961" width="141.306" height="141.306" filterUnits="userSpaceOnUse" color-interpolation-filters="sRGB">
<feFlood flood-opacity="0" result="BackgroundImageFix"/>
<feBlend mode="normal" in="SourceGraphic" in2="BackgroundImageFix" result="shape"/>
<feTurbulence type="fractalNoise" baseFrequency="1 1" stitchTiles="stitch" numOctaves="3" result="noise" seed="6747" />
<feColorMatrix in="noise" type="luminanceToAlpha" result="alphaNoise" />
<feComponentTransfer in="alphaNoise" result="coloredNoise1">
<feFuncA type="discrete" tableValues="1 1 1 1 1 1 1 1 1 1 1 1 1 1 1 1 1 1 1 1 1 1 1 1 1 1 1 1 1 1 1 1 1 1 1 1 1 1 1 1 1 1 1 1 1 1 1 1 1 1 1 0 0 0 0 0 0 0 0 0 0 0 0 0 0 0 0 0 0 0 0 0 0 0 0 0 0 0 0 0 0 0 0 0 0 0 0 0 0 0 0 0 0 0 0 0 0 0 0 0 "/>
</feComponentTransfer>
<feComposite operator="in" in2="shape" in="coloredNoise1" result="noise1Clipped" />
<feFlood flood-color="rgba(0, 0, 0, 0.25)" result="color1Flood" />
<feComposite operator="in" in2="noise1Clipped" in="color1Flood" result="color1" />
<feMerge result="effect1_noise_74_17">
<feMergeNode in="shape" />
<feMergeNode in="color1" />
</feMerge>
</filter>
<filter id="filter2_f_74_17" x="265.768" y="173.414" width="170.398" height="170.398" filterUnits="userSpaceOnUse" color-interpolation-filters="sRGB">
<feFlood flood-opacity="0" result="BackgroundImageFix"/>
<feBlend mode="normal" in="SourceGraphic" in2="BackgroundImageFix" result="shape"/>
<feGaussianBlur stdDeviation="10.3901" result="effect1_foregroundBlur_74_17"/>
</filter>
<filter id="filter3_f_74_17" x="265.768" y="173.414" width="170.398" height="170.398" filterUnits="userSpaceOnUse" color-interpolation-filters="sRGB">
<feFlood flood-opacity="0" result="BackgroundImageFix"/>
<feBlend mode="normal" in="SourceGraphic" in2="BackgroundImageFix" result="shape"/>
<feGaussianBlur stdDeviation="10.3901" result="effect1_foregroundBlur_74_17"/>
</filter>
<filter id="filter4_f_74_17" x="265.768" y="173.414" width="170.398" height="170.398" filterUnits="userSpaceOnUse" color-interpolation-filters="sRGB">
<feFlood flood-opacity="0" result="BackgroundImageFix"/>
<feBlend mode="normal" in="SourceGraphic" in2="BackgroundImageFix" result="shape"/>
<feGaussianBlur stdDeviation="10.3901" result="effect1_foregroundBlur_74_17"/>
</filter>
<filter id="filter5_f_74_17" x="406.904" y="81.9863" width="127.559" height="127.559" filterUnits="userSpaceOnUse" color-interpolation-filters="sRGB">
<feFlood flood-opacity="0" result="BackgroundImageFix"/>
<feBlend mode="normal" in="SourceGraphic" in2="BackgroundImageFix" result="shape"/>
<feGaussianBlur stdDeviation="10.3901" result="effect1_foregroundBlur_74_17"/>
</filter>
<filter id="filter6_f_74_17" x="406.904" y="306.906" width="127.559" height="127.559" filterUnits="userSpaceOnUse" color-interpolation-filters="sRGB">
<feFlood flood-opacity="0" result="BackgroundImageFix"/>
<feBlend mode="normal" in="SourceGraphic" in2="BackgroundImageFix" result="shape"/>
<feGaussianBlur stdDeviation="10.3901" result="effect1_foregroundBlur_74_17"/>
</filter>
<filter id="filter7_f_74_17" x="167.472" y="306.906" width="127.559" height="127.559" filterUnits="userSpaceOnUse" color-interpolation-filters="sRGB">
<feFlood flood-opacity="0" result="BackgroundImageFix"/>
<feBlend mode="normal" in="SourceGraphic" in2="BackgroundImageFix" result="shape"/>
<feGaussianBlur stdDeviation="10.3901" result="effect1_foregroundBlur_74_17"/>
</filter>
<filter id="filter8_f_74_17" x="167.472" y="85.614" width="127.559" height="127.559" filterUnits="userSpaceOnUse" color-interpolation-filters="sRGB">
<feFlood flood-opacity="0" result="BackgroundImageFix"/>
<feBlend mode="normal" in="SourceGraphic" in2="BackgroundImageFix" result="shape"/>
<feGaussianBlur stdDeviation="10.3901" result="effect1_foregroundBlur_74_17"/>
</filter>
<filter id="filter9_f_74_17" x="112" y="194.446" width="127.559" height="127.559" filterUnits="userSpaceOnUse" color-interpolation-filters="sRGB">
<feFlood flood-opacity="0" result="BackgroundImageFix"/>
<feBlend mode="normal" in="SourceGraphic" in2="BackgroundImageFix" result="shape"/>
<feGaussianBlur stdDeviation="10.3901" result="effect1_foregroundBlur_74_17"/>
</filter>
<filter id="filter10_f_74_17" x="466.074" y="194.446" width="127.559" height="127.559" filterUnits="userSpaceOnUse" color-interpolation-filters="sRGB">
<feFlood flood-opacity="0" result="BackgroundImageFix"/>
<feBlend mode="normal" in="SourceGraphic" in2="BackgroundImageFix" result="shape"/>
<feGaussianBlur stdDeviation="10.3901" result="effect1_foregroundBlur_74_17"/>
</filter>
<filter id="filter11_n_74_17" x="352.546" y="145.9" width="71.153" height="42.0605" filterUnits="userSpaceOnUse" color-interpolation-filters="sRGB">
<feFlood flood-opacity="0" result="BackgroundImageFix"/>
<feBlend mode="normal" in="SourceGraphic" in2="BackgroundImageFix" result="shape"/>
<feTurbulence type="fractalNoise" baseFrequency="0.5 0.5" stitchTiles="stitch" numOctaves="3" result="noise" seed="1899" />
<feColorMatrix in="noise" type="luminanceToAlpha" result="alphaNoise" />
<feComponentTransfer in="alphaNoise" result="coloredNoise1">
<feFuncA type="discrete" tableValues="1 1 1 1 1 1 1 1 1 1 1 1 1 1 1 1 1 1 1 1 1 1 1 1 1 1 1 1 1 1 1 1 1 1 1 1 1 1 1 1 1 1 1 1 1 1 1 1 1 1 1 0 0 0 0 0 0 0 0 0 0 0 0 0 0 0 0 0 0 0 0 0 0 0 0 0 0 0 0 0 0 0 0 0 0 0 0 0 0 0 0 0 0 0 0 0 0 0 0 0 "/>
</feComponentTransfer>
<feComposite operator="in" in2="shape" in="coloredNoise1" result="noise1Clipped" />
<feFlood flood-color="rgba(0, 0, 0, 0.25)" result="color1Flood" />
<feComposite operator="in" in2="noise1Clipped" in="color1Flood" result="color1" />
<feMerge result="effect1_noise_74_17">
<feMergeNode in="shape" />
<feMergeNode in="color1" />
</feMerge>
</filter>
<filter id="filter12_n_74_17" x="352.546" y="145.9" width="23.3583" height="42.0605" filterUnits="userSpaceOnUse" color-interpolation-filters="sRGB">
<feFlood flood-opacity="0" result="BackgroundImageFix"/>
<feBlend mode="normal" in="SourceGraphic" in2="BackgroundImageFix" result="shape"/>
<feTurbulence type="fractalNoise" baseFrequency="0.5 0.5" stitchTiles="stitch" numOctaves="3" result="noise" seed="1899" />
<feColorMatrix in="noise" type="luminanceToAlpha" result="alphaNoise" />
<feComponentTransfer in="alphaNoise" result="coloredNoise1">
<feFuncA type="discrete" tableValues="1 1 1 1 1 1 1 1 1 1 1 1 1 1 1 1 1 1 1 1 1 1 1 1 1 1 1 1 1 1 1 1 1 1 1 1 1 1 1 1 1 1 1 1 1 1 1 1 1 1 1 0 0 0 0 0 0 0 0 0 0 0 0 0 0 0 0 0 0 0 0 0 0 0 0 0 0 0 0 0 0 0 0 0 0 0 0 0 0 0 0 0 0 0 0 0 0 0 0 0 "/>
</feComponentTransfer>
<feComposite operator="in" in2="shape" in="coloredNoise1" result="noise1Clipped" />
<feFlood flood-color="rgba(0, 0, 0, 0.25)" result="color1Flood" />
<feComposite operator="in" in2="noise1Clipped" in="color1Flood" result="color1" />
<feMerge result="effect1_noise_74_17">
<feMergeNode in="shape" />
<feMergeNode in="color1" />
</feMerge>
</filter>
<filter id="filter13_n_74_17" x="421.621" y="258.113" width="62.3408" height="1" filterUnits="userSpaceOnUse" color-interpolation-filters="sRGB">
<feFlood flood-opacity="0" result="BackgroundImageFix"/>
<feBlend mode="normal" in="SourceGraphic" in2="BackgroundImageFix" result="shape"/>
<feTurbulence type="fractalNoise" baseFrequency="0.5 0.5" stitchTiles="stitch" numOctaves="3" result="noise" seed="1899" />
<feColorMatrix in="noise" type="luminanceToAlpha" result="alphaNoise" />
<feComponentTransfer in="alphaNoise" result="coloredNoise1">
<feFuncA type="discrete" tableValues="1 1 1 1 1 1 1 1 1 1 1 1 1 1 1 1 1 1 1 1 1 1 1 1 1 1 1 1 1 1 1 1 1 1 1 1 1 1 1 1 1 1 1 1 1 1 1 1 1 1 1 0 0 0 0 0 0 0 0 0 0 0 0 0 0 0 0 0 0 0 0 0 0 0 0 0 0 0 0 0 0 0 0 0 0 0 0 0 0 0 0 0 0 0 0 0 0 0 0 0 "/>
</feComponentTransfer>
<feComposite operator="in" in2="shape" in="coloredNoise1" result="noise1Clipped" />
<feFlood flood-color="rgba(0, 0, 0, 0.25)" result="color1Flood" />
<feComposite operator="in" in2="noise1Clipped" in="color1Flood" result="color1" />
<feMerge result="effect1_noise_74_17">
<feMergeNode in="shape" />
<feMergeNode in="color1" />
</feMerge>
</filter>
<filter id="filter14_n_74_17" x="421.621" y="258.113" width="49.8727" height="1" filterUnits="userSpaceOnUse" color-interpolation-filters="sRGB">
<feFlood flood-opacity="0" result="BackgroundImageFix"/>
<feBlend mode="normal" in="SourceGraphic" in2="BackgroundImageFix" result="shape"/>
<feTurbulence type="fractalNoise" baseFrequency="0.5 0.5" stitchTiles="stitch" numOctaves="3" result="noise" seed="1899" />
<feColorMatrix in="noise" type="luminanceToAlpha" result="alphaNoise" />
<feComponentTransfer in="alphaNoise" result="coloredNoise1">
<feFuncA type="discrete" tableValues="1 1 1 1 1 1 1 1 1 1 1 1 1 1 1 1 1 1 1 1 1 1 1 1 1 1 1 1 1 1 1 1 1 1 1 1 1 1 1 1 1 1 1 1 1 1 1 1 1 1 1 0 0 0 0 0 0 0 0 0 0 0 0 0 0 0 0 0 0 0 0 0 0 0 0 0 0 0 0 0 0 0 0 0 0 0 0 0 0 0 0 0 0 0 0 0 0 0 0 0 "/>
</feComponentTransfer>
<feComposite operator="in" in2="shape" in="coloredNoise1" result="noise1Clipped" />
<feFlood flood-color="rgba(0, 0, 0, 0.25)" result="color1Flood" />
<feComposite operator="in" in2="noise1Clipped" in="color1Flood" result="color1" />
<feMerge result="effect1_noise_74_17">
<feMergeNode in="shape" />
<feMergeNode in="color1" />
</feMerge>
</filter>
<filter id="filter15_n_74_17" x="222.13" y="258.113" width="58.1848" height="1" filterUnits="userSpaceOnUse" color-interpolation-filters="sRGB">
<feFlood flood-opacity="0" result="BackgroundImageFix"/>
<feBlend mode="normal" in="SourceGraphic" in2="BackgroundImageFix" result="shape"/>
<feTurbulence type="fractalNoise" baseFrequency="0.5 0.5" stitchTiles="stitch" numOctaves="3" result="noise" seed="1899" />
<feColorMatrix in="noise" type="luminanceToAlpha" result="alphaNoise" />
<feComponentTransfer in="alphaNoise" result="coloredNoise1">
<feFuncA type="discrete" tableValues="1 1 1 1 1 1 1 1 1 1 1 1 1 1 1 1 1 1 1 1 1 1 1 1 1 1 1 1 1 1 1 1 1 1 1 1 1 1 1 1 1 1 1 1 1 1 1 1 1 1 1 0 0 0 0 0 0 0 0 0 0 0 0 0 0 0 0 0 0 0 0 0 0 0 0 0 0 0 0 0 0 0 0 0 0 0 0 0 0 0 0 0 0 0 0 0 0 0 0 0 "/>
</feComponentTransfer>
<feComposite operator="in" in2="shape" in="coloredNoise1" result="noise1Clipped" />
<feFlood flood-color="rgba(0, 0, 0, 0.25)" result="color1Flood" />
<feComposite operator="in" in2="noise1Clipped" in="color1Flood" result="color1" />
<feMerge result="effect1_noise_74_17">
<feMergeNode in="shape" />
<feMergeNode in="color1" />
</feMerge>
</filter>
<filter id="filter16_n_74_17" x="232.52" y="258.113" width="47.7946" height="1" filterUnits="userSpaceOnUse" color-interpolation-filters="sRGB">
<feFlood flood-opacity="0" result="BackgroundImageFix"/>
<feBlend mode="normal" in="SourceGraphic" in2="BackgroundImageFix" result="shape"/>
<feTurbulence type="fractalNoise" baseFrequency="0.5 0.5" stitchTiles="stitch" numOctaves="3" result="noise" seed="1899" />
<feColorMatrix in="noise" type="luminanceToAlpha" result="alphaNoise" />
<feComponentTransfer in="alphaNoise" result="coloredNoise1">
<feFuncA type="discrete" tableValues="1 1 1 1 1 1 1 1 1 1 1 1 1 1 1 1 1 1 1 1 1 1 1 1 1 1 1 1 1 1 1 1 1 1 1 1 1 1 1 1 1 1 1 1 1 1 1 1 1 1 1 0 0 0 0 0 0 0 0 0 0 0 0 0 0 0 0 0 0 0 0 0 0 0 0 0 0 0 0 0 0 0 0 0 0 0 0 0 0 0 0 0 0 0 0 0 0 0 0 0 "/>
</feComponentTransfer>
<feComposite operator="in" in2="shape" in="coloredNoise1" result="noise1Clipped" />
<feFlood flood-color="rgba(0, 0, 0, 0.25)" result="color1Flood" />
<feComposite operator="in" in2="noise1Clipped" in="color1Flood" result="color1" />
<feMerge result="effect1_noise_74_17">
<feMergeNode in="shape" />
<feMergeNode in="color1" />
</feMerge>
</filter>
<filter id="filter17_n_74_17" x="278.237" y="329.266" width="75.309" height="42.0606" filterUnits="userSpaceOnUse" color-interpolation-filters="sRGB">
<feFlood flood-opacity="0" result="BackgroundImageFix"/>
<feBlend mode="normal" in="SourceGraphic" in2="BackgroundImageFix" result="shape"/>
<feTurbulence type="fractalNoise" baseFrequency="0.5 0.5" stitchTiles="stitch" numOctaves="3" result="noise" seed="1899" />
<feColorMatrix in="noise" type="luminanceToAlpha" result="alphaNoise" />
<feComponentTransfer in="alphaNoise" result="coloredNoise1">
<feFuncA type="discrete" tableValues="1 1 1 1 1 1 1 1 1 1 1 1 1 1 1 1 1 1 1 1 1 1 1 1 1 1 1 1 1 1 1 1 1 1 1 1 1 1 1 1 1 1 1 1 1 1 1 1 1 1 1 0 0 0 0 0 0 0 0 0 0 0 0 0 0 0 0 0 0 0 0 0 0 0 0 0 0 0 0 0 0 0 0 0 0 0 0 0 0 0 0 0 0 0 0 0 0 0 0 0 "/>
</feComponentTransfer>
<feComposite operator="in" in2="shape" in="coloredNoise1" result="noise1Clipped" />
<feFlood flood-color="rgba(0, 0, 0, 0.25)" result="color1Flood" />
<feComposite operator="in" in2="noise1Clipped" in="color1Flood" result="color1" />
<feMerge result="effect1_noise_74_17">
<feMergeNode in="shape" />
<feMergeNode in="color1" />
</feMerge>
</filter>
<filter id="filter18_n_74_17" x="292.783" y="329.266" width="60.7628" height="42.0606" filterUnits="userSpaceOnUse" color-interpolation-filters="sRGB">
<feFlood flood-opacity="0" result="BackgroundImageFix"/>
<feBlend mode="normal" in="SourceGraphic" in2="BackgroundImageFix" result="shape"/>
<feTurbulence type="fractalNoise" baseFrequency="0.5 0.5" stitchTiles="stitch" numOctaves="3" result="noise" seed="1899" />
<feColorMatrix in="noise" type="luminanceToAlpha" result="alphaNoise" />
<feComponentTransfer in="alphaNoise" result="coloredNoise1">
<feFuncA type="discrete" tableValues="1 1 1 1 1 1 1 1 1 1 1 1 1 1 1 1 1 1 1 1 1 1 1 1 1 1 1 1 1 1 1 1 1 1 1 1 1 1 1 1 1 1 1 1 1 1 1 1 1 1 1 0 0 0 0 0 0 0 0 0 0 0 0 0 0 0 0 0 0 0 0 0 0 0 0 0 0 0 0 0 0 0 0 0 0 0 0 0 0 0 0 0 0 0 0 0 0 0 0 0 "/>
</feComponentTransfer>
<feComposite operator="in" in2="shape" in="coloredNoise1" result="noise1Clipped" />
<feFlood flood-color="rgba(0, 0, 0, 0.25)" result="color1Flood" />
<feComposite operator="in" in2="noise1Clipped" in="color1Flood" result="color1" />
<feMerge result="effect1_noise_74_17">
<feMergeNode in="shape" />
<feMergeNode in="color1" />
</feMerge>
</filter>
<linearGradient id="paint0_linear_74_17" x1="350.968" y1="187.961" x2="350.968" y2="329.266" gradientUnits="userSpaceOnUse">
<stop stop-color="#0080FF"/>
<stop offset="0.37635" stop-color="#FF0000"/>
<stop offset="0.538462" stop-color="#FFA600"/>
<stop offset="1" stop-color="#00FF09"/>
</linearGradient>
<linearGradient id="paint1_linear_74_17" x1="371.748" y1="146.4" x2="352.007" y2="170.297" gradientUnits="userSpaceOnUse">
<stop stop-color="#0080FF"/>
<stop offset="1" stop-color="#01203E"/>
</linearGradient>
<linearGradient id="paint2_linear_74_17" x1="421.621" y1="259.113" x2="471.493" y2="259.113" gradientUnits="userSpaceOnUse">
<stop stop-color="#FFA600"/>
<stop offset="1" stop-color="#996300"/>
</linearGradient>
<linearGradient id="paint3_linear_74_17" x1="232.52" y1="259.113" x2="280.315" y2="259.113" gradientUnits="userSpaceOnUse">
<stop stop-color="#FF0000"/>
<stop offset="1" stop-color="#990000"/>
</linearGradient>
<linearGradient id="paint4_linear_74_17" x1="356.163" y1="337.579" x2="341.617" y2="366.671" gradientUnits="userSpaceOnUse">
<stop stop-color="#00FF09"/>
<stop offset="1" stop-color="#009905"/>
</linearGradient>
<clipPath id="clip0_74_17">
<rect width="66" height="66" fill="white" transform="translate(352.306 211.782) rotate(45)"/>
</clipPath>
</defs>
</svg>
