<svg width="600" height="250" viewBox="0 0 600 250" fill="none" xmlns="http://www.w3.org/2000/svg">
<g clip-path="url(#clip0_74_17)">
<path d="M223.36 39V34.8H225.892V35.124H223.684V36.588H225.532V36.912H223.684V38.676H225.892V39H223.36ZM226.553 37.038H228.473V37.362H226.553V37.038ZM231.425 38.295L231.713 38.451C231.577 38.641 231.404 38.793 231.194 38.907C230.986 39.021 230.76 39.078 230.516 39.078C230.24 39.078 229.988 39.007 229.76 38.865C229.534 38.723 229.353 38.533 229.217 38.295C229.083 38.055 229.016 37.79 229.016 37.5C229.016 37.28 229.055 37.075 229.133 36.885C229.211 36.693 229.318 36.525 229.454 36.381C229.592 36.235 229.752 36.121 229.934 36.039C230.116 35.957 230.31 35.916 230.516 35.916C230.76 35.916 230.986 35.973 231.194 36.087C231.404 36.201 231.577 36.354 231.713 36.546L231.425 36.699C231.311 36.551 231.173 36.438 231.011 36.36C230.849 36.28 230.684 36.24 230.516 36.24C230.296 36.24 230.097 36.298 229.919 36.414C229.741 36.528 229.6 36.681 229.496 36.873C229.392 37.063 229.34 37.272 229.34 37.5C229.34 37.73 229.393 37.94 229.499 38.13C229.605 38.32 229.747 38.472 229.925 38.586C230.103 38.698 230.3 38.754 230.516 38.754C230.698 38.754 230.869 38.711 231.029 38.625C231.189 38.539 231.321 38.429 231.425 38.295ZM233.551 39.078C233.275 39.078 233.023 39.007 232.795 38.865C232.569 38.723 232.388 38.533 232.252 38.295C232.118 38.055 232.051 37.79 232.051 37.5C232.051 37.28 232.09 37.075 232.168 36.885C232.246 36.693 232.353 36.525 232.489 36.381C232.627 36.235 232.787 36.121 232.969 36.039C233.151 35.957 233.345 35.916 233.551 35.916C233.827 35.916 234.078 35.987 234.304 36.129C234.532 36.271 234.713 36.462 234.847 36.702C234.983 36.942 235.051 37.208 235.051 37.5C235.051 37.718 235.012 37.922 234.934 38.112C234.856 38.302 234.748 38.47 234.61 38.616C234.474 38.76 234.315 38.873 234.133 38.955C233.953 39.037 233.759 39.078 233.551 39.078ZM233.551 38.754C233.773 38.754 233.972 38.696 234.148 38.58C234.326 38.464 234.467 38.311 234.571 38.121C234.675 37.931 234.727 37.724 234.727 37.5C234.727 37.274 234.675 37.065 234.571 36.873C234.467 36.681 234.326 36.528 234.148 36.414C233.97 36.298 233.771 36.24 233.551 36.24C233.329 36.24 233.129 36.298 232.951 36.414C232.773 36.53 232.632 36.684 232.528 36.876C232.426 37.066 232.375 37.274 232.375 37.5C232.375 37.734 232.428 37.946 232.534 38.136C232.642 38.324 232.785 38.474 232.963 38.586C233.141 38.698 233.337 38.754 233.551 38.754ZM235.571 39V36H235.895V36.459C236.005 36.293 236.148 36.161 236.324 36.063C236.5 35.965 236.694 35.916 236.906 35.916C237.138 35.916 237.349 35.974 237.539 36.09C237.731 36.204 237.88 36.356 237.986 36.546C238.092 36.356 238.24 36.204 238.43 36.09C238.62 35.974 238.831 35.916 239.063 35.916C239.291 35.916 239.499 35.972 239.687 36.084C239.875 36.194 240.024 36.343 240.134 36.531C240.246 36.719 240.302 36.927 240.302 37.155V39H239.978V37.215C239.978 37.041 239.936 36.881 239.852 36.735C239.768 36.587 239.655 36.468 239.513 36.378C239.371 36.288 239.213 36.243 239.039 36.243C238.867 36.243 238.709 36.285 238.565 36.369C238.423 36.451 238.31 36.565 238.226 36.711C238.142 36.857 238.1 37.025 238.1 37.215V39H237.776V37.215C237.776 37.025 237.733 36.857 237.647 36.711C237.563 36.565 237.45 36.451 237.308 36.369C237.166 36.285 237.008 36.243 236.834 36.243C236.662 36.243 236.505 36.288 236.363 36.378C236.221 36.468 236.107 36.587 236.021 36.735C235.937 36.881 235.895 37.041 235.895 37.215V39H235.571ZM240.903 39V36H241.227V36.459C241.337 36.293 241.48 36.161 241.656 36.063C241.832 35.965 242.026 35.916 242.238 35.916C242.47 35.916 242.681 35.974 242.871 36.09C243.063 36.204 243.212 36.356 243.318 36.546C243.424 36.356 243.572 36.204 243.762 36.09C243.952 35.974 244.163 35.916 244.395 35.916C244.623 35.916 244.831 35.972 245.019 36.084C245.207 36.194 245.356 36.343 245.466 36.531C245.578 36.719 245.634 36.927 245.634 37.155V39H245.31V37.215C245.31 37.041 245.268 36.881 245.184 36.735C245.1 36.587 244.987 36.468 244.845 36.378C244.703 36.288 244.545 36.243 244.371 36.243C244.199 36.243 244.041 36.285 243.897 36.369C243.755 36.451 243.642 36.565 243.558 36.711C243.474 36.857 243.432 37.025 243.432 37.215V39H243.108V37.215C243.108 37.025 243.065 36.857 242.979 36.711C242.895 36.565 242.782 36.451 242.64 36.369C242.498 36.285 242.34 36.243 242.166 36.243C241.994 36.243 241.837 36.288 241.695 36.378C241.553 36.468 241.439 36.587 241.353 36.735C241.269 36.881 241.227 37.041 241.227 37.215V39H240.903ZM247.496 39.078C247.22 39.078 246.968 39.007 246.74 38.865C246.514 38.723 246.333 38.533 246.197 38.295C246.063 38.055 245.996 37.79 245.996 37.5C245.996 37.28 246.035 37.075 246.113 36.885C246.191 36.693 246.298 36.525 246.434 36.381C246.572 36.235 246.732 36.121 246.914 36.039C247.096 35.957 247.29 35.916 247.496 35.916C247.714 35.916 247.915 35.959 248.099 36.045C248.285 36.129 248.445 36.248 248.579 36.402C248.713 36.556 248.816 36.738 248.888 36.948C248.96 37.156 248.993 37.384 248.987 37.632H246.335C246.357 37.846 246.421 38.038 246.527 38.208C246.635 38.376 246.773 38.509 246.941 38.607C247.109 38.703 247.294 38.752 247.496 38.754C247.718 38.754 247.918 38.696 248.096 38.58C248.274 38.462 248.417 38.301 248.525 38.097L248.852 38.172C248.732 38.438 248.551 38.656 248.309 38.826C248.067 38.994 247.796 39.078 247.496 39.078ZM246.326 37.356H248.66C248.648 37.15 248.588 36.961 248.48 36.789C248.374 36.615 248.235 36.476 248.063 36.372C247.891 36.268 247.702 36.216 247.496 36.216C247.29 36.216 247.102 36.267 246.932 36.369C246.762 36.471 246.623 36.609 246.515 36.783C246.409 36.955 246.346 37.146 246.326 37.356ZM249.51 39V36H249.834V36.459C249.942 36.293 250.085 36.161 250.263 36.063C250.441 35.965 250.635 35.916 250.845 35.916C250.963 35.916 251.076 35.931 251.184 35.961L251.049 36.279C250.963 36.255 250.879 36.243 250.797 36.243C250.621 36.243 250.46 36.286 250.314 36.372C250.168 36.458 250.051 36.574 249.963 36.72C249.877 36.866 249.834 37.028 249.834 37.206V39H249.51ZM253.638 38.295L253.926 38.451C253.79 38.641 253.617 38.793 253.407 38.907C253.199 39.021 252.973 39.078 252.729 39.078C252.453 39.078 252.201 39.007 251.973 38.865C251.747 38.723 251.566 38.533 251.43 38.295C251.296 38.055 251.229 37.79 251.229 37.5C251.229 37.28 251.268 37.075 251.346 36.885C251.424 36.693 251.531 36.525 251.667 36.381C251.805 36.235 251.965 36.121 252.147 36.039C252.329 35.957 252.523 35.916 252.729 35.916C252.973 35.916 253.199 35.973 253.407 36.087C253.617 36.201 253.79 36.354 253.926 36.546L253.638 36.699C253.524 36.551 253.386 36.438 253.224 36.36C253.062 36.28 252.897 36.24 252.729 36.24C252.509 36.24 252.31 36.298 252.132 36.414C251.954 36.528 251.813 36.681 251.709 36.873C251.605 37.063 251.553 37.272 251.553 37.5C251.553 37.73 251.606 37.94 251.712 38.13C251.818 38.32 251.96 38.472 252.138 38.586C252.316 38.698 252.513 38.754 252.729 38.754C252.911 38.754 253.082 38.711 253.242 38.625C253.402 38.539 253.534 38.429 253.638 38.295ZM255.764 39.078C255.488 39.078 255.236 39.007 255.008 38.865C254.782 38.723 254.601 38.533 254.465 38.295C254.331 38.055 254.264 37.79 254.264 37.5C254.264 37.28 254.303 37.075 254.381 36.885C254.459 36.693 254.566 36.525 254.702 36.381C254.84 36.235 255 36.121 255.182 36.039C255.364 35.957 255.558 35.916 255.764 35.916C255.982 35.916 256.183 35.959 256.367 36.045C256.553 36.129 256.713 36.248 256.847 36.402C256.981 36.556 257.084 36.738 257.156 36.948C257.228 37.156 257.261 37.384 257.255 37.632H254.603C254.625 37.846 254.689 38.038 254.795 38.208C254.903 38.376 255.041 38.509 255.209 38.607C255.377 38.703 255.562 38.752 255.764 38.754C255.986 38.754 256.186 38.696 256.364 38.58C256.542 38.462 256.685 38.301 256.793 38.097L257.12 38.172C257 38.438 256.819 38.656 256.577 38.826C256.335 38.994 256.064 39.078 255.764 39.078ZM254.594 37.356H256.928C256.916 37.15 256.856 36.961 256.748 36.789C256.642 36.615 256.503 36.476 256.331 36.372C256.159 36.268 255.97 36.216 255.764 36.216C255.558 36.216 255.37 36.267 255.2 36.369C255.03 36.471 254.891 36.609 254.783 36.783C254.677 36.955 254.614 37.146 254.594 37.356Z" fill="white" fill-opacity="0.6"/>
<path d="M342.45 39V34.8H342.774V39H342.45ZM346.159 37.155V39H345.835V37.206C345.835 37.028 345.792 36.866 345.706 36.72C345.62 36.574 345.504 36.458 345.358 36.372C345.212 36.286 345.05 36.243 344.872 36.243C344.696 36.243 344.535 36.286 344.389 36.372C344.243 36.458 344.126 36.574 344.038 36.72C343.952 36.866 343.909 37.028 343.909 37.206V39H343.585V36H343.909V36.459C344.017 36.293 344.16 36.161 344.338 36.063C344.516 35.965 344.71 35.916 344.92 35.916C345.15 35.916 345.358 35.972 345.544 36.084C345.732 36.194 345.881 36.343 345.991 36.531C346.103 36.719 346.159 36.927 346.159 37.155ZM347.699 39.057C347.533 39.055 347.37 39.026 347.21 38.97C347.052 38.912 346.914 38.835 346.796 38.739C346.678 38.643 346.596 38.534 346.55 38.412L346.835 38.289C346.869 38.379 346.934 38.46 347.03 38.532C347.128 38.604 347.238 38.661 347.36 38.703C347.484 38.743 347.605 38.763 347.723 38.763C347.857 38.763 347.983 38.74 348.101 38.694C348.219 38.648 348.315 38.583 348.389 38.499C348.463 38.415 348.5 38.316 348.5 38.202C348.5 38.082 348.461 37.988 348.383 37.92C348.305 37.85 348.205 37.794 348.083 37.752C347.963 37.708 347.839 37.667 347.711 37.629C347.491 37.565 347.3 37.5 347.138 37.434C346.978 37.366 346.854 37.28 346.766 37.176C346.678 37.072 346.634 36.935 346.634 36.765C346.634 36.589 346.685 36.436 346.787 36.306C346.889 36.176 347.023 36.076 347.189 36.006C347.355 35.934 347.533 35.898 347.723 35.898C347.969 35.898 348.192 35.952 348.392 36.06C348.594 36.168 348.736 36.31 348.818 36.486L348.554 36.642C348.514 36.55 348.451 36.471 348.365 36.405C348.279 36.339 348.181 36.288 348.071 36.252C347.961 36.216 347.85 36.197 347.738 36.195C347.598 36.193 347.467 36.215 347.345 36.261C347.225 36.305 347.128 36.37 347.054 36.456C346.98 36.54 346.943 36.642 346.943 36.762C346.943 36.882 346.977 36.974 347.045 37.038C347.113 37.102 347.208 37.154 347.33 37.194C347.452 37.232 347.593 37.277 347.753 37.329C347.939 37.387 348.112 37.452 348.272 37.524C348.434 37.594 348.564 37.682 348.662 37.788C348.762 37.894 348.811 38.031 348.809 38.199C348.809 38.375 348.756 38.528 348.65 38.658C348.546 38.788 348.409 38.888 348.239 38.958C348.071 39.028 347.891 39.061 347.699 39.057ZM350.836 36.324H350.077L350.074 39H349.75L349.753 36.324H349.18V36H349.753L349.75 35.058H350.074L350.077 36H350.836V36.324ZM351.354 36H351.678V39H351.354V36ZM351.519 35.433C351.463 35.433 351.415 35.415 351.375 35.379C351.337 35.341 351.318 35.294 351.318 35.238C351.318 35.182 351.337 35.136 351.375 35.1C351.415 35.062 351.463 35.043 351.519 35.043C351.573 35.043 351.619 35.062 351.657 35.1C351.697 35.136 351.717 35.182 351.717 35.238C351.717 35.294 351.698 35.341 351.66 35.379C351.622 35.415 351.575 35.433 351.519 35.433ZM353.906 36.324H353.147L353.144 39H352.82L352.823 36.324H352.25V36H352.823L352.82 35.058H353.144L353.147 36H353.906V36.324ZM354.322 37.839V36H354.646V37.788C354.646 37.966 354.689 38.128 354.775 38.274C354.863 38.42 354.98 38.536 355.126 38.622C355.272 38.708 355.433 38.751 355.609 38.751C355.787 38.751 355.948 38.708 356.092 38.622C356.238 38.536 356.354 38.42 356.44 38.274C356.528 38.128 356.572 37.966 356.572 37.788V36H356.896V39H356.572V38.535C356.464 38.699 356.321 38.831 356.143 38.931C355.967 39.029 355.773 39.078 355.561 39.078C355.333 39.078 355.125 39.023 354.937 38.913C354.749 38.801 354.599 38.651 354.487 38.463C354.377 38.275 354.322 38.067 354.322 37.839ZM359.706 38.295L359.994 38.451C359.858 38.641 359.685 38.793 359.475 38.907C359.267 39.021 359.041 39.078 358.797 39.078C358.521 39.078 358.269 39.007 358.041 38.865C357.815 38.723 357.634 38.533 357.498 38.295C357.364 38.055 357.297 37.79 357.297 37.5C357.297 37.28 357.336 37.075 357.414 36.885C357.492 36.693 357.599 36.525 357.735 36.381C357.873 36.235 358.033 36.121 358.215 36.039C358.397 35.957 358.591 35.916 358.797 35.916C359.041 35.916 359.267 35.973 359.475 36.087C359.685 36.201 359.858 36.354 359.994 36.546L359.706 36.699C359.592 36.551 359.454 36.438 359.292 36.36C359.13 36.28 358.965 36.24 358.797 36.24C358.577 36.24 358.378 36.298 358.2 36.414C358.022 36.528 357.881 36.681 357.777 36.873C357.673 37.063 357.621 37.272 357.621 37.5C357.621 37.73 357.674 37.94 357.78 38.13C357.886 38.32 358.028 38.472 358.206 38.586C358.384 38.698 358.581 38.754 358.797 38.754C358.979 38.754 359.15 38.711 359.31 38.625C359.47 38.539 359.602 38.429 359.706 38.295ZM360.501 36H360.825V39H360.501V36ZM360.666 35.433C360.61 35.433 360.562 35.415 360.522 35.379C360.484 35.341 360.465 35.294 360.465 35.238C360.465 35.182 360.484 35.136 360.522 35.1C360.562 35.062 360.61 35.043 360.666 35.043C360.72 35.043 360.766 35.062 360.804 35.1C360.844 35.136 360.864 35.182 360.864 35.238C360.864 35.294 360.845 35.341 360.807 35.379C360.769 35.415 360.722 35.433 360.666 35.433ZM362.846 39.078C362.57 39.078 362.318 39.007 362.09 38.865C361.864 38.723 361.683 38.533 361.547 38.295C361.413 38.055 361.346 37.79 361.346 37.5C361.346 37.28 361.385 37.075 361.463 36.885C361.541 36.693 361.648 36.525 361.784 36.381C361.922 36.235 362.082 36.121 362.264 36.039C362.446 35.957 362.64 35.916 362.846 35.916C363.122 35.916 363.373 35.987 363.599 36.129C363.827 36.271 364.008 36.462 364.142 36.702C364.278 36.942 364.346 37.208 364.346 37.5C364.346 37.718 364.307 37.922 364.229 38.112C364.151 38.302 364.043 38.47 363.905 38.616C363.769 38.76 363.61 38.873 363.428 38.955C363.248 39.037 363.054 39.078 362.846 39.078ZM362.846 38.754C363.068 38.754 363.267 38.696 363.443 38.58C363.621 38.464 363.762 38.311 363.866 38.121C363.97 37.931 364.022 37.724 364.022 37.5C364.022 37.274 363.97 37.065 363.866 36.873C363.762 36.681 363.621 36.528 363.443 36.414C363.265 36.298 363.066 36.24 362.846 36.24C362.624 36.24 362.424 36.298 362.246 36.414C362.068 36.53 361.927 36.684 361.823 36.876C361.721 37.066 361.67 37.274 361.67 37.5C361.67 37.734 361.723 37.946 361.829 38.136C361.937 38.324 362.08 38.474 362.258 38.586C362.436 38.698 362.632 38.754 362.846 38.754ZM367.44 37.155V39H367.116V37.206C367.116 37.028 367.073 36.866 366.987 36.72C366.901 36.574 366.785 36.458 366.639 36.372C366.493 36.286 366.331 36.243 366.153 36.243C365.977 36.243 365.816 36.286 365.67 36.372C365.524 36.458 365.407 36.574 365.319 36.72C365.233 36.866 365.19 37.028 365.19 37.206V39H364.866V36H365.19V36.459C365.298 36.293 365.441 36.161 365.619 36.063C365.797 35.965 365.991 35.916 366.201 35.916C366.431 35.916 366.639 35.972 366.825 36.084C367.013 36.194 367.162 36.343 367.272 36.531C367.384 36.719 367.44 36.927 367.44 37.155ZM370.512 36H370.836V39H370.512L370.503 38.385C370.401 38.593 370.255 38.761 370.065 38.889C369.877 39.015 369.651 39.078 369.387 39.078C369.169 39.078 368.964 39.037 368.772 38.955C368.582 38.871 368.414 38.757 368.268 38.613C368.122 38.467 368.008 38.299 367.926 38.109C367.844 37.917 367.803 37.711 367.803 37.491C367.803 37.273 367.843 37.069 367.923 36.879C368.005 36.689 368.118 36.522 368.262 36.378C368.406 36.232 368.573 36.119 368.763 36.039C368.953 35.957 369.156 35.916 369.372 35.916C369.638 35.916 369.868 35.981 370.062 36.111C370.258 36.239 370.411 36.407 370.521 36.615L370.512 36ZM369.384 38.76C369.614 38.76 369.811 38.704 369.975 38.592C370.141 38.478 370.268 38.325 370.356 38.133C370.444 37.941 370.488 37.73 370.488 37.5C370.488 37.264 370.443 37.051 370.353 36.861C370.265 36.669 370.138 36.517 369.972 36.405C369.808 36.291 369.612 36.234 369.384 36.234C369.152 36.234 368.941 36.291 368.751 36.405C368.563 36.519 368.413 36.672 368.301 36.864C368.189 37.056 368.133 37.268 368.133 37.5C368.133 37.736 368.19 37.949 368.304 38.139C368.42 38.329 368.573 38.48 368.763 38.592C368.953 38.704 369.16 38.76 369.384 38.76ZM371.481 39V34.5H371.805V39H371.481Z" fill="white" fill-opacity="0.6"/>
<path d="M417.36 128V123.8H418.656C418.878 123.8 419.078 123.854 419.256 123.962C419.436 124.068 419.579 124.213 419.685 124.397C419.791 124.581 419.844 124.787 419.844 125.015C419.844 125.247 419.79 125.455 419.682 125.639C419.574 125.823 419.43 125.968 419.25 126.074C419.07 126.18 418.872 126.233 418.656 126.233H417.684V128H417.36ZM417.684 125.909H418.635C418.797 125.909 418.945 125.87 419.079 125.792C419.213 125.712 419.32 125.604 419.4 125.468C419.48 125.332 419.52 125.177 419.52 125.003C419.52 124.831 419.48 124.677 419.4 124.541C419.32 124.403 419.213 124.295 419.079 124.217C418.945 124.137 418.797 124.097 418.635 124.097H417.684V125.909ZM421.522 128.078C421.246 128.078 420.994 128.007 420.766 127.865C420.54 127.723 420.359 127.533 420.223 127.295C420.089 127.055 420.022 126.79 420.022 126.5C420.022 126.28 420.061 126.075 420.139 125.885C420.217 125.693 420.324 125.525 420.46 125.381C420.598 125.235 420.758 125.121 420.94 125.039C421.122 124.957 421.316 124.916 421.522 124.916C421.74 124.916 421.941 124.959 422.125 125.045C422.311 125.129 422.471 125.248 422.605 125.402C422.739 125.556 422.842 125.738 422.914 125.948C422.986 126.156 423.019 126.384 423.013 126.632H420.361C420.383 126.846 420.447 127.038 420.553 127.208C420.661 127.376 420.799 127.509 420.967 127.607C421.135 127.703 421.32 127.752 421.522 127.754C421.744 127.754 421.944 127.696 422.122 127.58C422.3 127.462 422.443 127.301 422.551 127.097L422.878 127.172C422.758 127.438 422.577 127.656 422.335 127.826C422.093 127.994 421.822 128.078 421.522 128.078ZM420.352 126.356H422.686C422.674 126.15 422.614 125.961 422.506 125.789C422.4 125.615 422.261 125.476 422.089 125.372C421.917 125.268 421.728 125.216 421.522 125.216C421.316 125.216 421.128 125.267 420.958 125.369C420.788 125.471 420.649 125.609 420.541 125.783C420.435 125.955 420.372 126.146 420.352 126.356ZM424.475 128.057C424.309 128.055 424.146 128.026 423.986 127.97C423.828 127.912 423.69 127.835 423.572 127.739C423.454 127.643 423.372 127.534 423.326 127.412L423.611 127.289C423.645 127.379 423.71 127.46 423.806 127.532C423.904 127.604 424.014 127.661 424.136 127.703C424.26 127.743 424.381 127.763 424.499 127.763C424.633 127.763 424.759 127.74 424.877 127.694C424.995 127.648 425.091 127.583 425.165 127.499C425.239 127.415 425.276 127.316 425.276 127.202C425.276 127.082 425.237 126.988 425.159 126.92C425.081 126.85 424.981 126.794 424.859 126.752C424.739 126.708 424.615 126.667 424.487 126.629C424.267 126.565 424.076 126.5 423.914 126.434C423.754 126.366 423.63 126.28 423.542 126.176C423.454 126.072 423.41 125.935 423.41 125.765C423.41 125.589 423.461 125.436 423.563 125.306C423.665 125.176 423.799 125.076 423.965 125.006C424.131 124.934 424.309 124.898 424.499 124.898C424.745 124.898 424.968 124.952 425.168 125.06C425.37 125.168 425.512 125.31 425.594 125.486L425.33 125.642C425.29 125.55 425.227 125.471 425.141 125.405C425.055 125.339 424.957 125.288 424.847 125.252C424.737 125.216 424.626 125.197 424.514 125.195C424.374 125.193 424.243 125.215 424.121 125.261C424.001 125.305 423.904 125.37 423.83 125.456C423.756 125.54 423.719 125.642 423.719 125.762C423.719 125.882 423.753 125.974 423.821 126.038C423.889 126.102 423.984 126.154 424.106 126.194C424.228 126.232 424.369 126.277 424.529 126.329C424.715 126.387 424.888 126.452 425.048 126.524C425.21 126.594 425.34 126.682 425.438 126.788C425.538 126.894 425.587 127.031 425.585 127.199C425.585 127.375 425.532 127.528 425.426 127.658C425.322 127.788 425.185 127.888 425.015 127.958C424.847 128.028 424.667 128.061 424.475 128.057ZM427.041 128.057C426.875 128.055 426.712 128.026 426.552 127.97C426.394 127.912 426.256 127.835 426.138 127.739C426.02 127.643 425.938 127.534 425.892 127.412L426.177 127.289C426.211 127.379 426.276 127.46 426.372 127.532C426.47 127.604 426.58 127.661 426.702 127.703C426.826 127.743 426.947 127.763 427.065 127.763C427.199 127.763 427.325 127.74 427.443 127.694C427.561 127.648 427.657 127.583 427.731 127.499C427.805 127.415 427.842 127.316 427.842 127.202C427.842 127.082 427.803 126.988 427.725 126.92C427.647 126.85 427.547 126.794 427.425 126.752C427.305 126.708 427.181 126.667 427.053 126.629C426.833 126.565 426.642 126.5 426.48 126.434C426.32 126.366 426.196 126.28 426.108 126.176C426.02 126.072 425.976 125.935 425.976 125.765C425.976 125.589 426.027 125.436 426.129 125.306C426.231 125.176 426.365 125.076 426.531 125.006C426.697 124.934 426.875 124.898 427.065 124.898C427.311 124.898 427.534 124.952 427.734 125.06C427.936 125.168 428.078 125.31 428.16 125.486L427.896 125.642C427.856 125.55 427.793 125.471 427.707 125.405C427.621 125.339 427.523 125.288 427.413 125.252C427.303 125.216 427.192 125.197 427.08 125.195C426.94 125.193 426.809 125.215 426.687 125.261C426.567 125.305 426.47 125.37 426.396 125.456C426.322 125.54 426.285 125.642 426.285 125.762C426.285 125.882 426.319 125.974 426.387 126.038C426.455 126.102 426.55 126.154 426.672 126.194C426.794 126.232 426.935 126.277 427.095 126.329C427.281 126.387 427.454 126.452 427.614 126.524C427.776 126.594 427.906 126.682 428.004 126.788C428.104 126.894 428.153 127.031 428.151 127.199C428.151 127.375 428.098 127.528 427.992 127.658C427.888 127.788 427.751 127.888 427.581 127.958C427.413 128.028 427.233 128.061 427.041 128.057ZM429.971 128.078C429.695 128.078 429.443 128.007 429.215 127.865C428.989 127.723 428.808 127.533 428.672 127.295C428.538 127.055 428.471 126.79 428.471 126.5C428.471 126.28 428.51 126.075 428.588 125.885C428.666 125.693 428.773 125.525 428.909 125.381C429.047 125.235 429.207 125.121 429.389 125.039C429.571 124.957 429.765 124.916 429.971 124.916C430.247 124.916 430.498 124.987 430.724 125.129C430.952 125.271 431.133 125.462 431.267 125.702C431.403 125.942 431.471 126.208 431.471 126.5C431.471 126.718 431.432 126.922 431.354 127.112C431.276 127.302 431.168 127.47 431.03 127.616C430.894 127.76 430.735 127.873 430.553 127.955C430.373 128.037 430.179 128.078 429.971 128.078ZM429.971 127.754C430.193 127.754 430.392 127.696 430.568 127.58C430.746 127.464 430.887 127.311 430.991 127.121C431.095 126.931 431.147 126.724 431.147 126.5C431.147 126.274 431.095 126.065 430.991 125.873C430.887 125.681 430.746 125.528 430.568 125.414C430.39 125.298 430.191 125.24 429.971 125.24C429.749 125.24 429.549 125.298 429.371 125.414C429.193 125.53 429.052 125.684 428.948 125.876C428.846 126.066 428.795 126.274 428.795 126.5C428.795 126.734 428.848 126.946 428.954 127.136C429.062 127.324 429.205 127.474 429.383 127.586C429.561 127.698 429.757 127.754 429.971 127.754ZM434.479 125H434.803V128H434.479L434.47 127.385C434.368 127.593 434.222 127.761 434.032 127.889C433.844 128.015 433.618 128.078 433.354 128.078C433.136 128.078 432.931 128.037 432.739 127.955C432.549 127.871 432.381 127.757 432.235 127.613C432.089 127.467 431.975 127.299 431.893 127.109C431.811 126.917 431.77 126.711 431.77 126.491C431.77 126.273 431.81 126.069 431.89 125.879C431.972 125.689 432.085 125.522 432.229 125.378C432.373 125.232 432.54 125.119 432.73 125.039C432.92 124.957 433.123 124.916 433.339 124.916C433.605 124.916 433.835 124.981 434.029 125.111C434.225 125.239 434.378 125.407 434.488 125.615L434.479 125ZM433.351 127.76C433.581 127.76 433.778 127.704 433.942 127.592C434.108 127.478 434.235 127.325 434.323 127.133C434.411 126.941 434.455 126.73 434.455 126.5C434.455 126.264 434.41 126.051 434.32 125.861C434.232 125.669 434.105 125.517 433.939 125.405C433.775 125.291 433.579 125.234 433.351 125.234C433.119 125.234 432.908 125.291 432.718 125.405C432.53 125.519 432.38 125.672 432.268 125.864C432.156 126.056 432.1 126.268 432.1 126.5C432.1 126.736 432.157 126.949 432.271 127.139C432.387 127.329 432.54 127.48 432.73 127.592C432.92 127.704 433.127 127.76 433.351 127.76ZM435.448 128V123.5H435.772V128H435.448Z" fill="white" fill-opacity="0.6"/>
<path d="M346.36 217V212.8H347.656C347.878 212.8 348.078 212.854 348.256 212.962C348.436 213.068 348.579 213.213 348.685 213.397C348.791 213.581 348.844 213.787 348.844 214.015C348.844 214.247 348.79 214.455 348.682 214.639C348.574 214.823 348.43 214.968 348.25 215.074C348.07 215.18 347.872 215.233 347.656 215.233H346.684V217H346.36ZM346.684 214.909H347.635C347.797 214.909 347.945 214.87 348.079 214.792C348.213 214.712 348.32 214.604 348.4 214.468C348.48 214.332 348.52 214.177 348.52 214.003C348.52 213.831 348.48 213.677 348.4 213.541C348.32 213.403 348.213 213.295 348.079 213.217C347.945 213.137 347.797 213.097 347.635 213.097H346.684V214.909ZM350.522 217.078C350.246 217.078 349.994 217.007 349.766 216.865C349.54 216.723 349.359 216.533 349.223 216.295C349.089 216.055 349.022 215.79 349.022 215.5C349.022 215.28 349.061 215.075 349.139 214.885C349.217 214.693 349.324 214.525 349.46 214.381C349.598 214.235 349.758 214.121 349.94 214.039C350.122 213.957 350.316 213.916 350.522 213.916C350.798 213.916 351.049 213.987 351.275 214.129C351.503 214.271 351.684 214.462 351.818 214.702C351.954 214.942 352.022 215.208 352.022 215.5C352.022 215.718 351.983 215.922 351.905 216.112C351.827 216.302 351.719 216.47 351.581 216.616C351.445 216.76 351.286 216.873 351.104 216.955C350.924 217.037 350.73 217.078 350.522 217.078ZM350.522 216.754C350.744 216.754 350.943 216.696 351.119 216.58C351.297 216.464 351.438 216.311 351.542 216.121C351.646 215.931 351.698 215.724 351.698 215.5C351.698 215.274 351.646 215.065 351.542 214.873C351.438 214.681 351.297 214.528 351.119 214.414C350.941 214.298 350.742 214.24 350.522 214.24C350.3 214.24 350.1 214.298 349.922 214.414C349.744 214.53 349.603 214.684 349.499 214.876C349.397 215.066 349.346 215.274 349.346 215.5C349.346 215.734 349.399 215.946 349.505 216.136C349.613 216.324 349.756 216.474 349.934 216.586C350.112 216.698 350.308 216.754 350.522 216.754ZM352.542 217V214H352.866V214.459C352.974 214.293 353.117 214.161 353.295 214.063C353.473 213.965 353.667 213.916 353.877 213.916C353.995 213.916 354.108 213.931 354.216 213.961L354.081 214.279C353.995 214.255 353.911 214.243 353.829 214.243C353.653 214.243 353.492 214.286 353.346 214.372C353.2 214.458 353.083 214.574 352.995 214.72C352.909 214.866 352.866 215.028 352.866 215.206V217H352.542ZM356.142 214.324H355.383L355.38 217H355.056L355.059 214.324H354.486V214H355.059L355.056 213.058H355.38L355.383 214H356.142V214.324ZM357.227 213.169V214H358.154V214.324H357.227V217H356.903V214.324H356.468V214H356.903V213.169C356.903 213.033 356.936 212.909 357.002 212.797C357.07 212.685 357.16 212.596 357.272 212.53C357.386 212.462 357.511 212.428 357.647 212.428C357.747 212.428 357.843 212.448 357.935 212.488C358.027 212.526 358.109 212.582 358.181 212.656L357.95 212.884C357.914 212.842 357.869 212.81 357.815 212.788C357.761 212.764 357.705 212.752 357.647 212.752C357.533 212.752 357.434 212.793 357.35 212.875C357.268 212.957 357.227 213.055 357.227 213.169ZM359.879 217.078C359.603 217.078 359.351 217.007 359.123 216.865C358.897 216.723 358.716 216.533 358.58 216.295C358.446 216.055 358.379 215.79 358.379 215.5C358.379 215.28 358.418 215.075 358.496 214.885C358.574 214.693 358.681 214.525 358.817 214.381C358.955 214.235 359.115 214.121 359.297 214.039C359.479 213.957 359.673 213.916 359.879 213.916C360.155 213.916 360.406 213.987 360.632 214.129C360.86 214.271 361.041 214.462 361.175 214.702C361.311 214.942 361.379 215.208 361.379 215.5C361.379 215.718 361.34 215.922 361.262 216.112C361.184 216.302 361.076 216.47 360.938 216.616C360.802 216.76 360.643 216.873 360.461 216.955C360.281 217.037 360.087 217.078 359.879 217.078ZM359.879 216.754C360.101 216.754 360.3 216.696 360.476 216.58C360.654 216.464 360.795 216.311 360.899 216.121C361.003 215.931 361.055 215.724 361.055 215.5C361.055 215.274 361.003 215.065 360.899 214.873C360.795 214.681 360.654 214.528 360.476 214.414C360.298 214.298 360.099 214.24 359.879 214.24C359.657 214.24 359.457 214.298 359.279 214.414C359.101 214.53 358.96 214.684 358.856 214.876C358.754 215.066 358.703 215.274 358.703 215.5C358.703 215.734 358.756 215.946 358.862 216.136C358.97 216.324 359.113 216.474 359.291 216.586C359.469 216.698 359.665 216.754 359.879 216.754ZM359.807 213.67L360.047 212.806H360.371L360.023 213.67H359.807ZM361.881 217V212.5H362.205V217H361.881ZM362.924 214H363.248V217H362.924V214ZM363.089 213.433C363.033 213.433 362.985 213.415 362.945 213.379C362.907 213.341 362.888 213.294 362.888 213.238C362.888 213.182 362.907 213.136 362.945 213.1C362.985 213.062 363.033 213.043 363.089 213.043C363.143 213.043 363.189 213.062 363.227 213.1C363.267 213.136 363.287 213.182 363.287 213.238C363.287 213.294 363.268 213.341 363.23 213.379C363.192 213.415 363.145 213.433 363.089 213.433ZM365.27 217.078C364.994 217.078 364.742 217.007 364.514 216.865C364.288 216.723 364.107 216.533 363.971 216.295C363.837 216.055 363.77 215.79 363.77 215.5C363.77 215.28 363.809 215.075 363.887 214.885C363.965 214.693 364.072 214.525 364.208 214.381C364.346 214.235 364.506 214.121 364.688 214.039C364.87 213.957 365.064 213.916 365.27 213.916C365.546 213.916 365.797 213.987 366.023 214.129C366.251 214.271 366.432 214.462 366.566 214.702C366.702 214.942 366.77 215.208 366.77 215.5C366.77 215.718 366.731 215.922 366.653 216.112C366.575 216.302 366.467 216.47 366.329 216.616C366.193 216.76 366.034 216.873 365.852 216.955C365.672 217.037 365.478 217.078 365.27 217.078ZM365.27 216.754C365.492 216.754 365.691 216.696 365.867 216.58C366.045 216.464 366.186 216.311 366.29 216.121C366.394 215.931 366.446 215.724 366.446 215.5C366.446 215.274 366.394 215.065 366.29 214.873C366.186 214.681 366.045 214.528 365.867 214.414C365.689 214.298 365.49 214.24 365.27 214.24C365.048 214.24 364.848 214.298 364.67 214.414C364.492 214.53 364.351 214.684 364.247 214.876C364.145 215.066 364.094 215.274 364.094 215.5C364.094 215.734 364.147 215.946 364.253 216.136C364.361 216.324 364.504 216.474 364.682 216.586C364.86 216.698 365.056 216.754 365.27 216.754Z" fill="white" fill-opacity="0.6"/>
<path d="M229.815 217.078C229.593 217.078 229.378 217.044 229.17 216.976C228.962 216.906 228.78 216.808 228.624 216.682C228.47 216.554 228.362 216.401 228.3 216.223L228.603 216.109C228.651 216.245 228.738 216.362 228.864 216.46C228.992 216.556 229.139 216.629 229.305 216.679C229.473 216.729 229.643 216.754 229.815 216.754C230.019 216.754 230.21 216.719 230.388 216.649C230.566 216.579 230.71 216.482 230.82 216.358C230.93 216.232 230.985 216.083 230.985 215.911C230.985 215.739 230.928 215.598 230.814 215.488C230.7 215.376 230.553 215.288 230.373 215.224C230.195 215.158 230.009 215.107 229.815 215.071C229.531 215.021 229.277 214.955 229.053 214.873C228.829 214.789 228.651 214.671 228.519 214.519C228.389 214.367 228.324 214.163 228.324 213.907C228.324 213.669 228.393 213.463 228.531 213.289C228.671 213.115 228.854 212.98 229.08 212.884C229.306 212.788 229.551 212.74 229.815 212.74C230.029 212.74 230.239 212.774 230.445 212.842C230.651 212.908 230.833 213.005 230.991 213.133C231.149 213.261 231.263 213.417 231.333 213.601L231.024 213.712C230.976 213.574 230.889 213.457 230.763 213.361C230.637 213.265 230.49 213.192 230.322 213.142C230.156 213.092 229.987 213.067 229.815 213.067C229.609 213.065 229.417 213.1 229.239 213.172C229.063 213.242 228.92 213.34 228.81 213.466C228.702 213.592 228.648 213.739 228.648 213.907C228.648 214.101 228.699 214.251 228.801 214.357C228.903 214.463 229.042 214.543 229.218 214.597C229.394 214.649 229.593 214.696 229.815 214.738C230.079 214.784 230.324 214.855 230.55 214.951C230.778 215.045 230.961 215.171 231.099 215.329C231.239 215.485 231.309 215.679 231.309 215.911C231.309 216.147 231.239 216.353 231.099 216.529C230.961 216.703 230.779 216.838 230.553 216.934C230.327 217.03 230.081 217.078 229.815 217.078ZM233.289 217.078C233.013 217.078 232.761 217.007 232.533 216.865C232.307 216.723 232.126 216.533 231.99 216.295C231.856 216.055 231.789 215.79 231.789 215.5C231.789 215.28 231.828 215.075 231.906 214.885C231.984 214.693 232.091 214.525 232.227 214.381C232.365 214.235 232.525 214.121 232.707 214.039C232.889 213.957 233.083 213.916 233.289 213.916C233.565 213.916 233.816 213.987 234.042 214.129C234.27 214.271 234.451 214.462 234.585 214.702C234.721 214.942 234.789 215.208 234.789 215.5C234.789 215.718 234.75 215.922 234.672 216.112C234.594 216.302 234.486 216.47 234.348 216.616C234.212 216.76 234.053 216.873 233.871 216.955C233.691 217.037 233.497 217.078 233.289 217.078ZM233.289 216.754C233.511 216.754 233.71 216.696 233.886 216.58C234.064 216.464 234.205 216.311 234.309 216.121C234.413 215.931 234.465 215.724 234.465 215.5C234.465 215.274 234.413 215.065 234.309 214.873C234.205 214.681 234.064 214.528 233.886 214.414C233.708 214.298 233.509 214.24 233.289 214.24C233.067 214.24 232.867 214.298 232.689 214.414C232.511 214.53 232.37 214.684 232.266 214.876C232.164 215.066 232.113 215.274 232.113 215.5C232.113 215.734 232.166 215.946 232.272 216.136C232.38 216.324 232.523 216.474 232.701 216.586C232.879 216.698 233.075 216.754 233.289 216.754ZM235.876 213.169V214H236.803V214.324H235.876V217H235.552V214.324H235.117V214H235.552V213.169C235.552 213.033 235.585 212.909 235.651 212.797C235.719 212.685 235.809 212.596 235.921 212.53C236.035 212.462 236.16 212.428 236.296 212.428C236.396 212.428 236.492 212.448 236.584 212.488C236.676 212.526 236.758 212.582 236.83 212.656L236.599 212.884C236.563 212.842 236.518 212.81 236.464 212.788C236.41 212.764 236.354 212.752 236.296 212.752C236.182 212.752 236.083 212.793 235.999 212.875C235.917 212.957 235.876 213.055 235.876 213.169ZM238.887 214.324H238.128L238.125 217H237.801L237.804 214.324H237.231V214H237.804L237.801 213.058H238.125L238.128 214H238.887V214.324ZM240.59 217H240.248L239.243 214H239.558L240.425 216.565L241.286 214H241.643L242.504 216.565L243.365 214H243.686L242.678 217H242.333L241.46 214.408L240.59 217ZM246.616 214H246.94V217H246.616L246.607 216.385C246.505 216.593 246.359 216.761 246.169 216.889C245.981 217.015 245.755 217.078 245.491 217.078C245.273 217.078 245.068 217.037 244.876 216.955C244.686 216.871 244.518 216.757 244.372 216.613C244.226 216.467 244.112 216.299 244.03 216.109C243.948 215.917 243.907 215.711 243.907 215.491C243.907 215.273 243.947 215.069 244.027 214.879C244.109 214.689 244.222 214.522 244.366 214.378C244.51 214.232 244.677 214.119 244.867 214.039C245.057 213.957 245.26 213.916 245.476 213.916C245.742 213.916 245.972 213.981 246.166 214.111C246.362 214.239 246.515 214.407 246.625 214.615L246.616 214ZM245.488 216.76C245.718 216.76 245.915 216.704 246.079 216.592C246.245 216.478 246.372 216.325 246.46 216.133C246.548 215.941 246.592 215.73 246.592 215.5C246.592 215.264 246.547 215.051 246.457 214.861C246.369 214.669 246.242 214.517 246.076 214.405C245.912 214.291 245.716 214.234 245.488 214.234C245.256 214.234 245.045 214.291 244.855 214.405C244.667 214.519 244.517 214.672 244.405 214.864C244.293 215.056 244.237 215.268 244.237 215.5C244.237 215.736 244.294 215.949 244.408 216.139C244.524 216.329 244.677 216.48 244.867 216.592C245.057 216.704 245.264 216.76 245.488 216.76ZM247.538 217V214H247.862V214.459C247.97 214.293 248.113 214.161 248.291 214.063C248.469 213.965 248.663 213.916 248.873 213.916C248.991 213.916 249.104 213.931 249.212 213.961L249.077 214.279C248.991 214.255 248.907 214.243 248.825 214.243C248.649 214.243 248.488 214.286 248.342 214.372C248.196 214.458 248.079 214.574 247.991 214.72C247.905 214.866 247.862 215.028 247.862 215.206V217H247.538ZM250.756 217.078C250.48 217.078 250.228 217.007 250 216.865C249.774 216.723 249.593 216.533 249.457 216.295C249.323 216.055 249.256 215.79 249.256 215.5C249.256 215.28 249.295 215.075 249.373 214.885C249.451 214.693 249.558 214.525 249.694 214.381C249.832 214.235 249.992 214.121 250.174 214.039C250.356 213.957 250.55 213.916 250.756 213.916C250.974 213.916 251.175 213.959 251.359 214.045C251.545 214.129 251.705 214.248 251.839 214.402C251.973 214.556 252.076 214.738 252.148 214.948C252.22 215.156 252.253 215.384 252.247 215.632H249.595C249.617 215.846 249.681 216.038 249.787 216.208C249.895 216.376 250.033 216.509 250.201 216.607C250.369 216.703 250.554 216.752 250.756 216.754C250.978 216.754 251.178 216.696 251.356 216.58C251.534 216.462 251.677 216.301 251.785 216.097L252.112 216.172C251.992 216.438 251.811 216.656 251.569 216.826C251.327 216.994 251.056 217.078 250.756 217.078ZM249.586 215.356H251.92C251.908 215.15 251.848 214.961 251.74 214.789C251.634 214.615 251.495 214.476 251.323 214.372C251.151 214.268 250.962 214.216 250.756 214.216C250.55 214.216 250.362 214.267 250.192 214.369C250.022 214.471 249.883 214.609 249.775 214.783C249.669 214.955 249.606 215.146 249.586 215.356Z" fill="white" fill-opacity="0.6"/>
<path d="M158.36 127V122.8H159.749C160.039 122.8 160.311 122.855 160.565 122.965C160.819 123.073 161.042 123.224 161.234 123.418C161.426 123.61 161.576 123.833 161.684 124.087C161.794 124.339 161.849 124.61 161.849 124.9C161.849 125.19 161.794 125.462 161.684 125.716C161.576 125.968 161.426 126.191 161.234 126.385C161.042 126.577 160.819 126.728 160.565 126.838C160.311 126.946 160.039 127 159.749 127H158.36ZM158.684 126.676H159.749C159.995 126.676 160.225 126.63 160.439 126.538C160.653 126.446 160.841 126.319 161.003 126.157C161.167 125.993 161.295 125.804 161.387 125.59C161.479 125.376 161.525 125.146 161.525 124.9C161.525 124.654 161.479 124.424 161.387 124.21C161.295 123.996 161.167 123.808 161.003 123.646C160.839 123.482 160.65 123.354 160.436 123.262C160.222 123.17 159.993 123.124 159.749 123.124H158.684V126.676ZM163.688 127.078C163.412 127.078 163.16 127.007 162.932 126.865C162.706 126.723 162.525 126.533 162.389 126.295C162.255 126.055 162.188 125.79 162.188 125.5C162.188 125.28 162.227 125.075 162.305 124.885C162.383 124.693 162.49 124.525 162.626 124.381C162.764 124.235 162.924 124.121 163.106 124.039C163.288 123.957 163.482 123.916 163.688 123.916C163.906 123.916 164.107 123.959 164.291 124.045C164.477 124.129 164.637 124.248 164.771 124.402C164.905 124.556 165.008 124.738 165.08 124.948C165.152 125.156 165.185 125.384 165.179 125.632H162.527C162.549 125.846 162.613 126.038 162.719 126.208C162.827 126.376 162.965 126.509 163.133 126.607C163.301 126.703 163.486 126.752 163.688 126.754C163.91 126.754 164.11 126.696 164.288 126.58C164.466 126.462 164.609 126.301 164.717 126.097L165.044 126.172C164.924 126.438 164.743 126.656 164.501 126.826C164.259 126.994 163.988 127.078 163.688 127.078ZM162.518 125.356H164.852C164.84 125.15 164.78 124.961 164.672 124.789C164.566 124.615 164.427 124.476 164.255 124.372C164.083 124.268 163.894 124.216 163.688 124.216C163.482 124.216 163.294 124.267 163.124 124.369C162.954 124.471 162.815 124.609 162.707 124.783C162.601 124.955 162.538 125.146 162.518 125.356ZM166.641 127.057C166.475 127.055 166.312 127.026 166.152 126.97C165.994 126.912 165.856 126.835 165.738 126.739C165.62 126.643 165.538 126.534 165.492 126.412L165.777 126.289C165.811 126.379 165.876 126.46 165.972 126.532C166.07 126.604 166.18 126.661 166.302 126.703C166.426 126.743 166.547 126.763 166.665 126.763C166.799 126.763 166.925 126.74 167.043 126.694C167.161 126.648 167.257 126.583 167.331 126.499C167.405 126.415 167.442 126.316 167.442 126.202C167.442 126.082 167.403 125.988 167.325 125.92C167.247 125.85 167.147 125.794 167.025 125.752C166.905 125.708 166.781 125.667 166.653 125.629C166.433 125.565 166.242 125.5 166.08 125.434C165.92 125.366 165.796 125.28 165.708 125.176C165.62 125.072 165.576 124.935 165.576 124.765C165.576 124.589 165.627 124.436 165.729 124.306C165.831 124.176 165.965 124.076 166.131 124.006C166.297 123.934 166.475 123.898 166.665 123.898C166.911 123.898 167.134 123.952 167.334 124.06C167.536 124.168 167.678 124.31 167.76 124.486L167.496 124.642C167.456 124.55 167.393 124.471 167.307 124.405C167.221 124.339 167.123 124.288 167.013 124.252C166.903 124.216 166.792 124.197 166.68 124.195C166.54 124.193 166.409 124.215 166.287 124.261C166.167 124.305 166.07 124.37 165.996 124.456C165.922 124.54 165.885 124.642 165.885 124.762C165.885 124.882 165.919 124.974 165.987 125.038C166.055 125.102 166.15 125.154 166.272 125.194C166.394 125.232 166.535 125.277 166.695 125.329C166.881 125.387 167.054 125.452 167.214 125.524C167.376 125.594 167.506 125.682 167.604 125.788C167.704 125.894 167.753 126.031 167.751 126.199C167.751 126.375 167.698 126.528 167.592 126.658C167.488 126.788 167.351 126.888 167.181 126.958C167.013 127.028 166.833 127.061 166.641 127.057ZM168.251 124H168.575V127H168.251V124ZM168.416 123.433C168.36 123.433 168.312 123.415 168.272 123.379C168.234 123.341 168.215 123.294 168.215 123.238C168.215 123.182 168.234 123.136 168.272 123.1C168.312 123.062 168.36 123.043 168.416 123.043C168.47 123.043 168.516 123.062 168.554 123.1C168.594 123.136 168.614 123.182 168.614 123.238C168.614 123.294 168.595 123.341 168.557 123.379C168.519 123.415 168.472 123.433 168.416 123.433ZM171.709 124H172.033V127.126C172.033 127.312 171.992 127.487 171.91 127.651C171.83 127.817 171.721 127.963 171.583 128.089C171.445 128.217 171.288 128.317 171.112 128.389C170.938 128.463 170.758 128.5 170.572 128.5C170.364 128.5 170.163 128.451 169.969 128.353C169.775 128.257 169.607 128.128 169.465 127.966C169.325 127.804 169.228 127.627 169.174 127.435L169.474 127.297C169.51 127.459 169.584 127.606 169.696 127.738C169.808 127.872 169.941 127.978 170.095 128.056C170.251 128.134 170.41 128.173 170.572 128.173C170.716 128.173 170.856 128.145 170.992 128.089C171.128 128.033 171.25 127.956 171.358 127.858C171.466 127.762 171.551 127.651 171.613 127.525C171.677 127.399 171.709 127.266 171.709 127.126V126.391C171.603 126.595 171.456 126.761 171.268 126.889C171.08 127.015 170.861 127.078 170.611 127.078C170.403 127.078 170.207 127.037 170.023 126.955C169.839 126.873 169.678 126.76 169.54 126.616C169.402 126.47 169.293 126.302 169.213 126.112C169.135 125.922 169.096 125.718 169.096 125.5C169.096 125.282 169.135 125.078 169.213 124.888C169.293 124.696 169.402 124.528 169.54 124.384C169.678 124.238 169.839 124.124 170.023 124.042C170.207 123.96 170.403 123.919 170.611 123.919C170.861 123.919 171.08 123.982 171.268 124.108C171.456 124.232 171.603 124.398 171.709 124.606V124ZM170.614 126.76C170.838 126.76 171.03 126.702 171.19 126.586C171.352 126.47 171.476 126.316 171.562 126.124C171.65 125.932 171.694 125.724 171.694 125.5C171.694 125.27 171.65 125.06 171.562 124.87C171.474 124.678 171.349 124.524 171.187 124.408C171.025 124.292 170.834 124.234 170.614 124.234C170.394 124.234 170.194 124.291 170.014 124.405C169.834 124.519 169.691 124.672 169.585 124.864C169.479 125.056 169.426 125.268 169.426 125.5C169.426 125.734 169.48 125.946 169.588 126.136C169.696 126.326 169.84 126.478 170.02 126.592C170.2 126.704 170.398 126.76 170.614 126.76ZM175.325 125.155V127H175.001V125.206C175.001 125.028 174.958 124.866 174.872 124.72C174.786 124.574 174.67 124.458 174.524 124.372C174.378 124.286 174.216 124.243 174.038 124.243C173.862 124.243 173.701 124.286 173.555 124.372C173.409 124.458 173.292 124.574 173.204 124.72C173.118 124.866 173.075 125.028 173.075 125.206V127H172.751V124H173.075V124.459C173.183 124.293 173.326 124.161 173.504 124.063C173.682 123.965 173.876 123.916 174.086 123.916C174.316 123.916 174.524 123.972 174.71 124.084C174.898 124.194 175.047 124.343 175.157 124.531C175.269 124.719 175.325 124.927 175.325 125.155ZM177.188 127.078C176.912 127.078 176.66 127.007 176.432 126.865C176.206 126.723 176.025 126.533 175.889 126.295C175.755 126.055 175.688 125.79 175.688 125.5C175.688 125.28 175.727 125.075 175.805 124.885C175.883 124.693 175.99 124.525 176.126 124.381C176.264 124.235 176.424 124.121 176.606 124.039C176.788 123.957 176.982 123.916 177.188 123.916C177.406 123.916 177.607 123.959 177.791 124.045C177.977 124.129 178.137 124.248 178.271 124.402C178.405 124.556 178.508 124.738 178.58 124.948C178.652 125.156 178.685 125.384 178.679 125.632H176.027C176.049 125.846 176.113 126.038 176.219 126.208C176.327 126.376 176.465 126.509 176.633 126.607C176.801 126.703 176.986 126.752 177.188 126.754C177.41 126.754 177.61 126.696 177.788 126.58C177.966 126.462 178.109 126.301 178.217 126.097L178.544 126.172C178.424 126.438 178.243 126.656 178.001 126.826C177.759 126.994 177.488 127.078 177.188 127.078ZM176.018 125.356H178.352C178.34 125.15 178.28 124.961 178.172 124.789C178.066 124.615 177.927 124.476 177.755 124.372C177.583 124.268 177.394 124.216 177.188 124.216C176.982 124.216 176.794 124.267 176.624 124.369C176.454 124.471 176.315 124.609 176.207 124.783C176.101 124.955 176.038 125.146 176.018 125.356ZM179.202 127V124H179.526V124.459C179.634 124.293 179.777 124.161 179.955 124.063C180.133 123.965 180.327 123.916 180.537 123.916C180.655 123.916 180.768 123.931 180.876 123.961L180.741 124.279C180.655 124.255 180.571 124.243 180.489 124.243C180.313 124.243 180.152 124.286 180.006 124.372C179.86 124.458 179.743 124.574 179.655 124.72C179.569 124.866 179.526 125.028 179.526 125.206V127H179.202Z" fill="white" fill-opacity="0.6"/>
<circle cx="300" cy="-15" r="140.8" stroke="url(#paint0_linear_74_17)" stroke-opacity="0.2" stroke-width="0.4"/>
<circle cx="18" cy="125" r="140.8" stroke="url(#paint1_linear_74_17)" stroke-opacity="0.2" stroke-width="0.4"/>
<circle cx="581" cy="116" r="140.8" stroke="url(#paint2_linear_74_17)" stroke-opacity="0.2" stroke-width="0.4"/>
<circle cx="299" cy="267" r="140.8" stroke="url(#paint3_linear_74_17)" stroke-opacity="0.2" stroke-width="0.4"/>
<circle cx="299" cy="126" r="33.85" stroke="url(#paint4_linear_74_17)" stroke-opacity="0.5" stroke-width="0.3"/>
<g filter="url(#filter0_f_74_17)">
<circle cx="299" cy="126" r="31" fill="black"/>
</g>
<g filter="url(#filter1_f_74_17)">
<circle cx="299" cy="126" r="31" fill="black"/>
</g>
<g filter="url(#filter2_f_74_17)">
<circle cx="299" cy="126" r="31" fill="#D9D9D9" fill-opacity="0.1"/>
</g>
<g clip-path="url(#clip1_74_17)">
<path d="M299.513 113L296.478 122.393L287 125.513L296.435 128.488L299.487 138L302.658 128.573L312 125.487L302.679 122.321" fill="white"/>
</g>
<circle cx="356.61" cy="71.6949" r="22.5949" stroke="white" stroke-opacity="0.5" stroke-width="0.2"/>
<g filter="url(#filter3_f_74_17)">
<circle cx="356.61" cy="71.6949" r="20.6924" fill="#D9D9D9" fill-opacity="0.1"/>
<circle cx="356.61" cy="71.6949" r="20.1924" stroke="black"/>
</g>
<g opacity="0.25">
<path d="M349.409 78.096V67.6942H354.21V65.2938H359.011V67.6942H363.811V78.096H349.409ZM350.209 77.2959H363.011V68.4943H350.209V77.2959ZM355.01 67.6942H358.21V66.0939H355.01V67.6942Z" fill="white"/>
</g>
<circle cx="356.61" cy="179.932" r="22.5949" stroke="white" stroke-opacity="0.5" stroke-width="0.2"/>
<g filter="url(#filter4_f_74_17)">
<circle cx="356.61" cy="179.932" r="20.6924" fill="#D9D9D9" fill-opacity="0.1"/>
</g>
<g opacity="0.25">
<path d="M356.626 187.333C360.713 187.333 364.011 184.019 364.011 179.916C364.011 175.829 360.713 172.531 356.626 172.531M356.626 187.333C352.523 187.333 349.209 184.019 349.209 179.916C349.209 175.829 352.523 172.531 356.626 172.531M356.626 187.333V172.531M363.032 176.232H350.193M363.073 183.543H350.152M349.249 179.932H363.971" stroke="white" stroke-width="0.5" stroke-linecap="round" stroke-linejoin="round"/>
<path d="M356.618 187.333C358.662 187.333 360.311 184.019 360.311 179.916C360.311 175.829 358.662 172.531 356.618 172.531C354.567 172.531 352.91 175.829 352.91 179.916C352.91 184.019 354.567 187.333 356.618 187.333Z" stroke="white" stroke-width="0.5" stroke-linecap="round" stroke-linejoin="round"/>
</g>
<circle cx="241.39" cy="179.932" r="22.5949" stroke="white" stroke-opacity="0.5" stroke-width="0.2"/>
<g filter="url(#filter5_f_74_17)">
<circle cx="241.39" cy="179.932" r="20.6924" fill="#D9D9D9" fill-opacity="0.1"/>
</g>
<g opacity="0.25">
<path d="M239.375 176.542C239.375 177.105 239.151 177.646 238.753 178.044C238.354 178.443 237.814 178.667 237.25 178.667C236.686 178.667 236.146 178.443 235.747 178.044C235.349 177.646 235.125 177.105 235.125 176.542C235.125 175.978 235.349 175.438 235.747 175.039C236.146 174.641 236.686 174.417 237.25 174.417C237.814 174.417 238.354 174.641 238.753 175.039C239.151 175.438 239.375 175.978 239.375 176.542ZM247.875 176.542C247.875 177.105 247.651 177.646 247.253 178.044C246.854 178.443 246.314 178.667 245.75 178.667C245.186 178.667 244.646 178.443 244.247 178.044C243.849 177.646 243.625 177.105 243.625 176.542C243.625 175.978 243.849 175.438 244.247 175.039C244.646 174.641 245.186 174.417 245.75 174.417C246.314 174.417 246.854 174.641 247.253 175.039C247.651 175.438 247.875 175.978 247.875 176.542ZM239.375 186.458C239.375 187.022 239.151 187.562 238.753 187.961C238.354 188.359 237.814 188.583 237.25 188.583C236.686 188.583 236.146 188.359 235.747 187.961C235.349 187.562 235.125 187.022 235.125 186.458C235.125 185.895 235.349 185.354 235.747 184.956C236.146 184.557 236.686 184.333 237.25 184.333C237.814 184.333 238.354 184.557 238.753 184.956C239.151 185.354 239.375 185.895 239.375 186.458Z" stroke="white" stroke-width="1.5"/>
<path d="M237.25 178.667V184.333C237.25 183.673 237.25 183.343 237.358 183.083C237.429 182.911 237.533 182.755 237.665 182.623C237.797 182.492 237.953 182.387 238.125 182.316C238.385 182.208 238.715 182.208 239.375 182.208H243.625C244.285 182.208 244.615 182.208 244.875 182.101C245.047 182.029 245.203 181.925 245.335 181.793C245.467 181.662 245.571 181.506 245.642 181.334C245.75 181.074 245.75 179.327 245.75 178.667" stroke="white" stroke-width="1.5" stroke-linecap="round" stroke-linejoin="round"/>
</g>
<circle cx="241.39" cy="73.4407" r="22.5949" stroke="white" stroke-opacity="0.5" stroke-width="0.2"/>
<g filter="url(#filter6_f_74_17)">
<circle cx="241.39" cy="73.4407" r="20.6924" fill="#D9D9D9" fill-opacity="0.1"/>
</g>
<g opacity="0.25">
<path fill-rule="evenodd" clip-rule="evenodd" d="M238.189 69.44V68.6398C238.189 67.791 238.526 66.9769 239.127 66.3767C239.727 65.7765 240.541 65.4393 241.39 65.4393C242.239 65.4393 243.053 65.7765 243.653 66.3767C244.253 66.9769 244.59 67.791 244.59 68.6398V69.44H246.991C247.433 69.44 247.791 69.7992 247.791 70.2457V79.8482C247.791 80.7284 247.075 81.4421 246.195 81.4421H236.584C236.161 81.4421 235.756 81.2742 235.457 80.9753C235.157 80.6765 234.989 80.2711 234.989 79.8482V70.2465C234.989 69.8 235.345 69.44 235.789 69.44H238.189ZM239.149 69.44H243.63V68.6398C243.63 68.0456 243.394 67.4758 242.974 67.0556C242.554 66.6355 241.984 66.3994 241.39 66.3994C240.796 66.3994 240.226 66.6355 239.806 67.0556C239.385 67.4758 239.149 68.0456 239.149 68.6398V69.44ZM238.189 70.4001H235.949V79.8482C235.949 80.1971 236.234 80.4819 236.584 80.4819H246.195C246.364 80.4819 246.525 80.4152 246.644 80.2964C246.763 80.1776 246.83 80.0164 246.831 79.8482V70.4001H244.59V72.6405H243.63V70.4001H239.149V72.6405H238.189V70.4001Z" fill="white"/>
</g>
<circle cx="214.695" cy="125.814" r="22.5949" stroke="white" stroke-opacity="0.5" stroke-width="0.2"/>
<g filter="url(#filter7_f_74_17)">
<circle cx="214.695" cy="125.814" r="20.6924" fill="#D9D9D9" fill-opacity="0.1"/>
</g>
<g opacity="0.25">
<path d="M220.864 122.645L218.992 124.509L215.991 121.509L217.863 119.644C218.176 119.332 218.696 119.332 218.992 119.644L220.864 121.517C221.176 121.813 221.176 122.333 220.864 122.645ZM207.494 130.014L215.543 121.957L218.544 124.957L210.494 133.015H207.494V130.014ZM218.392 120.245L217.159 121.477L219.032 123.349L220.264 122.117L218.392 120.245ZM217.383 125.013L215.495 123.125L208.294 130.342V132.215H210.166L217.383 125.013Z" fill="white"/>
</g>
<circle cx="385.085" cy="125.814" r="22.5949" stroke="white" stroke-opacity="0.5" stroke-width="0.2"/>
<g filter="url(#filter8_f_74_17)">
<circle cx="385.085" cy="125.814" r="20.6924" fill="#D9D9D9" fill-opacity="0.1"/>
</g>
<g opacity="0.25">
<path d="M391.267 132.572C390.903 131.551 390.099 130.65 388.981 130.006C387.864 129.363 386.494 129.014 385.085 129.014C383.676 129.014 382.306 129.363 381.188 130.006C380.07 130.65 379.266 131.551 378.902 132.572" stroke="white" stroke-linecap="round"/>
<path d="M385.085 125.814C386.852 125.814 388.285 124.381 388.285 122.613C388.285 120.845 386.852 119.412 385.085 119.412C383.317 119.412 381.884 120.845 381.884 122.613C381.884 124.381 383.317 125.814 385.085 125.814Z" stroke="white" stroke-linecap="round"/>
</g>
<path d="M300 92V82C300 76.4772 304.477 72 310 72H334" stroke="white" stroke-opacity="0.5" stroke-width="0.3"/>
<path d="M300 92V82C300 76.4772 304.477 72 310 72H311" stroke="url(#paint5_linear_74_17)" stroke-opacity="0.75" stroke-width="0.3"/>
<path d="M333 126H363" stroke="white" stroke-opacity="0.5" stroke-width="0.3"/>
<path d="M333 126H357" stroke="url(#paint6_linear_74_17)" stroke-opacity="0.75" stroke-width="0.3"/>
<path d="M237 126H265" stroke="white" stroke-opacity="0.5" stroke-width="0.3"/>
<path d="M242 126H265" stroke="url(#paint7_linear_74_17)" stroke-opacity="0.75" stroke-width="0.3"/>
<path d="M300 160V170C300 175.523 295.523 180 290 180H264" stroke="white" stroke-opacity="0.5" stroke-width="0.3"/>
<path d="M300 160V170C300 175.523 295.523 180 290 180H271" stroke="url(#paint8_linear_74_17)" stroke-opacity="0.75" stroke-width="0.3"/>
<rect x="299" y="91" width="2" height="2" rx="0.2" fill="#0080FF" fill-opacity="0.75"/>
<rect width="2" height="2" rx="0.2" transform="matrix(1 0 0 -1 299 161)" fill="#00FF09" fill-opacity="0.75"/>
<rect width="2" height="2" rx="0.2" transform="matrix(1 0 0 -1 332 127)" fill="#FFA600" fill-opacity="0.75"/>
<rect width="2" height="2" rx="0.2" transform="matrix(1 0 0 -1 236 127)" fill="#D9D9D9" fill-opacity="0.75"/>
<rect width="2" height="2" rx="0.2" transform="matrix(1 0 0 -1 362 127)" fill="#D9D9D9" fill-opacity="0.75"/>
<rect width="2" height="2" rx="0.2" transform="matrix(1 0 0 -1 264 127)" fill="#FF0000" fill-opacity="0.75"/>
<rect x="263" y="71" width="2" height="2" rx="0.2" fill="#D9D9D9" fill-opacity="0.75"/>
<rect width="2" height="2" rx="0.2" transform="matrix(1 0 0 -1 263 181)" fill="#D9D9D9" fill-opacity="0.75"/>
<rect x="333" y="71" width="2" height="2" rx="0.2" fill="#D9D9D9" fill-opacity="0.75"/>
<rect width="2" height="2" rx="0.2" transform="matrix(1 0 0 -1 333 181)" fill="#D9D9D9" fill-opacity="0.75"/>
</g>
<defs>
<filter id="filter0_f_74_17" x="258" y="85" width="82" height="82" filterUnits="userSpaceOnUse" color-interpolation-filters="sRGB">
<feFlood flood-opacity="0" result="BackgroundImageFix"/>
<feBlend mode="normal" in="SourceGraphic" in2="BackgroundImageFix" result="shape"/>
<feGaussianBlur stdDeviation="5" result="effect1_foregroundBlur_74_17"/>
</filter>
<filter id="filter1_f_74_17" x="258" y="85" width="82" height="82" filterUnits="userSpaceOnUse" color-interpolation-filters="sRGB">
<feFlood flood-opacity="0" result="BackgroundImageFix"/>
<feBlend mode="normal" in="SourceGraphic" in2="BackgroundImageFix" result="shape"/>
<feGaussianBlur stdDeviation="5" result="effect1_foregroundBlur_74_17"/>
</filter>
<filter id="filter2_f_74_17" x="258" y="85" width="82" height="82" filterUnits="userSpaceOnUse" color-interpolation-filters="sRGB">
<feFlood flood-opacity="0" result="BackgroundImageFix"/>
<feBlend mode="normal" in="SourceGraphic" in2="BackgroundImageFix" result="shape"/>
<feGaussianBlur stdDeviation="5" result="effect1_foregroundBlur_74_17"/>
</filter>
<filter id="filter3_f_74_17" x="325.918" y="41.0025" width="61.3849" height="61.3848" filterUnits="userSpaceOnUse" color-interpolation-filters="sRGB">
<feFlood flood-opacity="0" result="BackgroundImageFix"/>
<feBlend mode="normal" in="SourceGraphic" in2="BackgroundImageFix" result="shape"/>
<feGaussianBlur stdDeviation="5" result="effect1_foregroundBlur_74_17"/>
</filter>
<filter id="filter4_f_74_17" x="325.918" y="149.24" width="61.3849" height="61.3849" filterUnits="userSpaceOnUse" color-interpolation-filters="sRGB">
<feFlood flood-opacity="0" result="BackgroundImageFix"/>
<feBlend mode="normal" in="SourceGraphic" in2="BackgroundImageFix" result="shape"/>
<feGaussianBlur stdDeviation="5" result="effect1_foregroundBlur_74_17"/>
</filter>
<filter id="filter5_f_74_17" x="210.697" y="149.24" width="61.3849" height="61.3848" filterUnits="userSpaceOnUse" color-interpolation-filters="sRGB">
<feFlood flood-opacity="0" result="BackgroundImageFix"/>
<feBlend mode="normal" in="SourceGraphic" in2="BackgroundImageFix" result="shape"/>
<feGaussianBlur stdDeviation="5" result="effect1_foregroundBlur_74_17"/>
</filter>
<filter id="filter6_f_74_17" x="210.697" y="42.7482" width="61.3849" height="61.3848" filterUnits="userSpaceOnUse" color-interpolation-filters="sRGB">
<feFlood flood-opacity="0" result="BackgroundImageFix"/>
<feBlend mode="normal" in="SourceGraphic" in2="BackgroundImageFix" result="shape"/>
<feGaussianBlur stdDeviation="5" result="effect1_foregroundBlur_74_17"/>
</filter>
<filter id="filter7_f_74_17" x="184.003" y="95.1211" width="61.3848" height="61.3848" filterUnits="userSpaceOnUse" color-interpolation-filters="sRGB">
<feFlood flood-opacity="0" result="BackgroundImageFix"/>
<feBlend mode="normal" in="SourceGraphic" in2="BackgroundImageFix" result="shape"/>
<feGaussianBlur stdDeviation="5" result="effect1_foregroundBlur_74_17"/>
</filter>
<filter id="filter8_f_74_17" x="354.392" y="95.1211" width="61.3848" height="61.3848" filterUnits="userSpaceOnUse" color-interpolation-filters="sRGB">
<feFlood flood-opacity="0" result="BackgroundImageFix"/>
<feBlend mode="normal" in="SourceGraphic" in2="BackgroundImageFix" result="shape"/>
<feGaussianBlur stdDeviation="5" result="effect1_foregroundBlur_74_17"/>
</filter>
<linearGradient id="paint0_linear_74_17" x1="164" y1="19" x2="411" y2="76.5" gradientUnits="userSpaceOnUse">
<stop stop-color="#0080FF"/>
<stop offset="1" stop-color="#004D99"/>
</linearGradient>
<linearGradient id="paint1_linear_74_17" x1="121.5" y1="29" x2="151.5" y2="210.5" gradientUnits="userSpaceOnUse">
<stop stop-color="#FF0000"/>
<stop offset="1" stop-color="#990000"/>
</linearGradient>
<linearGradient id="paint2_linear_74_17" x1="472" y1="21.5" x2="470" y2="220.5" gradientUnits="userSpaceOnUse">
<stop stop-color="#FFA600"/>
<stop offset="1" stop-color="#996300"/>
</linearGradient>
<linearGradient id="paint3_linear_74_17" x1="180" y1="178" x2="427.5" y2="212.5" gradientUnits="userSpaceOnUse">
<stop stop-color="#00FF09"/>
<stop offset="1" stop-color="#009905"/>
</linearGradient>
<linearGradient id="paint4_linear_74_17" x1="299" y1="92" x2="299" y2="160" gradientUnits="userSpaceOnUse">
<stop stop-color="#0080FF"/>
<stop offset="0.37635" stop-color="#FF0000"/>
<stop offset="0.538462" stop-color="#FFA600"/>
<stop offset="1" stop-color="#00FF09"/>
</linearGradient>
<linearGradient id="paint5_linear_74_17" x1="309" y1="72" x2="299.5" y2="83.5" gradientUnits="userSpaceOnUse">
<stop stop-color="#0080FF"/>
<stop offset="1" stop-color="#01203E"/>
</linearGradient>
<linearGradient id="paint6_linear_74_17" x1="333" y1="126.5" x2="357" y2="126.5" gradientUnits="userSpaceOnUse">
<stop stop-color="#FFA600"/>
<stop offset="1" stop-color="#996300"/>
</linearGradient>
<linearGradient id="paint7_linear_74_17" x1="242" y1="126.5" x2="265" y2="126.5" gradientUnits="userSpaceOnUse">
<stop stop-color="#FF0000"/>
<stop offset="1" stop-color="#990000"/>
</linearGradient>
<linearGradient id="paint8_linear_74_17" x1="301.5" y1="164" x2="294.5" y2="178" gradientUnits="userSpaceOnUse">
<stop stop-color="#00FF09"/>
<stop offset="1" stop-color="#009905"/>
</linearGradient>
<clipPath id="clip0_74_17">
<rect width="600" height="250" fill="white"/>
</clipPath>
<clipPath id="clip1_74_17">
<rect width="25" height="25" fill="white" transform="translate(287 113)"/>
</clipPath>
</defs>
</svg>
