<svg width="356" height="248" viewBox="0 0 356 248" fill="none" xmlns="http://www.w3.org/2000/svg">
<g clip-path="url(#clip0_78_206)">
<path d="M90.7285 62.9083V62.9684C90.7287 63.6046 90.6067 64.2346 90.3696 64.8224C90.1325 65.4102 89.7848 65.9443 89.3465 66.3942C88.9082 66.844 88.3878 67.2008 87.815 67.4442C87.2423 67.6876 86.6284 67.8127 86.0085 67.8125C85.3886 67.8128 84.7746 67.6877 84.2018 67.4444C83.629 67.2011 83.1085 66.8443 82.6701 66.3945C82.2317 65.9446 81.8839 65.4104 81.6468 64.8226C81.4096 64.2347 81.2876 63.6046 81.2878 62.9684V58.0324C81.2875 57.3961 81.4094 56.7659 81.6465 56.178C81.8837 55.59 82.2314 55.0558 82.6698 54.6058C83.1082 54.1559 83.6287 53.799 84.2016 53.5556C84.7745 53.3123 85.3885 53.1872 86.0085 53.1875C86.6285 53.1873 87.2424 53.3125 87.8152 53.5559C88.388 53.7993 88.9084 54.1562 89.3468 54.6061C89.7851 55.0561 90.1327 55.5903 90.3698 56.1782C90.6069 56.7661 90.7288 57.3962 90.7285 58.0324V58.0918M100.706 64.1563C100.706 66.1753 99.1225 67.8125 97.1702 67.8125H95.9289C94.6353 67.8125 93.5872 66.7278 93.5872 65.3904C93.5872 64.0523 94.6353 62.9676 95.9289 62.9676H100.712" stroke="white" stroke-opacity="0.2" stroke-width="0.5" stroke-linecap="round" stroke-linejoin="round"/>
<path d="M94.4778 59.083C95.3359 58.2006 95.9376 58.1234 97.5946 58.1234C99.4756 58.1234 100.712 58.9725 100.712 61.2678V67.8125" stroke="white" stroke-opacity="0.2" stroke-width="0.5" stroke-linecap="round" stroke-linejoin="round"/>
<path d="M102.479 45.4688H79.5208C77.7719 45.4688 76.3542 46.9238 76.3542 48.7188V72.2812C76.3542 74.0762 77.7719 75.5312 79.5208 75.5312H102.479C104.228 75.5312 105.646 74.0762 105.646 72.2812V48.7188C105.646 46.9238 104.228 45.4688 102.479 45.4688Z" stroke="white" stroke-opacity="0.2" stroke-width="0.5" stroke-linecap="round" stroke-linejoin="round"/>
<path d="M245.479 133.354H222.521C220.772 133.354 219.354 134.772 219.354 136.521V159.479C219.354 161.228 220.772 162.646 222.521 162.646H245.479C247.228 162.646 248.646 161.228 248.646 159.479V136.521C248.646 134.772 247.228 133.354 245.479 133.354Z" stroke="white" stroke-opacity="0.2" stroke-width="0.5" stroke-linecap="round" stroke-linejoin="round"/>
<path d="M224.5 138.5H230.607V144.607H224.5V138.5ZM237.393 138.5H243.5V144.607H237.393V138.5ZM237.393 151.393H243.5V157.5H237.393V151.393ZM224.5 151.393H230.607V157.5H224.5V151.393Z" stroke="white" stroke-opacity="0.2" stroke-width="0.5" stroke-linecap="round" stroke-linejoin="round"/>
<path d="M243.5 144.607L230.607 151.393M230.607 151.393L237.393 138.5M230.607 151.393L224.5 144.607M230.607 151.393V144.607M230.607 151.393L237.393 157.5M230.607 151.393H237.393" stroke="white" stroke-opacity="0.2" stroke-width="0.5" stroke-linecap="round" stroke-linejoin="round"/>
<path d="M34.2812 46.4688H10.7188C8.92382 46.4688 7.46875 47.9238 7.46875 49.7188V73.2812C7.46875 75.0762 8.92382 76.5312 10.7188 76.5312H34.2812C36.0762 76.5312 37.5312 75.0762 37.5312 73.2812V49.7188C37.5312 47.9238 36.0762 46.4688 34.2812 46.4688Z" stroke="white" stroke-opacity="0.2" stroke-width="0.5" stroke-linecap="round" stroke-linejoin="round"/>
<path d="M27.0736 59.1234V68.8125M16.6963 61.5H21.4494M16.6963 68.8125V54.1875H24.0088M27.2458 55.2917L28.3037 55.3551L27.7195 54.4711L27.7837 53.4132L26.8989 53.9966L25.841 53.9332L26.4252 54.818L26.3618 55.8759L27.2458 55.2917Z" stroke="white" stroke-opacity="0.2" stroke-width="0.5" stroke-linecap="round" stroke-linejoin="round"/>
<path d="M264.04 50.4703C265.093 50.4703 265.708 51.2308 265.708 53.3929C265.708 55.5549 264.155 59.8953 262.957 62.6895C261.611 65.8282 258.141 72.6166 255.904 72.5289C254.885 72.4891 254.348 71.9276 254.314 71.0582C254.275 70.0784 254.975 69.4698 256.328 68.5314C258.554 66.9876 261.846 65.8826 265.203 64.9759C268.54 64.074 269.439 63.7856 272.264 63.7856C275.088 63.7856 275.688 64.7614 275.688 65.738C275.688 66.7146 274.882 67.2549 273.859 67.2549C272.736 67.2549 270.668 67.246 266.571 62.2093C262.921 57.7186 262.58 55.0601 262.58 53.1377C262.58 51.2154 263.015 50.4703 264.04 50.4703Z" stroke="white" stroke-opacity="0.2" stroke-width="0.5" stroke-linecap="round" stroke-linejoin="round"/>
<path d="M276.479 46.4688H253.521C252.681 46.4688 251.876 46.8112 251.282 47.4207C250.688 48.0301 250.354 48.8568 250.354 49.7188V73.2812C250.354 74.1432 250.688 74.9699 251.282 75.5793C251.876 76.1888 252.681 76.5312 253.521 76.5312H276.479C277.319 76.5312 278.124 76.1888 278.718 75.5793C279.312 74.9699 279.646 74.1432 279.646 73.2812V49.7188C279.646 48.8568 279.312 48.0301 278.718 47.4207C278.124 46.8112 277.319 46.4688 276.479 46.4688Z" stroke="white" stroke-opacity="0.2" stroke-width="0.5" stroke-linecap="round" stroke-linejoin="round"/>
<path d="M211.833 46.8333H144.167C139.012 46.8333 134.833 51.012 134.833 56.1667V123.833C134.833 128.988 139.012 133.167 144.167 133.167H211.833C216.988 133.167 221.167 128.988 221.167 123.833V56.1667C221.167 51.012 216.988 46.8333 211.833 46.8333Z" stroke="white" stroke-opacity="0.75" stroke-width="0.5" stroke-linecap="round" stroke-linejoin="round"/>
<path d="M191.071 113.333L178.95 84.1503L171.056 103.158H178.651L182.877 113.333H151.86L171.299 66.6667H184.701L204.14 113.333H191.071Z" stroke="white" stroke-opacity="0.75" stroke-width="0.5" stroke-linecap="round" stroke-linejoin="round"/>
<g filter="url(#filter0_f_78_206)">
<rect x="136" y="48" width="83" height="83" rx="5" fill="white" fill-opacity="0.05"/>
</g>
<path d="M311.281 13.3542H287.719C285.924 13.3542 284.469 14.7719 284.469 16.5208V39.4792C284.469 41.2281 285.924 42.6458 287.719 42.6458H311.281C313.076 42.6458 314.531 41.2281 314.531 39.4792V16.5208C314.531 14.7719 313.076 13.3542 311.281 13.3542Z" stroke="white" stroke-opacity="0.2" stroke-width="0.5" stroke-linecap="round" stroke-linejoin="round"/>
<path d="M299.5 39.0833C305.782 39.0833 310.875 34.1211 310.875 28C310.875 21.8788 305.782 16.9167 299.5 16.9167C293.218 16.9167 288.125 21.8788 288.125 28C288.125 34.1211 293.218 39.0833 299.5 39.0833Z" stroke="white" stroke-opacity="0.2" stroke-width="0.5" stroke-linecap="round" stroke-linejoin="round"/>
<path d="M291.037 30.3362L293.61 28.2122L296.033 29.7757L300.696 25.5862L302.997 27.3865L307.237 24.2M292.899 34.9041V31.0828M296.2 36.63V31.7026M299.5 37.2047V29.239M302.8 36.63V29.4313M306.101 34.5796V27.7934" stroke="white" stroke-opacity="0.2" stroke-width="0.5" stroke-linecap="round" stroke-linejoin="round"/>
<path d="M345.479 47.3542H322.521C320.772 47.3542 319.354 48.7719 319.354 50.5208V73.4792C319.354 75.2281 320.772 76.6458 322.521 76.6458H345.479C347.228 76.6458 348.646 75.2281 348.646 73.4792V50.5208C348.646 48.7719 347.228 47.3542 345.479 47.3542Z" stroke="white" stroke-opacity="0.2" stroke-width="0.5" stroke-linecap="round" stroke-linejoin="round"/>
<path d="M325.136 69.125V54.875H329.801C332.438 54.875 334.576 57.018 334.576 59.6606C334.576 62.3032 332.439 64.4463 329.801 64.4463H325.136M336.78 68.3286C337.431 68.8748 338.133 69.125 339.71 69.125H340.509C341.134 69.124 341.733 68.8748 342.175 68.4323C342.617 67.9899 342.865 67.3902 342.864 66.765C342.865 66.14 342.617 65.5405 342.175 65.098C341.734 64.6556 341.135 64.4063 340.51 64.4051H338.911C338.286 64.4038 337.686 64.1545 337.245 63.7119C336.804 63.2692 336.556 62.6695 336.556 62.0443C336.556 61.4193 336.804 60.8198 337.245 60.3773C337.687 59.9349 338.286 59.6856 338.911 59.6844H339.71C341.287 59.6844 341.99 59.9345 342.64 60.4808" stroke="white" stroke-opacity="0.2" stroke-width="0.5" stroke-linecap="round" stroke-linejoin="round"/>
<path d="M68.4792 11.4688H45.5208C43.7719 11.4688 42.3542 12.9238 42.3542 14.7188V38.2812C42.3542 40.0762 43.7719 41.5312 45.5208 41.5312H68.4792C70.2281 41.5312 71.6458 40.0762 71.6458 38.2812V14.7188C71.6458 12.9238 70.2281 11.4688 68.4792 11.4688Z" stroke="white" stroke-opacity="0.2" stroke-width="0.5" stroke-linecap="round" stroke-linejoin="round"/>
<path d="M50.1632 19.1875V33.8125H57.2882M60.2743 27.7797C60.2743 26.81 60.6497 25.88 61.3178 25.1943C61.9859 24.5086 62.892 24.1234 63.8368 24.1234M60.2743 24.1234V33.8125" stroke="white" stroke-opacity="0.2" stroke-width="0.5" stroke-linecap="round" stroke-linejoin="round"/>
<path d="M112.134 156.065C118.688 156.912 122.566 155.553 124.224 152.547C124.774 151.552 123.623 150.146 122.269 151.757C120.466 153.9 121.752 159.139 126.389 153.755C125.474 156.504 126.279 156.593 128.303 154.795M122.351 139.688L126.076 143.35L116.525 152.964L111.697 154.025L113.029 149.218L122.351 139.688Z" stroke="white" stroke-opacity="0.2" stroke-width="0.5" stroke-linecap="round" stroke-linejoin="round"/>
<path d="M131.479 133.354H108.521C106.772 133.354 105.354 134.772 105.354 136.521V159.479C105.354 161.228 106.772 162.646 108.521 162.646H131.479C133.228 162.646 134.646 161.228 134.646 159.479V136.521C134.646 134.772 133.228 133.354 131.479 133.354Z" stroke="white" stroke-opacity="0.2" stroke-width="0.5" stroke-linecap="round" stroke-linejoin="round"/>
<line x1="235" y1="132.95" x2="390" y2="132.95" stroke="#FF0000" stroke-opacity="0.8" stroke-width="0.1"/>
<line x1="249.05" y1="-9" x2="249.05" y2="156" stroke="#0080FF" stroke-opacity="0.8" stroke-width="0.1"/>
<line x1="106.05" y1="47" x2="106.05" y2="280" stroke="#0080FF" stroke-opacity="0.8" stroke-width="0.1"/>
<line x1="192.495" y1="163.555" x2="-40.505" y2="163.555" stroke="#FFA600" stroke-opacity="0.8" stroke-width="0.1"/>
<line x1="78" y1="45.95" x2="192" y2="45.95" stroke="#FFA600" stroke-opacity="0.8" stroke-width="0.1"/>
<line x1="10" y1="76.95" x2="124" y2="76.95" stroke="#0080FF" stroke-opacity="0.8" stroke-width="0.1"/>
<line x1="253" y1="76.95" x2="367" y2="76.95" stroke="#FFA600" stroke-opacity="0.8" stroke-width="0.1"/>
<line x1="38.05" y1="49" x2="38.05" y2="193" stroke="#FF0000" stroke-opacity="0.8" stroke-width="0.1"/>
<line x1="319.05" y1="49" x2="319.05" y2="193" stroke="#00FF09" stroke-opacity="0.8" stroke-width="0.1"/>
<line x1="284.05" y1="19" x2="284.05" y2="225" stroke="#FFA600" stroke-opacity="0.8" stroke-width="0.1"/>
<line x1="358" y1="201.05" x2="152" y2="201.05" stroke="#00FF09" stroke-opacity="0.8" stroke-width="0.1"/>
<line x1="234" y1="225.05" x2="88" y2="225.05" stroke="#FF0000" stroke-opacity="0.8" stroke-width="0.1"/>
<line x1="218.95" y1="180" x2="218.95" y2="145" stroke="white" stroke-opacity="0.5" stroke-width="0.1"/>
<line x1="72.05" y1="24" x2="72.05" y2="129" stroke="#00FF09" stroke-opacity="0.8" stroke-width="0.1"/>
</g>
<defs>
<filter id="filter0_f_78_206" x="126" y="38" width="103" height="103" filterUnits="userSpaceOnUse" color-interpolation-filters="sRGB">
<feFlood flood-opacity="0" result="BackgroundImageFix"/>
<feBlend mode="normal" in="SourceGraphic" in2="BackgroundImageFix" result="shape"/>
<feGaussianBlur stdDeviation="5" result="effect1_foregroundBlur_78_206"/>
</filter>
<clipPath id="clip0_78_206">
<rect width="356" height="248" fill="white"/>
</clipPath>
</defs>
</svg>
