<svg width="356" height="248" viewBox="0 0 356 248" fill="none" xmlns="http://www.w3.org/2000/svg">
<g clip-path="url(#clip0_78_140)">
<g filter="url(#filter0_d_78_140)">
<rect x="24.15" y="88.15" width="70.7" height="70.7" rx="4.85" stroke="#FFA600" stroke-opacity="0.3" stroke-width="0.3" shape-rendering="crispEdges"/>
</g>
<g filter="url(#filter1_d_78_140)">
<rect x="99.15" y="89.15" width="70.7" height="70.7" rx="4.85" stroke="white" stroke-opacity="0.3" stroke-width="0.3" shape-rendering="crispEdges"/>
</g>
<g filter="url(#filter2_d_78_140)">
<rect x="174.15" y="13.15" width="70.7" height="70.7" rx="4.85" stroke="white" stroke-opacity="0.3" stroke-width="0.3" shape-rendering="crispEdges"/>
</g>
<g filter="url(#filter3_d_78_140)">
<rect x="-50.85" y="14.15" width="70.7" height="70.7" rx="4.85" stroke="white" stroke-opacity="0.3" stroke-width="0.3" shape-rendering="crispEdges"/>
</g>
<g filter="url(#filter4_d_78_140)">
<rect x="24.15" y="164.15" width="70.7" height="70.7" rx="4.85" stroke="white" stroke-opacity="0.3" stroke-width="0.3" shape-rendering="crispEdges"/>
</g>
<g filter="url(#filter5_d_78_140)">
<rect x="324.15" y="13.15" width="70.7" height="70.7" rx="4.85" stroke="white" stroke-opacity="0.3" stroke-width="0.3" shape-rendering="crispEdges"/>
</g>
<g filter="url(#filter6_d_78_140)">
<rect x="174.15" y="164.15" width="70.7" height="70.7" rx="4.85" stroke="white" stroke-opacity="0.3" stroke-width="0.3" shape-rendering="crispEdges"/>
</g>
<g filter="url(#filter7_d_78_140)">
<rect x="324.15" y="89.15" width="70.7" height="70.7" rx="4.85" stroke="white" stroke-opacity="0.3" stroke-width="0.3" shape-rendering="crispEdges"/>
</g>
<g filter="url(#filter8_f_78_140)">
<rect x="25" y="89" width="68" height="68" rx="5" fill="white" fill-opacity="0.05"/>
</g>
<g clip-path="url(#clip1_78_140)">
<path d="M59.9883 107.483H60.0223C61.2941 107.483 62.4735 107.909 63.4191 108.623H63.4244C64.0782 109.116 64.6179 109.744 65.0065 110.465L71.3316 121.472L71.3698 121.56L76.2116 129.961C76.7269 130.83 76.9979 131.826 76.9979 132.844C76.9979 133.642 76.8321 134.405 76.5336 135.097L76.5389 135.119C76.3133 135.632 76.0109 136.108 75.6421 136.53C75.2219 137.021 74.7202 137.437 74.1589 137.758C73.3215 138.245 72.3722 138.506 71.4038 138.516H71.3092C70.0831 138.516 68.8904 138.115 67.9124 137.376H67.9071C67.2533 136.883 66.7137 136.255 66.3251 135.534L60 124.527L59.9618 124.439L55.0966 115.999C54.5941 115.136 54.3304 114.154 54.3326 113.155C54.3326 112.557 54.4261 111.977 54.5993 111.434L54.6089 111.4L54.6259 111.356C54.6981 111.135 54.7916 110.88 54.7916 110.88C55.0152 110.374 55.3135 109.904 55.6767 109.486L55.7659 109.381L55.7872 109.359V109.353H55.7925L55.8042 109.336L55.8159 109.332C56.2085 108.9 56.6659 108.532 57.1716 108.241C58.009 107.754 58.9583 107.493 59.9267 107.483H59.9883ZM48.678 138.517H48.5941C47.6259 138.505 46.677 138.244 45.839 137.759C45.2738 137.437 44.7765 137.019 44.3558 136.531C43.987 136.109 43.6846 135.633 43.459 135.12L43.4643 135.098C43.1562 134.387 42.9982 133.62 43 132.845C43 131.788 43.2879 130.804 43.7863 129.963L48.6281 121.561L48.6663 121.473L52.9716 113.986C53.0768 114.898 53.3583 115.795 53.8131 116.613L53.8949 116.752L58.6761 125.047V125.031L58.7707 125.235L59.1798 125.955L53.6728 135.534C53.2842 136.255 52.7445 136.883 52.0908 137.376H52.0854C51.1082 138.117 49.9151 138.517 48.6886 138.516L48.678 138.517Z" fill="white" fill-opacity="0.75"/>
</g>
<g filter="url(#filter9_d_78_140)">
<rect x="174.15" y="89.15" width="70.7" height="70.7" rx="4.85" stroke="#0B00D6" stroke-opacity="0.3" stroke-width="0.3" shape-rendering="crispEdges"/>
</g>
<g filter="url(#filter10_f_78_140)">
<rect x="175" y="90" width="68" height="68" rx="5" fill="white" fill-opacity="0.05"/>
</g>
<path d="M208.5 120.861C211.852 115.314 214.793 112.541 217.324 112.542C221.119 112.542 223.516 116.953 224.915 122.939C226.251 128.658 225.865 136.458 221.119 136.458C219.005 136.458 216.094 133.339 213.244 129.181C211.427 126.549 209.84 123.766 208.5 120.861ZM208.5 120.861C204.812 115.314 201.577 112.541 198.795 112.542C194.618 112.542 191.982 116.953 190.441 122.939C188.974 128.66 189.401 136.458 194.62 136.458C196.947 136.458 200.15 133.339 203.281 129.181C205.367 126.405 207.107 123.632 208.5 120.861Z" stroke="white" stroke-opacity="0.75" stroke-width="1.5" stroke-linecap="round" stroke-linejoin="round"/>
<g filter="url(#filter11_d_78_140)">
<rect x="249.15" y="164.15" width="70.7" height="70.7" rx="4.85" stroke="#00F7FF" stroke-opacity="0.3" stroke-width="0.3" shape-rendering="crispEdges"/>
</g>
<g filter="url(#filter12_f_78_140)">
<rect x="250" y="165" width="68" height="68" rx="5" fill="white" fill-opacity="0.05"/>
</g>
<g filter="url(#filter13_d_78_140)">
<rect x="99.15" y="14.15" width="70.7" height="70.7" rx="4.85" stroke="#C600E9" stroke-opacity="0.3" stroke-width="0.3" shape-rendering="crispEdges"/>
</g>
<g filter="url(#filter14_f_78_140)">
<rect x="100" y="15" width="68" height="68" rx="5" fill="white" fill-opacity="0.05"/>
</g>
<g filter="url(#filter15_d_78_140)">
<rect x="249.15" y="13.15" width="70.7" height="70.7" rx="4.85" stroke="#00BB06" stroke-opacity="0.3" stroke-width="0.3" shape-rendering="crispEdges"/>
</g>
<g filter="url(#filter16_f_78_140)">
<rect x="250" y="14" width="68" height="68" rx="5" fill="white" fill-opacity="0.05"/>
</g>
<path fill-rule="evenodd" clip-rule="evenodd" d="M297.124 43.7174C297.687 44.0455 298.179 44.4811 298.573 44.9995C298.967 45.5178 299.255 46.1087 299.421 46.7385C299.587 47.3682 299.627 48.0244 299.539 48.6697C299.451 49.3149 299.237 49.9365 298.909 50.499L293.951 58.999C293.623 59.5615 293.187 60.0538 292.669 60.448C292.15 60.8421 291.559 61.1303 290.93 61.296C290.3 61.4618 289.644 61.5019 288.998 61.414C288.353 61.3262 287.732 61.1121 287.169 60.784C286.607 60.4559 286.114 60.0203 285.72 59.5019C285.326 58.9835 285.038 58.3926 284.872 57.7629C284.706 57.1332 284.666 56.477 284.754 55.8317C284.842 55.1865 285.056 54.5649 285.384 54.0024L290.342 45.5024C290.67 44.9399 291.106 44.4475 291.624 44.0534C292.143 43.6592 292.734 43.371 293.363 43.2053C293.993 43.0395 294.649 42.9994 295.295 43.0873C295.94 43.1752 296.562 43.3893 297.124 43.7174Z" fill="white" fill-opacity="0.75"/>
<path d="M268.417 56.5C268.417 57.815 268.939 59.0762 269.869 60.0061C270.799 60.9359 272.06 61.4583 273.375 61.4583C274.69 61.4583 275.951 60.9359 276.881 60.0061C277.811 59.0762 278.333 57.815 278.333 56.5C278.333 55.185 277.811 53.9238 276.881 52.9939C275.951 52.0641 274.69 51.5417 273.375 51.5417C272.06 51.5417 270.799 52.0641 269.869 52.9939C268.939 53.9238 268.417 55.185 268.417 56.5Z" fill="white" fill-opacity="0.75"/>
<path fill-rule="evenodd" clip-rule="evenodd" d="M288.295 40.5625C288.953 39.4233 289.131 38.0696 288.79 36.7991C288.45 35.5286 287.618 34.4455 286.479 33.788C285.34 33.1305 283.986 32.9524 282.716 33.293C281.445 33.6336 280.362 34.465 279.705 35.6042L271.084 50.55C271.971 50.2082 272.924 50.0691 273.872 50.1431C274.82 50.217 275.739 50.502 276.563 50.9773C277.386 51.4525 278.093 52.106 278.631 52.8897C279.169 53.6735 279.526 54.5677 279.674 55.5069L288.295 40.5625Z" fill="white" fill-opacity="0.75"/>
<path d="M276.086 188.001C276.086 188.797 275.765 189.56 275.194 190.122C274.623 190.684 273.849 191 273.042 191C272.234 190.999 271.461 190.683 270.89 190.12C270.32 189.557 270 188.794 270 187.998C270 187.203 270.321 186.44 270.892 185.878C271.463 185.315 272.237 185 273.045 185C273.852 185 274.625 185.317 275.196 185.88C275.766 186.443 276.086 187.206 276.086 188.001ZM276.177 193.221H270.091V212H276.177V193.221ZM285.793 193.221H279.738V212H285.732V202.146C285.732 196.656 292.99 196.146 292.99 202.146V212H299V200.106C299 190.851 288.258 191.196 285.732 195.741L285.793 193.221Z" fill="white" fill-opacity="0.75"/>
<path d="M140.9 40.73C139.875 39.5593 139.31 38.0561 139.31 36.5H134.675V55.1C134.64 56.1068 134.215 57.0606 133.49 57.7602C132.766 58.4599 131.797 58.8506 130.79 58.85C128.66 58.85 126.89 57.11 126.89 54.95C126.89 52.37 129.38 50.435 131.945 51.23V46.49C126.77 45.8 122.24 49.82 122.24 54.95C122.24 59.945 126.38 63.5 130.775 63.5C135.485 63.5 139.31 59.675 139.31 54.95V45.515C141.189 46.8648 143.446 47.589 145.76 47.585V42.95C145.76 42.95 142.94 43.085 140.9 40.73Z" fill="white" fill-opacity="0.75"/>
<g filter="url(#filter17_d_78_140)">
<rect x="249.15" y="239.15" width="70.7" height="70.7" rx="4.85" stroke="white" stroke-opacity="0.3" stroke-width="0.3" shape-rendering="crispEdges"/>
</g>
<g filter="url(#filter18_d_78_140)">
<rect x="24.15" y="-62.85" width="70.7" height="70.7" rx="4.85" stroke="white" stroke-opacity="0.3" stroke-width="0.3" shape-rendering="crispEdges"/>
</g>
</g>
<defs>
<filter id="filter0_d_78_140" x="14" y="78" width="91" height="91" filterUnits="userSpaceOnUse" color-interpolation-filters="sRGB">
<feFlood flood-opacity="0" result="BackgroundImageFix"/>
<feColorMatrix in="SourceAlpha" type="matrix" values="0 0 0 0 0 0 0 0 0 0 0 0 0 0 0 0 0 0 127 0" result="hardAlpha"/>
<feOffset/>
<feGaussianBlur stdDeviation="5"/>
<feComposite in2="hardAlpha" operator="out"/>
<feColorMatrix type="matrix" values="0 0 0 0 0 0 0 0 0 0 0 0 0 0 0 0 0 0 0.25 0"/>
<feBlend mode="normal" in2="BackgroundImageFix" result="effect1_dropShadow_78_140"/>
<feBlend mode="normal" in="SourceGraphic" in2="effect1_dropShadow_78_140" result="shape"/>
</filter>
<filter id="filter1_d_78_140" x="89" y="79" width="91" height="91" filterUnits="userSpaceOnUse" color-interpolation-filters="sRGB">
<feFlood flood-opacity="0" result="BackgroundImageFix"/>
<feColorMatrix in="SourceAlpha" type="matrix" values="0 0 0 0 0 0 0 0 0 0 0 0 0 0 0 0 0 0 127 0" result="hardAlpha"/>
<feOffset/>
<feGaussianBlur stdDeviation="5"/>
<feComposite in2="hardAlpha" operator="out"/>
<feColorMatrix type="matrix" values="0 0 0 0 0 0 0 0 0 0 0 0 0 0 0 0 0 0 0.25 0"/>
<feBlend mode="normal" in2="BackgroundImageFix" result="effect1_dropShadow_78_140"/>
<feBlend mode="normal" in="SourceGraphic" in2="effect1_dropShadow_78_140" result="shape"/>
</filter>
<filter id="filter2_d_78_140" x="164" y="3" width="91" height="91" filterUnits="userSpaceOnUse" color-interpolation-filters="sRGB">
<feFlood flood-opacity="0" result="BackgroundImageFix"/>
<feColorMatrix in="SourceAlpha" type="matrix" values="0 0 0 0 0 0 0 0 0 0 0 0 0 0 0 0 0 0 127 0" result="hardAlpha"/>
<feOffset/>
<feGaussianBlur stdDeviation="5"/>
<feComposite in2="hardAlpha" operator="out"/>
<feColorMatrix type="matrix" values="0 0 0 0 0 0 0 0 0 0 0 0 0 0 0 0 0 0 0.25 0"/>
<feBlend mode="normal" in2="BackgroundImageFix" result="effect1_dropShadow_78_140"/>
<feBlend mode="normal" in="SourceGraphic" in2="effect1_dropShadow_78_140" result="shape"/>
</filter>
<filter id="filter3_d_78_140" x="-61" y="4" width="91" height="91" filterUnits="userSpaceOnUse" color-interpolation-filters="sRGB">
<feFlood flood-opacity="0" result="BackgroundImageFix"/>
<feColorMatrix in="SourceAlpha" type="matrix" values="0 0 0 0 0 0 0 0 0 0 0 0 0 0 0 0 0 0 127 0" result="hardAlpha"/>
<feOffset/>
<feGaussianBlur stdDeviation="5"/>
<feComposite in2="hardAlpha" operator="out"/>
<feColorMatrix type="matrix" values="0 0 0 0 0 0 0 0 0 0 0 0 0 0 0 0 0 0 0.25 0"/>
<feBlend mode="normal" in2="BackgroundImageFix" result="effect1_dropShadow_78_140"/>
<feBlend mode="normal" in="SourceGraphic" in2="effect1_dropShadow_78_140" result="shape"/>
</filter>
<filter id="filter4_d_78_140" x="14" y="154" width="91" height="91" filterUnits="userSpaceOnUse" color-interpolation-filters="sRGB">
<feFlood flood-opacity="0" result="BackgroundImageFix"/>
<feColorMatrix in="SourceAlpha" type="matrix" values="0 0 0 0 0 0 0 0 0 0 0 0 0 0 0 0 0 0 127 0" result="hardAlpha"/>
<feOffset/>
<feGaussianBlur stdDeviation="5"/>
<feComposite in2="hardAlpha" operator="out"/>
<feColorMatrix type="matrix" values="0 0 0 0 0 0 0 0 0 0 0 0 0 0 0 0 0 0 0.25 0"/>
<feBlend mode="normal" in2="BackgroundImageFix" result="effect1_dropShadow_78_140"/>
<feBlend mode="normal" in="SourceGraphic" in2="effect1_dropShadow_78_140" result="shape"/>
</filter>
<filter id="filter5_d_78_140" x="314" y="3" width="91" height="91" filterUnits="userSpaceOnUse" color-interpolation-filters="sRGB">
<feFlood flood-opacity="0" result="BackgroundImageFix"/>
<feColorMatrix in="SourceAlpha" type="matrix" values="0 0 0 0 0 0 0 0 0 0 0 0 0 0 0 0 0 0 127 0" result="hardAlpha"/>
<feOffset/>
<feGaussianBlur stdDeviation="5"/>
<feComposite in2="hardAlpha" operator="out"/>
<feColorMatrix type="matrix" values="0 0 0 0 0 0 0 0 0 0 0 0 0 0 0 0 0 0 0.25 0"/>
<feBlend mode="normal" in2="BackgroundImageFix" result="effect1_dropShadow_78_140"/>
<feBlend mode="normal" in="SourceGraphic" in2="effect1_dropShadow_78_140" result="shape"/>
</filter>
<filter id="filter6_d_78_140" x="164" y="154" width="91" height="91" filterUnits="userSpaceOnUse" color-interpolation-filters="sRGB">
<feFlood flood-opacity="0" result="BackgroundImageFix"/>
<feColorMatrix in="SourceAlpha" type="matrix" values="0 0 0 0 0 0 0 0 0 0 0 0 0 0 0 0 0 0 127 0" result="hardAlpha"/>
<feOffset/>
<feGaussianBlur stdDeviation="5"/>
<feComposite in2="hardAlpha" operator="out"/>
<feColorMatrix type="matrix" values="0 0 0 0 0 0 0 0 0 0 0 0 0 0 0 0 0 0 0.25 0"/>
<feBlend mode="normal" in2="BackgroundImageFix" result="effect1_dropShadow_78_140"/>
<feBlend mode="normal" in="SourceGraphic" in2="effect1_dropShadow_78_140" result="shape"/>
</filter>
<filter id="filter7_d_78_140" x="314" y="79" width="91" height="91" filterUnits="userSpaceOnUse" color-interpolation-filters="sRGB">
<feFlood flood-opacity="0" result="BackgroundImageFix"/>
<feColorMatrix in="SourceAlpha" type="matrix" values="0 0 0 0 0 0 0 0 0 0 0 0 0 0 0 0 0 0 127 0" result="hardAlpha"/>
<feOffset/>
<feGaussianBlur stdDeviation="5"/>
<feComposite in2="hardAlpha" operator="out"/>
<feColorMatrix type="matrix" values="0 0 0 0 0 0 0 0 0 0 0 0 0 0 0 0 0 0 0.25 0"/>
<feBlend mode="normal" in2="BackgroundImageFix" result="effect1_dropShadow_78_140"/>
<feBlend mode="normal" in="SourceGraphic" in2="effect1_dropShadow_78_140" result="shape"/>
</filter>
<filter id="filter8_f_78_140" x="15" y="79" width="88" height="88" filterUnits="userSpaceOnUse" color-interpolation-filters="sRGB">
<feFlood flood-opacity="0" result="BackgroundImageFix"/>
<feBlend mode="normal" in="SourceGraphic" in2="BackgroundImageFix" result="shape"/>
<feGaussianBlur stdDeviation="5" result="effect1_foregroundBlur_78_140"/>
</filter>
<filter id="filter9_d_78_140" x="164" y="79" width="91" height="91" filterUnits="userSpaceOnUse" color-interpolation-filters="sRGB">
<feFlood flood-opacity="0" result="BackgroundImageFix"/>
<feColorMatrix in="SourceAlpha" type="matrix" values="0 0 0 0 0 0 0 0 0 0 0 0 0 0 0 0 0 0 127 0" result="hardAlpha"/>
<feOffset/>
<feGaussianBlur stdDeviation="5"/>
<feComposite in2="hardAlpha" operator="out"/>
<feColorMatrix type="matrix" values="0 0 0 0 0 0 0 0 0 0 0 0 0 0 0 0 0 0 0.25 0"/>
<feBlend mode="normal" in2="BackgroundImageFix" result="effect1_dropShadow_78_140"/>
<feBlend mode="normal" in="SourceGraphic" in2="effect1_dropShadow_78_140" result="shape"/>
</filter>
<filter id="filter10_f_78_140" x="165" y="80" width="88" height="88" filterUnits="userSpaceOnUse" color-interpolation-filters="sRGB">
<feFlood flood-opacity="0" result="BackgroundImageFix"/>
<feBlend mode="normal" in="SourceGraphic" in2="BackgroundImageFix" result="shape"/>
<feGaussianBlur stdDeviation="5" result="effect1_foregroundBlur_78_140"/>
</filter>
<filter id="filter11_d_78_140" x="239" y="154" width="91" height="91" filterUnits="userSpaceOnUse" color-interpolation-filters="sRGB">
<feFlood flood-opacity="0" result="BackgroundImageFix"/>
<feColorMatrix in="SourceAlpha" type="matrix" values="0 0 0 0 0 0 0 0 0 0 0 0 0 0 0 0 0 0 127 0" result="hardAlpha"/>
<feOffset/>
<feGaussianBlur stdDeviation="5"/>
<feComposite in2="hardAlpha" operator="out"/>
<feColorMatrix type="matrix" values="0 0 0 0 0 0 0 0 0 0 0 0 0 0 0 0 0 0 0.25 0"/>
<feBlend mode="normal" in2="BackgroundImageFix" result="effect1_dropShadow_78_140"/>
<feBlend mode="normal" in="SourceGraphic" in2="effect1_dropShadow_78_140" result="shape"/>
</filter>
<filter id="filter12_f_78_140" x="240" y="155" width="88" height="88" filterUnits="userSpaceOnUse" color-interpolation-filters="sRGB">
<feFlood flood-opacity="0" result="BackgroundImageFix"/>
<feBlend mode="normal" in="SourceGraphic" in2="BackgroundImageFix" result="shape"/>
<feGaussianBlur stdDeviation="5" result="effect1_foregroundBlur_78_140"/>
</filter>
<filter id="filter13_d_78_140" x="89" y="4" width="91" height="91" filterUnits="userSpaceOnUse" color-interpolation-filters="sRGB">
<feFlood flood-opacity="0" result="BackgroundImageFix"/>
<feColorMatrix in="SourceAlpha" type="matrix" values="0 0 0 0 0 0 0 0 0 0 0 0 0 0 0 0 0 0 127 0" result="hardAlpha"/>
<feOffset/>
<feGaussianBlur stdDeviation="5"/>
<feComposite in2="hardAlpha" operator="out"/>
<feColorMatrix type="matrix" values="0 0 0 0 0 0 0 0 0 0 0 0 0 0 0 0 0 0 0.25 0"/>
<feBlend mode="normal" in2="BackgroundImageFix" result="effect1_dropShadow_78_140"/>
<feBlend mode="normal" in="SourceGraphic" in2="effect1_dropShadow_78_140" result="shape"/>
</filter>
<filter id="filter14_f_78_140" x="90" y="5" width="88" height="88" filterUnits="userSpaceOnUse" color-interpolation-filters="sRGB">
<feFlood flood-opacity="0" result="BackgroundImageFix"/>
<feBlend mode="normal" in="SourceGraphic" in2="BackgroundImageFix" result="shape"/>
<feGaussianBlur stdDeviation="5" result="effect1_foregroundBlur_78_140"/>
</filter>
<filter id="filter15_d_78_140" x="239" y="3" width="91" height="91" filterUnits="userSpaceOnUse" color-interpolation-filters="sRGB">
<feFlood flood-opacity="0" result="BackgroundImageFix"/>
<feColorMatrix in="SourceAlpha" type="matrix" values="0 0 0 0 0 0 0 0 0 0 0 0 0 0 0 0 0 0 127 0" result="hardAlpha"/>
<feOffset/>
<feGaussianBlur stdDeviation="5"/>
<feComposite in2="hardAlpha" operator="out"/>
<feColorMatrix type="matrix" values="0 0 0 0 0 0 0 0 0 0 0 0 0 0 0 0 0 0 0.25 0"/>
<feBlend mode="normal" in2="BackgroundImageFix" result="effect1_dropShadow_78_140"/>
<feBlend mode="normal" in="SourceGraphic" in2="effect1_dropShadow_78_140" result="shape"/>
</filter>
<filter id="filter16_f_78_140" x="240" y="4" width="88" height="88" filterUnits="userSpaceOnUse" color-interpolation-filters="sRGB">
<feFlood flood-opacity="0" result="BackgroundImageFix"/>
<feBlend mode="normal" in="SourceGraphic" in2="BackgroundImageFix" result="shape"/>
<feGaussianBlur stdDeviation="5" result="effect1_foregroundBlur_78_140"/>
</filter>
<filter id="filter17_d_78_140" x="239" y="229" width="91" height="91" filterUnits="userSpaceOnUse" color-interpolation-filters="sRGB">
<feFlood flood-opacity="0" result="BackgroundImageFix"/>
<feColorMatrix in="SourceAlpha" type="matrix" values="0 0 0 0 0 0 0 0 0 0 0 0 0 0 0 0 0 0 127 0" result="hardAlpha"/>
<feOffset/>
<feGaussianBlur stdDeviation="5"/>
<feComposite in2="hardAlpha" operator="out"/>
<feColorMatrix type="matrix" values="0 0 0 0 0 0 0 0 0 0 0 0 0 0 0 0 0 0 0.25 0"/>
<feBlend mode="normal" in2="BackgroundImageFix" result="effect1_dropShadow_78_140"/>
<feBlend mode="normal" in="SourceGraphic" in2="effect1_dropShadow_78_140" result="shape"/>
</filter>
<filter id="filter18_d_78_140" x="14" y="-73" width="91" height="91" filterUnits="userSpaceOnUse" color-interpolation-filters="sRGB">
<feFlood flood-opacity="0" result="BackgroundImageFix"/>
<feColorMatrix in="SourceAlpha" type="matrix" values="0 0 0 0 0 0 0 0 0 0 0 0 0 0 0 0 0 0 127 0" result="hardAlpha"/>
<feOffset/>
<feGaussianBlur stdDeviation="5"/>
<feComposite in2="hardAlpha" operator="out"/>
<feColorMatrix type="matrix" values="0 0 0 0 0 0 0 0 0 0 0 0 0 0 0 0 0 0 0.25 0"/>
<feBlend mode="normal" in2="BackgroundImageFix" result="effect1_dropShadow_78_140"/>
<feBlend mode="normal" in="SourceGraphic" in2="effect1_dropShadow_78_140" result="shape"/>
</filter>
<clipPath id="clip0_78_140">
<rect width="356" height="248" fill="white"/>
</clipPath>
<clipPath id="clip1_78_140">
<rect width="34" height="34" fill="white" transform="translate(43 106)"/>
</clipPath>
</defs>
</svg>
