<svg width="312" height="133" viewBox="0 0 312 133" fill="none" xmlns="http://www.w3.org/2000/svg">
<g clip-path="url(#clip0_1_3)">
<path d="M1.68438 1.98758C-0.068105 3.93478 -0.165465 5.97934 0.126615 52.9069C0.418695 89.9037 0.710776 101.976 1.68438 102.95C3.53422 104.897 9.76526 104.702 12.0045 102.658C13.757 101.1 13.9517 99.6397 13.9517 89.3196C13.9517 77.9284 13.9517 77.7337 16.6778 75.3971C19.696 72.7684 20.3775 73.0604 24.8561 79.2915C26.4138 81.4334 29.432 85.1331 31.4766 87.5671C33.5211 90.0011 37.7076 94.8691 40.8231 98.4714C45.7885 104.508 46.6647 105.092 49.975 105.092C56.6928 105.092 59.2242 98.2767 54.3562 93.0193C52.9931 91.5589 51.9222 90.1958 51.9222 89.9037C51.9222 89.6117 50.1697 87.3724 48.0278 84.841C37.2208 71.8921 31.4766 64.6875 31.4766 63.6165C31.4766 63.0324 36.9287 57.5802 43.6466 51.5439C54.3562 41.9052 55.8166 40.2501 55.8166 37.524C55.8166 32.9481 53.772 30.7088 49.6829 30.7088C46.9568 30.7088 45.0096 31.7798 40.531 35.4794C37.4155 38.1082 34.0079 41.1263 32.937 42.2947C26.8033 48.331 15.1201 58.2617 14.5359 57.6775C14.2438 57.3855 13.9517 45.1181 13.9517 30.5141V3.93478L11.4204 1.98758C8.11014 -0.641146 4.02102 -0.641146 1.68438 1.98758Z" fill="white"/>
<path d="M143.538 1.59815C141.591 3.25327 141.493 4.32423 141.299 22.0438L141.007 40.8343L135.262 36.9399C128.058 32.0719 123.579 30.8062 113.259 31.0009C103.523 31.1956 101.576 31.5851 95.5395 34.6032C83.2721 40.7369 76.2622 52.9069 76.2622 68.0951C76.2622 88.6381 90.3794 103.729 110.728 104.897C126.889 105.871 139.449 99.5424 146.361 87.0803C151.522 77.7337 152.203 72.4763 152.203 39.1791C152.203 21.849 151.814 6.75824 151.229 4.90839C149.769 -0.25169 147.14 -1.32265 143.538 1.59815ZM125.332 41.8079C129.421 43.7551 134.094 47.6495 137.307 51.836C140.033 55.3409 141.493 60.8904 141.493 67.9977C141.493 77.0522 138.767 83.3806 132.342 89.3196C119.003 101.587 95.1501 96.6216 88.2375 80.0704C84.2457 70.3344 85.9982 56.8987 92.5213 48.9151C95.5395 45.2155 103.036 40.6395 107.904 39.5686C112.48 38.595 120.95 39.6659 125.332 41.8079Z" fill="white"/>
<path d="M65.5526 8.70544C63.3133 10.4579 63.1186 11.1394 63.0212 19.6098C63.0212 24.5751 62.6318 30.4167 62.2424 32.5587C61.8529 34.7006 61.9503 37.0372 62.5344 37.8161C63.8975 39.8607 69.0576 37.4267 70.9074 33.9217C71.6863 32.3639 73.0493 29.8326 73.9256 28.1775C76.0675 24.0883 76.8464 15.3259 75.2886 11.7236C74.6071 9.97112 72.952 8.41336 71.1995 7.8292C67.5972 6.56352 68.4734 6.46616 65.5526 8.70544Z" fill="white"/>
<path d="M188.129 31.0983C181.898 31.5851 179.756 32.2666 175.18 34.9927C164.47 41.5158 159.408 50.6676 158.337 65.369C157.85 72.9631 158.045 74.5209 160.479 81.6281C162.621 87.8592 164.276 90.5853 167.878 94.285C174.109 100.711 181.606 104.216 190.173 104.897C207.698 106.163 225.613 96.9137 218.797 90.0985C216.948 88.1513 215.098 88.1513 213.345 89.8064C210.814 92.3378 199.228 96.3295 194.36 96.3295C181.216 96.2322 168.754 85.8146 168.754 74.9103V71.0159H196.405C218.603 71.0159 224.25 70.7238 225.126 69.6529C227.56 66.732 226.391 55.7304 222.886 49.2072C215.584 35.2847 205.264 29.9299 188.129 31.0983ZM199.52 40.3475C207.893 42.8788 213.637 49.1099 216.266 58.5538L217.24 62.2535H192.997H168.754V59.8195C168.754 55.5356 173.622 47.6495 178.393 44.1445C185.208 39.1791 191.731 38.0108 199.52 40.3475Z" fill="white"/>
<path d="M264.459 31.0983C257.255 32.1692 250.829 35.5768 245.182 41.3211C239.146 47.4547 236.127 53.4911 234.764 61.864C232.233 78.61 240.217 94.3823 254.918 101.684C259.786 104.021 262.317 104.605 269.522 104.897C280.621 105.384 287.534 103.534 294.154 98.2767C296.783 96.1348 299.217 94.6744 299.606 95.0638C299.898 95.3559 300.19 97.3031 300.19 99.2503C300.19 102.171 300.677 103.047 302.722 103.924C305.448 105.189 308.369 104.216 309.342 101.587C310.608 98.3741 309.926 64.7848 308.466 58.6512C306.811 51.4465 305.935 49.7914 300.385 43.0735C292.596 33.6296 278.771 29.0537 264.459 31.0983ZM284.126 42.2947C294.251 47.1627 299.606 56.1198 299.606 68.0951C299.606 80.2651 294.544 88.6381 284.126 93.5061C275.948 97.4005 267.964 97.4005 259.689 93.5061C255.794 91.6562 252.679 89.3196 250.926 86.9829C249.368 84.841 247.908 82.9912 247.616 82.6991C247.324 82.407 246.448 80.2651 245.669 77.8311C243.916 72.4763 244.014 62.0588 245.863 57.1908C248.687 49.694 256.184 43.0735 266.114 39.4712C269.327 38.3029 279.063 39.7633 284.126 42.2947Z" fill="white"/>
<path d="M193.427 119.484H192.287C192.202 119.06 192.048 118.667 191.826 118.308C191.607 117.944 191.332 117.626 191.001 117.355C190.669 117.084 190.293 116.874 189.872 116.724C189.452 116.575 188.997 116.5 188.508 116.5C187.723 116.5 187.007 116.704 186.36 117.113C185.718 117.521 185.202 118.122 184.814 118.914C184.43 119.703 184.238 120.669 184.238 121.813C184.238 122.966 184.43 123.936 184.814 124.725C185.202 125.514 185.718 126.112 186.36 126.52C187.007 126.925 187.723 127.127 188.508 127.127C188.997 127.127 189.452 127.052 189.872 126.903C190.293 126.753 190.669 126.545 191.001 126.278C191.332 126.007 191.607 125.689 191.826 125.325C192.048 124.962 192.202 124.567 192.287 124.143H193.427C193.326 124.713 193.136 125.245 192.857 125.738C192.582 126.227 192.23 126.656 191.801 127.024C191.377 127.392 190.887 127.679 190.333 127.885C189.779 128.091 189.171 128.194 188.508 128.194C187.464 128.194 186.538 127.934 185.73 127.412C184.921 126.886 184.286 126.146 183.825 125.192C183.368 124.238 183.14 123.112 183.14 121.813C183.14 120.515 183.368 119.389 183.825 118.435C184.286 117.481 184.921 116.743 185.73 116.221C186.538 115.695 187.464 115.432 188.508 115.432C189.171 115.432 189.779 115.536 190.333 115.742C190.887 115.944 191.377 116.231 191.801 116.603C192.23 116.971 192.582 117.4 192.857 117.889C193.136 118.378 193.326 118.91 193.427 119.484ZM206.275 121.813C206.275 123.107 206.045 124.234 205.584 125.192C205.123 126.146 204.488 126.886 203.679 127.412C202.875 127.934 201.949 128.194 200.901 128.194C199.854 128.194 198.926 127.934 198.117 127.412C197.312 126.886 196.68 126.146 196.219 125.192C195.762 124.234 195.533 123.107 195.533 121.813C195.533 120.519 195.762 119.395 196.219 118.441C196.68 117.483 197.314 116.743 198.123 116.221C198.932 115.695 199.858 115.432 200.901 115.432C201.949 115.432 202.875 115.695 203.679 116.221C204.488 116.743 205.123 117.483 205.584 118.441C206.045 119.395 206.275 120.519 206.275 121.813ZM205.171 121.813C205.171 120.701 204.985 119.749 204.613 118.957C204.241 118.16 203.734 117.551 203.091 117.131C202.448 116.71 201.718 116.5 200.901 116.5C200.088 116.5 199.361 116.71 198.718 117.131C198.075 117.551 197.565 118.158 197.189 118.951C196.817 119.743 196.631 120.697 196.631 121.813C196.631 122.926 196.817 123.878 197.189 124.67C197.561 125.463 198.069 126.072 198.712 126.496C199.354 126.917 200.084 127.127 200.901 127.127C201.718 127.127 202.448 126.917 203.091 126.496C203.738 126.076 204.247 125.469 204.619 124.676C204.991 123.88 205.175 122.926 205.171 121.813ZM218.693 115.602V128.025H217.589L210.25 117.622H210.153V128.025H209.019V115.602H210.116L217.48 126.017H217.577V115.602H218.693ZM228.741 118.708C228.672 118.016 228.367 117.466 227.825 117.058C227.283 116.65 226.602 116.445 225.781 116.445C225.203 116.445 224.693 116.545 224.252 116.743C223.816 116.941 223.472 117.216 223.221 117.568C222.974 117.915 222.851 118.312 222.851 118.756C222.851 119.084 222.922 119.371 223.063 119.618C223.205 119.864 223.395 120.077 223.634 120.255C223.876 120.429 224.143 120.578 224.434 120.703C224.729 120.829 225.027 120.934 225.326 121.019L226.636 121.395C227.032 121.504 227.429 121.644 227.825 121.813C228.221 121.983 228.583 122.198 228.911 122.456C229.242 122.711 229.507 123.025 229.705 123.397C229.907 123.765 230.008 124.207 230.008 124.725C230.008 125.388 229.837 125.985 229.493 126.514C229.149 127.044 228.656 127.465 228.013 127.776C227.37 128.083 226.6 128.237 225.702 128.237C224.857 128.237 224.123 128.097 223.5 127.818C222.877 127.535 222.388 127.145 222.032 126.648C221.676 126.15 221.476 125.574 221.432 124.919H222.596C222.637 125.408 222.799 125.823 223.082 126.163C223.365 126.502 223.733 126.761 224.186 126.939C224.638 127.113 225.144 127.2 225.702 127.2C226.321 127.2 226.871 127.097 227.352 126.89C227.837 126.68 228.217 126.389 228.492 126.017C228.771 125.641 228.911 125.204 228.911 124.707C228.911 124.286 228.801 123.934 228.583 123.651C228.365 123.364 228.059 123.124 227.667 122.93C227.279 122.735 226.828 122.564 226.315 122.414L224.828 121.977C223.854 121.686 223.098 121.284 222.56 120.77C222.022 120.257 221.753 119.602 221.753 118.805C221.753 118.138 221.931 117.551 222.287 117.046C222.647 116.536 223.132 116.14 223.743 115.857C224.357 115.57 225.047 115.426 225.811 115.426C226.583 115.426 227.267 115.568 227.861 115.851C228.456 116.134 228.927 116.524 229.275 117.022C229.626 117.515 229.814 118.077 229.839 118.708H228.741ZM231.986 116.621V115.602H240.993V116.621H237.057V128.025H235.922V116.621H231.986ZM243.547 128.025V115.602H247.556C248.438 115.602 249.174 115.762 249.764 116.082C250.359 116.397 250.805 116.836 251.105 117.398C251.408 117.956 251.56 118.597 251.56 119.321C251.56 120.044 251.408 120.683 251.105 121.237C250.805 121.791 250.361 122.224 249.77 122.535C249.18 122.847 248.448 123.002 247.574 123.002H244.16V121.965H247.544C248.191 121.965 248.729 121.858 249.158 121.644C249.59 121.429 249.912 121.124 250.122 120.728C250.336 120.331 250.443 119.862 250.443 119.321C250.443 118.779 250.336 118.306 250.122 117.901C249.908 117.493 249.584 117.177 249.152 116.955C248.723 116.733 248.181 116.621 247.526 116.621H244.681V128.025H243.547ZM249.024 122.42L252.081 128.025H250.771L247.744 122.42H249.024ZM262.602 115.602H263.736V123.827C263.736 124.672 263.538 125.429 263.142 126.096C262.746 126.759 262.194 127.283 261.486 127.667C260.782 128.047 259.963 128.237 259.029 128.237C258.099 128.237 257.28 128.045 256.573 127.661C255.865 127.277 255.313 126.753 254.917 126.09C254.521 125.427 254.322 124.672 254.322 123.827V115.602H255.457V123.748C255.457 124.408 255.604 124.996 255.899 125.514C256.195 126.027 256.609 126.431 257.143 126.727C257.681 127.022 258.31 127.169 259.029 127.169C259.749 127.169 260.378 127.022 260.916 126.727C261.454 126.431 261.868 126.027 262.159 125.514C262.454 124.996 262.602 124.408 262.602 123.748V115.602ZM266.281 116.621V115.602H275.288V116.621H271.352V128.025H270.217V116.621H266.281ZM287.509 121.813C287.509 123.107 287.278 124.234 286.817 125.192C286.356 126.146 285.721 126.886 284.913 127.412C284.108 127.934 283.182 128.194 282.135 128.194C281.087 128.194 280.159 127.934 279.351 127.412C278.546 126.886 277.913 126.146 277.452 125.192C276.995 124.234 276.767 123.107 276.767 121.813C276.767 120.519 276.995 119.395 277.452 118.441C277.913 117.483 278.548 116.743 279.357 116.221C280.165 115.695 281.091 115.432 282.135 115.432C283.182 115.432 284.108 115.695 284.913 116.221C285.721 116.743 286.356 117.483 286.817 118.441C287.278 119.395 287.509 120.519 287.509 121.813ZM286.405 121.813C286.405 120.701 286.219 119.749 285.847 118.957C285.475 118.16 284.967 117.551 284.324 117.131C283.681 116.71 282.952 116.5 282.135 116.5C281.322 116.5 280.594 116.71 279.951 117.131C279.308 117.551 278.799 118.158 278.423 118.951C278.051 119.743 277.865 120.697 277.865 121.813C277.865 122.926 278.051 123.878 278.423 124.67C278.795 125.463 279.302 126.072 279.945 126.496C280.588 126.917 281.318 127.127 282.135 127.127C282.952 127.127 283.681 126.917 284.324 126.496C284.971 126.076 285.481 125.469 285.853 124.676C286.225 123.88 286.409 122.926 286.405 121.813ZM290.252 128.025V115.602H294.261C295.143 115.602 295.879 115.762 296.469 116.082C297.064 116.397 297.51 116.836 297.81 117.398C298.113 117.956 298.265 118.597 298.265 119.321C298.265 120.044 298.113 120.683 297.81 121.237C297.51 121.791 297.066 122.224 296.475 122.535C295.885 122.847 295.153 123.002 294.28 123.002H290.865V121.965H294.249C294.896 121.965 295.434 121.858 295.863 121.644C296.295 121.429 296.617 121.124 296.827 120.728C297.041 120.331 297.149 119.862 297.149 119.321C297.149 118.779 297.041 118.306 296.827 117.901C296.613 117.493 296.289 117.177 295.857 116.955C295.428 116.733 294.886 116.621 294.231 116.621H291.386V128.025H290.252ZM295.729 122.42L298.786 128.025H297.476L294.449 122.42H295.729ZM301.046 128.025H299.857L304.376 115.602H305.589L310.108 128.025H308.919L305.025 117.076H304.94L301.046 128.025ZM301.901 123.263H308.064V124.282H301.901V123.263Z" fill="white"/>
</g>
<defs>
<clipPath id="clip0_1_3">
<rect width="311.048" height="132.025" fill="white"/>
</clipPath>
</defs>
</svg>
