<svg width="225" height="157" viewBox="0 0 225 157" fill="none" xmlns="http://www.w3.org/2000/svg">
<path fill-rule="evenodd" clip-rule="evenodd" d="M197.146 1.56965C196.739 3.2861 195.982 4.24601 194.61 4.78943C193.175 5.35794 192.876 5.65695 193.27 6.13129C193.454 6.35327 193.87 6.5348 194.194 6.5348C194.999 6.5348 196.994 8.59158 197.221 9.65391C197.626 11.5569 198.233 11.9235 198.654 10.5197C199.438 7.90795 199.765 7.46253 201.394 6.78747C202.265 6.42647 202.978 5.98253 202.978 5.801C202.978 5.61976 202.321 5.19352 201.517 4.85407C199.889 4.16602 198.953 2.95373 198.657 1.14785C198.378 -0.547636 197.598 -0.329801 197.146 1.56965ZM110.145 1.79399C108.522 2.10008 104.736 2.88526 101.733 3.53907C90.176 6.05514 85.9883 5.99197 80.9296 3.22618C78.6494 1.97936 76.099 2.52189 74.8894 4.51078C73.9457 6.06282 73.2479 10.4229 73.2556 14.7188L73.2627 18.6225L71.6947 19.2589C69.4464 20.1716 67.4041 22.1295 66.2473 24.4815C65.3381 26.3292 65.2791 26.6404 65.2812 29.5537C65.2835 32.4639 65.3423 32.77 66.2207 34.4548C67.4073 36.7306 69.6707 38.8045 72.6361 40.3324C75.5105 41.8136 76.7095 43.1153 77.5805 45.7007C78.2107 47.5715 78.2583 48.1991 78.2624 54.6994C78.2662 61.2978 78.3005 61.7334 78.8778 62.5216C80.0196 64.0801 81.1569 64.4346 84.4652 64.2637C86.0887 64.1799 87.6826 64.127 88.0073 64.1462C88.332 64.1654 107.407 64.2215 130.395 64.2711C170.313 64.3573 172.239 64.3372 173.196 63.8254C175.156 62.7772 175.274 62.2654 175.357 54.4296C175.467 43.9825 176.023 42.6271 181.192 40.2001C184.044 38.8609 185.919 37.0509 187.255 34.3471C188.294 32.246 188.367 31.9222 188.365 29.4262C188.364 27.0569 188.261 26.5368 187.456 24.8348C186.349 22.4958 184.326 20.4086 182.183 19.3947C181.302 18.9779 180.431 18.637 180.248 18.637C180.036 18.637 179.992 18.3946 180.126 17.9728C180.567 16.5929 180.324 10.8585 179.709 8.10277C178.898 4.47418 178.442 3.66422 176.798 2.93721C175.16 2.21255 174.673 2.29549 170.905 3.93903L168 5.20651L163.72 5.19412C161.366 5.18762 158.643 5.01288 157.669 4.80626C156.695 4.59993 153.507 3.91541 150.584 3.28521C138.521 0.68413 132.261 0.52533 127.977 2.71081L126.788 3.31739L124.371 2.36869C122.089 1.47372 121.702 1.41499 117.525 1.3288C114.122 1.25854 112.414 1.36628 110.145 1.79399ZM209.374 2.00887C209.265 2.11691 209.171 2.88082 209.164 3.70613C209.148 5.49401 208.641 7.03129 207.544 8.61402C206.59 9.99042 204.474 11.4669 203.08 11.7284C202.533 11.8308 202.021 12.0206 201.941 12.1499C201.686 12.5617 202.138 13.3235 202.641 13.3303C203.507 13.3418 205.758 14.5146 206.768 15.4807C208.071 16.7266 209.099 18.792 209.347 20.6628C209.502 21.8305 209.666 22.1791 210.062 22.1791C210.458 22.1791 210.623 21.8305 210.778 20.6628C211.28 16.8763 213.663 14.3847 217.958 13.1529C218.856 12.8958 218.246 12.1611 216.778 11.7305C214.793 11.1484 213.353 10.1545 212.309 8.64796C211.24 7.10567 210.682 5.5191 210.666 3.97622C210.659 3.29938 210.572 2.53577 210.473 2.27896C210.289 1.79901 209.723 1.65998 209.374 2.00887ZM109.555 3.42867C107.607 3.80413 104.552 4.44526 102.766 4.85319C96.1391 6.36685 92.0878 6.90613 88.4501 6.75914C84.9331 6.61686 84.8079 6.58262 79.9455 4.43729L78.3775 3.74569L77.2901 4.32836C76.0176 5.01051 75.7041 5.78092 74.9865 9.99042C74.5264 12.6901 74.5243 13.2981 74.9532 18.7394C75.0149 19.5198 74.8862 19.6282 73.1423 20.2637C70.8792 21.0881 69.4375 22.1903 68.1609 24.0726C66.8917 25.9432 66.5159 27.4775 66.6697 30.16C66.886 33.9306 68.9207 36.7501 72.8548 38.7313C76.1725 40.4023 77.121 41.212 78.1036 43.2124C79.6465 46.3531 79.9788 48.692 79.7811 55.0159C79.6816 58.1984 79.7256 60.8571 79.8841 61.2742C80.3139 62.4047 81.6348 62.9133 84.1414 62.9133C85.3596 62.9133 86.7041 62.7548 87.1297 62.5608C87.7295 62.2875 88.0303 62.2875 88.4681 62.5608C89.2931 63.0759 163.392 63.07 164.818 62.5546C165.596 62.273 165.933 62.273 166.384 62.5546C166.715 62.761 167.994 62.9127 169.398 62.9121C172.188 62.9109 173.734 62.2624 173.783 61.0729C173.799 60.7051 173.789 57.8805 173.763 54.796C173.726 50.5773 173.835 48.6082 174.2 46.8489C175.122 42.4113 176.171 41.055 180.271 38.9932C183.33 37.455 184.747 36.1391 185.929 33.739C186.778 32.0137 186.89 31.5072 186.879 29.4171C186.869 27.6124 186.708 26.6985 186.2 25.5736C185.015 22.9474 182.541 20.8741 179.528 19.9833C178.614 19.7132 178.348 19.4948 178.403 19.0594C178.443 18.7459 178.61 17.4932 178.776 16.2756C179.096 13.9307 179.034 12.9932 178.278 8.74861C177.665 5.30746 177.284 4.57631 175.883 4.15687C174.853 3.84841 174.56 3.91453 172.121 5.00461C168.538 6.60564 167.584 6.82643 164.233 6.8282C160.987 6.83027 157.448 6.32197 151.618 5.01641C144.62 3.44933 141.534 2.97055 137.302 2.79492C132.714 2.60454 130.475 2.97587 128.053 4.32954L126.754 5.05597L124.943 4.20292C123.948 3.73388 122.429 3.20316 121.569 3.02369C118.97 2.48175 113.513 2.66564 109.555 3.42867ZM196.885 4.70619L195.958 5.77502L197.011 6.84089L198.064 7.90678L199.119 6.85684L200.174 5.80719L199.079 4.69497C198.476 4.08337 197.945 3.59515 197.898 3.61021C197.851 3.62496 197.395 4.1182 196.885 4.70619ZM111.769 5.78683C110.389 6.01204 107.068 6.67796 104.39 7.26654C96.047 9.09958 95.2028 9.23329 90.9591 9.39563C86.1025 9.5813 84.2789 9.30295 80.9686 7.87194C79.2828 7.14316 78.5269 6.94273 78.3772 7.18507C77.9038 7.95076 77.4061 11.5829 77.3946 14.3569C77.3834 16.9816 77.4577 17.415 78.0658 18.268C78.4419 18.7958 78.9186 19.2273 79.1249 19.2273C79.3315 19.2273 80.3162 19.635 81.313 20.1332C84.3238 21.6374 86.8974 25.0131 88.3872 29.4109C89.0292 31.3053 89.926 35.3415 89.926 36.3351C89.926 37.1811 90.6456 37.12 94.6848 35.9313C103.879 33.2257 112.567 32.2174 126.675 32.2177C141.395 32.2183 153.207 33.6827 161.027 36.4765C163.03 37.192 163.372 37.1052 163.57 35.8309C164.918 27.1752 167.953 22.1183 173.279 19.6577C175.076 18.8274 175.524 18.4808 175.791 17.7128C176.27 16.3387 176.189 12.0578 175.63 9.24244C175.233 7.24617 175.053 6.81315 174.67 6.93623C174.411 7.01977 173.003 7.59448 171.542 8.21346L168.885 9.33896L163.572 9.30974C159.259 9.28613 157.703 9.15802 155.307 8.62907C142.943 5.90017 140.976 5.57843 136.416 5.53947C132.143 5.50286 131.927 5.53062 130.217 6.33024C129.243 6.7857 128.091 7.49855 127.657 7.91386L126.867 8.66921L125.581 7.74561C123.288 6.09912 121.451 5.57017 117.672 5.46863C115.713 5.41579 113.217 5.55039 111.769 5.78683ZM209.466 8.02573C208.974 9.21233 206.507 11.755 205.463 12.1523L204.662 12.4566L205.96 13.2813C207.364 14.173 209.03 15.9261 209.542 17.0498C209.947 17.9386 210.179 17.9342 210.592 17.0295C211.064 15.9931 212.901 14.032 214.086 13.2999L215.1 12.673L213.836 11.8592C212.295 10.868 211.509 10.0273 210.569 8.36489L209.851 7.09593L209.466 8.02573ZM190.187 10.8641C190.079 10.9722 189.99 11.3662 189.99 11.7396C189.99 13.2002 189.052 14.4868 187.424 15.2569C186.562 15.6643 185.858 16.1203 185.858 16.2706C185.858 16.4205 186.435 16.7983 187.14 17.1103C188.808 17.848 189.626 18.7556 190.106 20.4012C190.32 21.1356 190.666 21.7363 190.876 21.7363C191.085 21.7363 191.435 21.1253 191.653 20.3785C192.111 18.8055 193.177 17.6231 194.599 17.1089C195.978 16.6103 195.902 15.8694 194.426 15.4273C192.975 14.9928 191.768 13.495 191.548 11.8589C191.433 10.9964 191.25 10.6673 190.886 10.6673C190.61 10.6673 190.295 10.7558 190.187 10.8641ZM189.746 15.1548L188.764 16.2499L189.82 17.3057L190.876 18.3616L191.89 17.3471L192.905 16.3325L191.817 15.1961L190.728 14.0594L189.746 15.1548ZM199.607 18.6889C199.539 18.9038 199.421 19.8885 199.344 20.8768C199.185 22.9383 198.672 24.0768 197.132 25.7852C196.065 26.9686 193.599 28.3692 192.573 28.3748C191.975 28.3784 191.846 29.518 192.426 29.6804C194.723 30.325 195.574 30.7448 196.776 31.8251C198.371 33.2591 199.1 34.5909 199.574 36.9379C200.031 39.1936 200.63 39.0935 201.118 36.6799C201.328 35.6453 201.774 34.3539 202.11 33.8105C203.103 32.2035 205.185 30.5733 206.956 30.0163C207.853 29.7344 208.586 29.3344 208.586 29.1278C208.586 28.9212 207.756 28.4539 206.742 28.0894C205.342 27.5864 204.502 27.0247 203.263 25.7622C201.559 24.0266 201.015 22.6602 200.835 19.6725C200.784 18.8188 200.622 18.4673 200.247 18.3961C199.962 18.3424 199.674 18.474 199.607 18.6889ZM73.7043 22.9235C71.9144 23.7288 70.6956 24.8723 69.9727 26.4246C68.2123 30.2052 69.8224 34.1284 74.0393 36.3327C77.5652 38.1761 78.7208 39.0528 79.8516 40.7432C82.0436 44.0206 82.6821 47.4482 82.479 54.8532L82.3311 60.2567H84.0301C86.1028 60.2567 85.9452 60.6971 86.4072 53.6153C87.3319 39.4365 85.4856 29.232 81.2257 24.9771C79.0449 22.7987 75.8942 21.9385 73.7043 22.9235ZM175.752 22.7683C171.653 24.0024 168.92 28.6006 167.505 36.6427C167.058 39.1835 166.961 53.4916 167.362 57.6739L167.61 60.2567H169.392H171.174L171.026 56.7884C170.846 52.5759 171.254 46.8171 171.888 44.6124C172.99 40.7801 174.71 38.7328 178.292 36.9904C181.369 35.4936 182.433 34.603 183.424 32.6932C186.168 27.4063 181.293 21.0999 175.752 22.7683ZM199.618 24.663C198.938 25.9252 196.907 27.9994 195.777 28.585L194.922 29.0277L195.829 29.467C197.059 30.0629 199.272 32.2874 199.727 33.3854C200.193 34.5115 200.449 34.5133 200.913 33.3934C201.399 32.2195 203.272 30.315 204.621 29.6228L205.703 29.0679L204.762 28.6783C203.598 28.1959 201.362 25.9948 200.674 24.6544L200.161 23.6544L199.618 24.663ZM49.3886 25.6229C49.2803 25.7309 49.1918 26.1397 49.1918 26.5311C49.1918 27.3193 47.7212 28.9681 47.0181 28.9681C46.0732 28.9681 46.2686 29.5611 47.4042 30.1403C48.5577 30.7288 49.4869 31.9881 49.4869 32.963C49.4869 33.7632 50.1809 33.2727 50.4347 32.2933C50.683 31.3357 52.1831 29.8536 52.9042 29.8536C53.6707 29.8536 53.339 29.2775 52.3298 28.8557C51.124 28.3521 50.3725 27.3497 50.3725 26.2457C50.3725 25.4747 49.8606 25.1506 49.3886 25.6229ZM57.9535 26.8234C57.8797 26.9476 57.7279 27.7278 57.6161 28.5572C57.5042 29.3864 57.1683 30.4667 56.8696 30.9582C56.2246 32.0188 54.6977 33.2116 53.4904 33.5979C52.2332 34.0003 52.2477 34.4684 53.5302 34.8846C55.8515 35.6379 57.294 37.28 57.6943 39.6257C57.9071 40.8722 58.6359 41.6072 58.6391 40.5782C58.6456 38.3609 60.4657 35.8271 62.6509 34.9926C63.3767 34.7155 63.9281 34.3616 63.8764 34.2063C63.8245 34.051 63.274 33.7494 62.6523 33.5357C60.4586 32.7815 58.6574 30.3059 58.6439 28.0262C58.6377 27.0002 58.2498 26.3239 57.9535 26.8234ZM48.9659 28.7346L48.3139 29.3867L49.0696 30.1754L49.8255 30.9641L50.5617 30.2279L51.2981 29.4915L50.6364 28.7872C49.8261 27.9247 49.7774 27.9232 48.9659 28.7346ZM57.7268 31.2289C57.5024 31.648 56.7474 32.494 56.049 33.1085L54.7794 34.2264L55.7016 34.8828C56.2087 35.2441 56.9941 36.0511 57.4472 36.6763L58.2705 37.813L59.0332 36.661C59.4523 36.0272 60.1991 35.2704 60.6924 34.9788C61.1856 34.6874 61.5891 34.3737 61.5891 34.2813C61.5891 34.1889 61.1782 33.8707 60.6761 33.574C60.1744 33.2777 59.3969 32.4571 58.9491 31.7507L58.1347 30.4667L57.7268 31.2289ZM44.1738 33.7137C44.1738 34.6957 42.8107 36.3475 42.0001 36.3475C41.0119 36.3475 41.2698 36.9573 42.504 37.5374C43.625 38.0642 43.8635 38.3388 44.1785 39.4634C44.5625 40.8353 44.9625 41.1338 45.2438 40.2586C45.8164 38.4766 46.1231 38.0397 47.1781 37.5013C48.2832 36.9376 48.4621 36.3475 47.5282 36.3475C46.7176 36.3475 45.3545 34.6957 45.3545 33.7137C45.3545 33.0023 45.2267 32.8054 44.7641 32.8054C44.3016 32.8054 44.1738 33.0023 44.1738 33.7137ZM43.948 36.114L43.2959 36.7661L44.0637 37.5675L44.8314 38.3686L45.5139 37.5793L46.1963 36.7903L45.5765 36.1261C44.8122 35.3076 44.755 35.307 43.948 36.114ZM119.296 36.2235C112.4 36.6317 104.114 37.6091 100.405 38.4515C99.5929 38.636 97.0692 39.3453 94.7963 40.0277L90.6639 41.269L90.5839 47.228L90.5039 53.187L91.1742 53.0391C92.432 52.7619 104.226 51.9885 111.621 51.6984C124.935 51.1762 140.492 51.4445 154.717 52.4413C158.126 52.6804 161.347 52.8761 161.875 52.8767L162.834 52.8773V47.0364V41.1957L161.137 40.7158C160.203 40.4519 158.099 39.8412 156.46 39.3586C152.808 38.2838 147.436 37.3458 141.659 36.7737C137.486 36.3605 123.001 36.0042 119.296 36.2235ZM50.9628 38.8733C50.9628 39.2886 50.8078 40.2441 50.618 40.9968C50.2051 42.6374 48.3535 44.6393 46.8504 45.0705C45.7031 45.3993 45.3397 46.0071 46.1417 46.2556C48.9456 47.1249 50.5705 48.7835 50.8805 51.0924C51.0472 52.3377 51.4572 52.9157 51.6884 52.2318C51.7604 52.0186 51.9676 51.2648 52.1491 50.5563C52.565 48.9347 54.2679 47.0807 55.8332 46.5464C57.3215 46.0381 57.3333 45.5528 55.8701 45.0499C53.7693 44.3276 51.8483 41.8882 51.8483 39.943C51.8483 38.8789 51.5892 38.1185 51.2264 38.1185C51.0815 38.1185 50.9628 38.4583 50.9628 38.8733ZM50.8636 42.7395C50.3922 43.6425 49.0988 44.9383 48.1852 45.4227C47.6486 45.7075 47.6557 45.7397 48.3328 46.0906C49.3426 46.6143 51.2568 48.7018 51.2636 49.2862C51.2666 49.5566 51.6582 49.1587 52.1335 48.4019C52.609 47.6447 53.4033 46.7861 53.8989 46.4933C54.3945 46.2005 54.7921 45.8899 54.7821 45.8031C54.772 45.7164 54.2207 45.247 53.5568 44.76C52.8927 44.273 52.1137 43.4302 51.8259 42.8871L51.3023 41.8997L50.8636 42.7395ZM34.4238 49.1454C33.6883 49.3438 32.762 49.7337 32.3653 50.0115C29.9856 51.6783 27.468 56.7155 24.663 65.4223C20.4113 78.6198 18.7279 83.4132 17.4548 85.9479L16.1507 88.5448L14.5916 88.1301C9.68315 86.8233 3.51811 88.5191 1.1145 91.8372C-0.914532 94.6381 -0.0974889 97.5409 2.95079 98.3618C4.60229 98.8063 10.3975 98.226 13.6594 97.2894C15.1005 96.8753 17.3984 95.9859 18.7657 95.3129L21.2519 94.0894L23.348 95.1972C24.5009 95.8064 27.9648 98.0855 31.0456 100.261C40.9071 107.226 45.9006 110.481 49.5832 112.344C55.3819 115.277 60.2062 116.563 64.0344 116.198C67.7323 115.845 69.3708 114.898 70.5503 112.431C71.512 110.42 71.7219 107.243 70.9609 106.212C70.6174 105.746 70.3797 105.766 67.4926 106.51C64.6926 107.231 63.8947 107.308 59.2277 107.301C54.736 107.295 53.6386 107.195 50.8152 106.536C45.4531 105.284 38.1693 102.055 32.5637 98.4447C29.7872 96.6568 23.8067 92.4225 23.8067 92.2448C23.8067 92.1681 24.539 91.4299 25.4343 90.6043C28.0566 88.1859 30.4738 84.1768 32.5474 78.8079C33.0956 77.3887 34.4793 72.8303 35.6229 68.6777C38.8099 57.1033 39.7562 54.6923 41.9349 52.5981C42.517 52.0384 42.9931 51.3566 42.9931 51.0824C42.9931 50.3967 41.851 49.7098 39.8394 49.1858C37.8352 48.664 36.253 48.6522 34.4238 49.1454ZM46.7439 55.8347C44.943 59.2853 44.9592 60.6974 46.8168 62.2654C48.4473 63.6415 51.4324 64.2599 51.7276 63.2822C51.8135 62.9983 52.3407 61.8005 52.8992 60.6206C54.2283 57.8132 54.2221 56.7618 52.8682 55.2626C51.8917 54.182 49.8352 53.1725 48.61 53.1725C48.3092 53.1725 47.6208 54.1548 46.7439 55.8347ZM116.197 55.7128C103.853 55.9858 91.522 56.7668 90.4437 57.3439C90.0688 57.5443 89.926 57.9844 89.926 58.9387V60.2567L126.749 60.257H163.572L163.471 58.792C163.398 57.7409 163.231 57.2872 162.88 57.1863C161.871 56.8961 157.826 56.4191 153.831 56.1195C149.695 55.8096 124.255 55.5345 116.197 55.7128ZM43.8736 66.904C42.8626 67.3374 42.8352 67.3931 42.8172 69.0423C42.8015 70.5002 42.4278 71.5964 40.1272 76.9341C37.1188 83.9141 36.1229 86.8325 35.6258 90.1275C35.0641 93.85 35.8903 96.9062 37.7682 98.0509C40.2698 99.5764 43.9784 97.7673 47.6138 93.2484L49.3653 91.0712L49.3523 93.3007C49.332 96.8245 50.6242 98.6295 53.1678 98.6295C55.0097 98.6295 55.3904 98.2458 55.3904 96.3885C55.3904 94.3521 56.3911 91.8676 60.1351 84.6087C63.8918 77.3246 65.7818 74.5574 69.2637 71.2416C70.8231 69.7569 71.7653 69.4207 72.4495 70.1052C73.2193 70.875 72.5776 72.6358 68.6695 80.4762C64.8425 88.1543 63.9547 90.444 63.7471 93.1687C63.498 96.4393 65.3308 98.628 68.3191 98.6289C70.2437 98.6298 71.9645 97.5807 71.0082 96.9895C70.5368 96.6981 70.911 95.0847 72.2429 91.6675C74.2622 86.4857 81.1817 75.326 84.6066 71.7266C86.1728 70.0807 86.3723 69.9629 87.4444 70.0506L88.5977 70.1451L88.5407 71.409C88.5006 72.3054 87.76 74.194 85.9939 77.9029C82.6767 84.8693 81.3848 88.8122 81.3709 92.0081C81.3632 93.8447 82.185 96.2043 83.2296 97.3443C85.202 99.4964 87.9093 98.8774 91.4547 95.4634L93.5315 93.4639L93.0303 94.6446C89.5006 102.963 86.7959 110.668 86.4889 113.279C86.2743 115.103 87.0949 117.145 88.3816 117.988C89.2842 118.579 91.4594 118.676 92.0902 118.152C92.3455 117.94 92.5645 117.067 92.6395 115.963C92.798 113.631 94.3766 109.663 99.3001 99.2198C103.916 89.43 105.907 85.0798 107.407 81.5093C109.226 77.1767 110.536 75.0928 113.221 72.2612C114.581 70.8269 116.35 69.7023 117.246 69.7023C117.512 69.7023 118.105 69.9246 118.565 70.1961C120.277 71.2077 120.324 76.2304 118.667 81.1976C117.063 86.0028 113.068 92.7466 110.482 95.0136C108.894 96.4053 106.476 96.2371 107.755 94.8241C108.849 93.6153 107.958 91.8404 106.257 91.8404C103.988 91.8404 103.508 95.1547 105.479 97.212C106.663 98.4482 108.661 98.9247 112.661 98.9247C120.08 98.9247 124.718 96.5278 129.998 89.9637L131.72 87.8237L131.761 89.9986C131.794 91.7318 131.98 92.5506 132.672 94.0312C133.674 96.1718 134.852 97.2029 137.263 98.0506C139.347 98.783 140.74 98.7809 143.1 98.0421C145.907 97.1636 147.868 95.897 150.807 93.066C153.937 90.0505 156.474 86.7525 158.674 82.842C159.907 80.6489 160.376 80.0506 160.74 80.204C163.37 81.3133 165.999 80.5727 167.723 78.2379L168.468 77.2293L167.246 77.0185C165.554 76.7266 164.328 75.9382 163.679 74.725C162.194 71.9465 164.164 68.8168 167.399 68.8168C168.245 68.8168 169.081 69.1273 170.355 69.9145C171.333 70.5185 172.775 71.2222 173.559 71.4787L174.987 71.9447L173.138 74.4396C172.121 75.8115 168.674 80.1884 165.477 84.1659C158.687 92.6129 156.636 95.601 156.636 97.0438C156.636 98.2153 156.562 98.2047 160.233 97.5713C163.165 97.065 164.232 97.1362 168 98.0867C171.311 98.9223 174.204 98.7673 176.522 97.63C178.631 96.5954 181.767 93.693 184.03 90.6816L185.71 88.4459L185.754 89.8155C185.921 95.0841 189.119 98.4515 193.975 98.4727C197.212 98.4869 199.496 97.0202 202.191 93.1953L203.421 91.4508L203.587 93.3517C203.971 97.7504 206.725 99.6617 210.326 98.0282C213.444 96.6137 219.618 88.7668 223.179 81.6941C224.709 78.6553 224.756 77.9297 223.432 77.7308C222.95 77.6587 222.581 78.1659 221.438 80.4676C218.772 85.841 212.842 94.0076 210.833 95.0738C209.657 95.6975 209.008 95.1919 209.102 93.7263C209.174 92.5923 209.865 91.1063 214.372 82.3948C218.081 75.225 219.009 71.5929 217.782 69.0573C217.428 68.3268 216.741 67.5233 216.193 67.1986C214.178 66.0046 210.187 66.8058 210.96 68.2492C211.393 69.0585 210.767 71.1194 208.606 76.0025C203.511 87.5105 199.276 94.4681 196.85 95.3138C195.214 95.8841 193.985 94.8102 193.526 92.4101C192.893 89.1039 193.932 84.7412 196.65 79.2955C198.908 74.7696 201.352 71.2095 203.037 69.9886C204.872 68.6597 206.521 68.9065 205.504 70.3579C204.877 71.2532 204.927 72.2414 205.635 72.9492C207.001 74.3159 208.882 73.2471 208.881 71.1044C208.88 68.395 207.258 66.8149 204.192 66.5371C198.279 66.0008 192.254 70.5831 188.774 78.2624C187.691 80.6515 185.43 85.1958 185.25 85.3466C185.152 85.4278 184.377 86.5299 183.528 87.7959C179.526 93.7597 174.788 97.1005 171.468 96.2991C170.618 96.0939 166.472 94.4073 165.825 94.0038C165.766 93.9666 166.754 92.568 168.021 90.8959C173.154 84.121 179.357 76.6575 183.625 72.1207C185.198 70.4473 186.432 68.9198 186.367 68.7262C186.292 68.5054 185.706 68.3973 184.798 68.4363C184.001 68.4705 181.336 68.586 178.877 68.6928L174.405 68.887L171.055 67.7896C167.217 66.5321 165.096 66.4825 162.907 67.5989C159.387 69.3947 157.323 73.5892 158.147 77.2709C158.483 78.7763 158.471 78.8279 157.241 81.1123C154.203 86.7522 148.882 92.7416 145.376 94.4675C142.926 95.6736 140.938 95.678 140.046 94.4796C139.283 93.4536 139.066 90.8935 139.503 88.0811L139.865 85.7572L141.925 85.0558C146.382 83.5384 151.198 79.3551 153.237 75.2292C156.484 68.66 153.25 64.8762 146.24 67.0413C141.269 68.5771 137.608 72.4032 133.811 80.0334C131.558 84.5605 125.949 91.4263 122.643 93.703C121.769 94.3052 120.343 95.0679 119.476 95.3976L117.898 95.9971L119.796 93.9173C126.725 86.3251 129.536 74.2645 125.496 69.4626C124.262 67.9965 121.95 66.9663 119.545 66.8119C117.64 66.6897 117.203 66.7665 115.747 67.4787C114.843 67.9215 113.312 69.0157 112.345 69.9104L110.588 71.5368V70.5905C110.588 68.2187 108.657 66.4447 106.099 66.4657C104.081 66.4825 103.469 66.9823 103.372 68.6928C103.288 70.1651 102.076 73.6243 99.5206 79.6884C96.8897 85.9301 89.6818 95.6039 87.8621 95.3353C86.0104 95.062 86.3124 93.5436 89.6045 86.5748C92.4279 80.5981 93.3792 77.9241 93.7243 74.9966C94.2618 70.4373 93.0498 67.4531 90.359 66.7101C87.4698 65.9125 83.58 68.805 79.3082 74.9272C77.8084 77.0773 77.5572 77.3258 77.7461 76.4736C77.8701 75.9152 77.9714 74.1963 77.9714 72.6541C77.9714 70.3806 77.8595 69.6601 77.381 68.8478C76.4294 67.232 75.352 66.6009 73.5744 66.6174C71.6236 66.636 69.9889 67.5528 67.1774 70.205L65.1312 72.1351V71.1596C65.1312 69.5963 64.0813 67.768 62.8306 67.1538C60.6773 66.0962 57.0157 66.8509 57.7394 68.2031C58.9547 70.4739 51.0331 86.0639 45.3536 92.5784C41.2108 97.3301 39.5068 95.7394 42.4473 89.8654C43.1631 88.4353 44.7632 85.3392 46.003 82.9852C49.9043 75.5775 51.013 71.2112 49.605 68.8005C48.5132 66.9312 45.8583 66.0528 43.8736 66.904ZM149.054 69.9644C146.923 71.5076 143.184 77.3054 141.187 82.1608L140.737 83.255L142.332 82.5495C144.648 81.525 146.241 80.3446 148.354 78.0856C151.991 74.1975 153.315 69.1415 150.703 69.1164C150.443 69.114 149.701 69.4954 149.054 69.9644ZM190.948 101.065C190.363 101.795 189.363 104.004 189.538 104.179C189.636 104.277 190.541 103.534 191.548 102.527L193.379 100.696H192.311C191.724 100.696 191.11 100.862 190.948 101.065ZM144.386 105.548C142.098 106.386 140.866 108.755 141.543 111.015C142.112 112.915 142.869 113.565 145.866 114.726C149.028 115.951 150.142 116.943 150.142 118.537C150.142 120.521 148.227 121.948 145.566 121.948C142.972 121.948 141.709 121.083 141.094 118.885C140.765 117.705 140.753 117.744 140.725 120.128L140.696 122.587L144.365 122.489C148.431 122.38 149.014 122.154 150.389 120.15C150.965 119.31 151.06 118.863 150.961 117.444C150.779 114.855 149.686 113.88 145.09 112.208C144.179 111.876 143.21 111.358 142.937 111.057C142.134 110.169 142.055 108.659 142.755 107.541C144.016 105.524 146.915 105.225 149.004 106.896L150.08 107.758L149.77 106.75C149.6 106.196 149.271 105.669 149.038 105.58C147.942 105.159 145.494 105.143 144.386 105.548ZM159.882 105.381C157.091 105.987 154.937 107.698 153.635 110.344C152.523 112.602 152.209 115.266 152.802 117.388C153.254 119.002 155.102 121.166 156.745 122.005C158.405 122.852 161.377 123.042 163.469 122.434C165.226 121.923 167.852 120.121 167.852 119.426C167.852 119.19 167.992 118.997 168.164 118.997C168.726 118.997 169.931 115.847 170.113 113.905C170.444 110.357 168.758 107.316 165.741 106.017C164.068 105.298 161.534 105.023 159.882 105.381ZM190.76 105.368C190.663 105.524 189.182 109.219 187.469 113.579C185.632 118.255 184.105 121.717 183.745 122.022C183.148 122.528 183.162 122.539 184.423 122.534C185.29 122.531 185.575 122.444 185.296 122.267C184.956 122.052 185.132 121.363 186.278 118.435L187.674 114.864H190.271H192.868L194.291 118.427C195.478 121.399 195.643 122.035 195.287 122.26C195.009 122.436 195.628 122.525 197.075 122.515C198.652 122.505 199.103 122.426 198.643 122.241C197.808 121.905 197.947 122.194 194.268 113.093C192.529 108.791 191.068 105.229 191.021 105.177C190.974 105.126 190.856 105.212 190.76 105.368ZM202.995 105.769C201.292 106.656 200.563 107.696 200.412 109.455C200.182 112.118 201.547 113.651 205.243 114.881C207.619 115.672 208.849 116.714 209.054 118.111C209.251 119.457 208.337 120.95 206.966 121.523C204.862 122.403 201.331 121.808 200.605 120.451C200.448 120.158 200.2 119.411 200.055 118.793C199.826 117.818 199.787 117.991 199.761 120.103L199.731 122.539L202.757 122.537C206.507 122.535 207.699 122.217 208.843 120.914C210.427 119.109 210.431 116.526 208.851 114.727C208.21 113.997 207.191 113.417 205.172 112.635C201.857 111.351 201.072 110.583 201.303 108.854C201.728 105.664 205.845 104.753 208.512 107.259L209.184 107.89L208.862 106.967C208.416 105.686 208.095 105.491 206.074 105.275C204.571 105.114 204.11 105.188 202.995 105.769ZM101.659 105.704L102.323 105.99V113.91C102.323 119.85 102.231 121.924 101.954 122.205C101.657 122.507 102.722 122.561 107.489 122.485C114.134 122.379 114.74 122.224 116.881 120.083C120.422 116.542 120.485 110.613 117.011 107.64C114.967 105.89 113.821 105.647 107.046 105.526C102.976 105.454 101.213 105.512 101.659 105.704ZM121.879 105.737C122.351 106.012 122.395 106.734 122.395 114.119C122.395 121.567 122.355 122.211 121.879 122.335C121.595 122.409 123.986 122.486 127.192 122.504L133.022 122.539L132.987 121.284C132.968 120.594 132.888 120.295 132.808 120.62C132.508 121.841 132.182 121.949 128.779 121.944C126.973 121.941 125.295 121.814 125.052 121.66C124.708 121.443 124.587 120.586 124.51 117.827L124.412 114.274H127.659C129.981 114.274 130.949 114.379 131.055 114.643C131.137 114.846 131.215 114.68 131.228 114.274L131.252 113.536L127.857 113.628L124.461 113.719V109.864V106.009H127.863C131.22 106.009 131.269 106.019 131.546 106.747C131.934 107.77 132.136 107.669 132.136 106.452V105.419L126.749 105.427C122.945 105.434 121.514 105.525 121.879 105.737ZM172.206 105.723L172.87 105.99V114.095C172.87 121.566 172.83 122.211 172.354 122.335C172.07 122.409 172.833 122.475 174.051 122.481C175.268 122.487 176.065 122.416 175.822 122.323C175.034 122.024 174.946 121.564 174.941 117.742L174.936 113.979H177.829C179.685 113.979 180.849 114.106 181.076 114.333C181.351 114.608 181.43 114.497 181.43 113.831C181.43 113.165 181.351 113.054 181.076 113.329C180.849 113.556 179.685 113.683 177.829 113.683H174.936V109.846V106.009H178.183C181.037 106.009 181.502 106.08 182.021 106.599L182.611 107.19V106.304V105.419L177.076 105.437C173.466 105.449 171.773 105.549 172.206 105.723ZM104.39 112.746C104.39 120.287 104.507 121.048 105.764 121.621C106.84 122.111 111.467 122.029 112.985 121.493C114.509 120.955 116.001 119.605 116.883 117.963C117.39 117.02 117.518 116.274 117.521 114.251C117.525 111.947 117.445 111.59 116.639 110.295C114.832 107.388 112.357 106.196 107.415 105.849L104.39 105.638V112.746ZM158.545 106.396C156.77 106.919 155.271 108.232 154.389 110.034C153.721 111.4 153.627 111.898 153.762 113.382C154.299 119.304 159.812 123.392 164.527 121.364C166.253 120.621 168.173 118.724 168.684 117.255C169.168 115.864 169.12 113.749 168.568 112.129C167.253 108.271 162.127 105.339 158.545 106.396ZM189.099 111.269C188.534 112.673 188.027 113.924 187.973 114.048C187.919 114.172 188.949 114.274 190.261 114.274C192.551 114.274 192.949 114.133 192.392 113.521C192.252 113.367 191.763 112.271 191.307 111.086C190.85 109.9 190.397 108.882 190.301 108.822C190.204 108.763 189.664 109.864 189.099 111.269ZM79.89 125.53C73.6397 125.633 67.1975 125.859 65.574 126.033C62.312 126.382 58.6442 127.151 58.2094 127.577C58.055 127.728 57.6937 127.852 57.4062 127.852C56.3123 127.852 53.6882 129.296 52.256 130.686C50.9489 131.954 50.7045 132.387 50.273 134.198C50.002 135.335 49.7809 136.677 49.7812 137.181C49.7824 138.294 51.4038 140.531 52.975 141.586C53.573 141.988 54.5935 142.668 55.2429 143.096C55.8922 143.525 56.9221 144.322 57.5313 144.867C58.1406 145.412 58.7714 145.858 58.9334 145.858C59.3611 145.858 59.295 147.256 58.8588 147.439C58.6031 147.547 58.6672 147.705 59.0677 147.956C59.3856 148.154 59.9834 148.678 60.396 149.119C61.348 150.136 62.3778 150.65 65.071 151.45C68.4133 152.442 72.7769 153.191 78.1086 153.687C80.7929 153.937 85.3138 154.397 88.1549 154.71C100.611 156.079 105.348 156.253 126.192 156.102C152.72 155.91 180.532 155.37 183.025 154.998C185.121 154.685 186.743 153.966 186.743 153.35C186.743 153.157 186.335 152.857 185.836 152.683C185.337 152.509 185.005 152.242 185.099 152.09C185.255 151.839 187.387 151.423 190.433 151.051C191.083 150.971 192.676 150.667 193.975 150.374C196.022 149.913 196.199 149.826 195.304 149.721L194.27 149.6L195.156 149.387C195.9 149.208 195.783 149.163 194.418 149.104L192.795 149.035L194.27 148.722L195.746 148.409L194.418 148.064L193.09 147.719L195.137 147.486C198.07 147.152 199.153 146.745 196.632 146.925C194.686 147.063 194.609 147.045 195.304 146.622C195.709 146.376 196.374 146.159 196.779 146.142C197.458 146.114 197.47 146.091 196.927 145.858C196.602 145.718 195.872 145.584 195.304 145.559L194.27 145.515L195.156 145.109C195.643 144.886 196.639 144.679 197.37 144.65C198.635 144.599 198.599 144.579 196.632 144.229C195.063 143.95 194.828 143.853 195.655 143.826C197.044 143.782 197.456 143.213 196.133 143.167C195.595 143.148 195.395 143.07 195.688 142.994C196.109 142.885 196.148 142.769 195.876 142.441C195.6 142.11 195.672 141.97 196.229 141.747L196.927 141.467L196.189 141.447C194.723 141.407 193.255 140.842 193.43 140.386C193.532 140.121 193.419 139.954 193.138 139.954C192.532 139.954 190.581 138.792 190.581 138.431C190.581 138.276 190.479 138.211 190.355 138.287C190.232 138.364 189.8 138.243 189.396 138.02C188.992 137.796 188.816 137.609 189.005 137.603C189.193 137.597 189.314 137.363 189.273 137.083C189.185 136.487 188.347 136.208 186.301 136.093C184.968 136.018 185.04 135.992 187.039 135.822C188.256 135.718 188.746 135.609 188.128 135.58C186.699 135.512 186.973 134.948 188.458 134.901C189.409 134.871 189.341 134.831 187.924 134.585C187.031 134.43 184.773 134.13 182.906 133.918L179.512 133.534L181.725 133.454L183.939 133.373L182.265 133.194C181.344 133.095 180.508 132.931 180.407 132.831C180.306 132.73 181.749 132.552 183.613 132.435C185.73 132.303 187.203 132.071 187.537 131.818C187.831 131.595 188.404 131.402 188.81 131.39C189.216 131.377 190.132 131.061 190.847 130.688L192.146 130.008L190.847 129.748C189.571 129.494 189.587 129.487 191.761 129.376L193.975 129.264L192.204 128.872C191.23 128.656 189.835 128.467 189.105 128.451C188.374 128.436 186.183 128.157 184.234 127.833C180.064 127.138 175.931 126.808 166.081 126.382C162.104 126.21 156.857 125.942 154.422 125.786C149.141 125.446 96.0296 125.264 79.89 125.53ZM103.631 129.361C103.558 129.479 103.699 129.776 103.944 130.021C104.598 130.675 104.495 131.029 103.501 131.543C102.54 132.04 101.658 131.803 101.334 130.959C101.117 130.393 100.179 130.381 99.1136 130.932C98.6631 131.165 97.1495 132.559 95.7501 134.029C94.291 135.563 93.1224 136.569 93.0111 136.389C92.904 136.216 94.1289 134.789 95.7329 133.218C97.3369 131.646 98.1811 130.757 97.6085 131.242C97.0358 131.726 95.7521 132.903 94.7553 133.857L92.9435 135.592L92.1725 134.458C91.7487 133.834 91.4018 133.006 91.4018 132.619C91.4018 132.194 90.9455 131.459 90.2515 130.765C89.2199 129.733 89.0198 129.645 88.3081 129.916C87.8718 130.082 87.4099 130.152 87.2812 130.073C87.1525 129.993 87.2242 130.424 87.4406 131.03C87.6569 131.636 87.8396 132.375 87.8467 132.672C87.8538 132.968 88.4076 134.391 89.0773 135.832L90.2949 138.453L88.4669 141.303C86.4057 144.517 84.6128 147.79 84.6128 148.34C84.6128 148.541 84.9336 149.008 85.3256 149.376C86.2841 150.277 87.0887 149.984 87.5108 148.582C87.8456 147.469 91.1143 142.233 91.7 141.871C91.8744 141.763 91.566 142.384 91.0149 143.25C89.1083 146.245 87.5645 149.305 87.5645 150.089C87.5645 151.346 87.9589 151.016 89.0074 148.883C90.2067 146.443 92.5554 142.854 92.8387 143.029C92.953 143.1 93.6838 144.728 94.4631 146.648C95.7804 149.893 95.9378 150.142 96.715 150.197C97.847 150.279 98.6076 149.135 98.4084 147.652C98.2989 146.834 96.3997 142.495 95.0157 139.901C94.8477 139.587 100.509 134.051 100.999 134.051C101.24 134.051 101.438 134.25 101.438 134.493C101.438 134.737 101.577 134.936 101.747 134.936C101.918 134.936 102.301 135.48 102.599 136.146C102.938 136.905 103.205 137.207 103.314 136.957C103.409 136.739 103.407 137.224 103.31 138.035C103.133 139.512 102.914 140.192 102.914 139.265C102.914 138.995 102.797 138.773 102.655 138.773C102.513 138.773 102.397 139.072 102.397 139.437C102.397 139.803 102.251 140.832 102.073 141.725C101.895 142.618 101.74 144.411 101.729 145.71C101.69 150.373 101.666 150.236 102.611 150.724C103.086 150.97 103.545 151.171 103.632 151.171C103.962 151.171 105.292 148.17 105.239 147.545C105.208 147.185 105.204 146.072 105.229 145.072L105.275 143.253L107.399 142.42C110.02 141.392 112.511 139.199 113.53 137.023C113.939 136.151 114.323 135.655 114.442 135.848C114.777 136.39 115.043 135.689 115.178 133.909C115.281 132.55 115.195 132.177 114.621 131.51C114.024 130.817 113.671 130.702 111.748 130.581C110.542 130.505 109.057 130.454 108.448 130.469C107.828 130.483 107.341 130.353 107.341 130.172C107.341 129.994 107.084 129.916 106.77 129.999C106.456 130.081 106.134 129.979 106.055 129.773C105.898 129.363 103.845 129.015 103.631 129.361ZM72.9362 132.279C72.8256 133.497 72.6313 134.626 72.5047 134.788C72.2001 135.179 71.7499 139.508 71.8674 140.913C71.9214 141.559 71.8287 142.02 71.6449 142.02C71.4716 142.02 71.332 142.253 71.3343 142.537C71.3382 142.97 71.3833 142.983 71.6136 142.619C71.7647 142.38 71.9752 142.272 72.0814 142.378C72.3633 142.66 71.9548 143.201 71.4601 143.201C71.226 143.201 71.0347 143.462 71.0347 143.782C71.0347 144.177 71.1764 144.309 71.4775 144.193C71.9595 144.008 72.028 144.391 71.7189 145.546C71.5507 146.176 71.5017 146.199 71.3367 145.729C71.205 145.354 71.0244 145.703 70.7431 146.876C70.1218 149.466 70.1941 149.482 77.647 148.367C80.3599 147.961 82.6387 147.629 82.7107 147.629C82.7827 147.629 82.8417 147.496 82.8417 147.333C82.8417 147.171 82.4102 147.022 81.8824 147.001C81.0246 146.968 81.0565 146.943 82.1835 146.759C83.6361 146.523 83.9333 146.288 84.0709 145.267L84.17 144.529L81.2183 144.441C79.5948 144.392 77.1555 144.499 75.7977 144.678C74.4396 144.857 73.2843 144.959 73.23 144.904C73.1759 144.85 73.2418 144.146 73.3766 143.339C73.5986 142.011 73.6273 141.97 73.6804 142.906L73.7391 143.939L74.2979 142.758C74.6052 142.109 74.8599 141.345 74.8643 141.061C74.8705 140.648 75.1338 140.544 76.1743 140.544C78.9416 140.544 84.0224 139.22 84.0224 138.499C84.0224 138.331 83.6992 138.113 83.3043 138.014C82.8314 137.895 82.6425 137.686 82.7511 137.403C82.8754 137.079 82.7429 137.008 82.2148 137.119C81.829 137.199 80.2749 137.35 78.7615 137.453L76.0093 137.64L76.2195 136.214C76.4639 134.557 76.6735 134.364 78.2665 134.328C78.9159 134.314 80.045 134.195 80.7755 134.066L82.1038 133.829L80.6279 133.764C79.8162 133.728 78.6674 133.72 78.0753 133.747C77.4828 133.774 76.9223 133.673 76.829 133.522C76.651 133.234 79.5759 132.875 82.1318 132.872C83.6606 132.87 84.2913 132.491 84.7046 131.325C85.037 130.387 83.8923 130.167 78.4067 130.115L73.1379 130.066L72.9362 132.279ZM118.334 131.016C117.156 131.621 116.236 132.252 116.29 132.419C116.344 132.586 116.843 132.874 117.399 133.059C118.325 133.367 118.35 133.404 117.695 133.501C116.731 133.645 116.526 134.346 117.449 134.346C118.075 134.346 118.149 134.461 118.064 135.305C117.959 136.357 118.106 136.148 118.399 134.827C118.502 134.362 118.652 134.046 118.732 134.126C118.812 134.206 118.658 135.235 118.39 136.413C118.093 137.717 117.813 138.41 117.672 138.183C117.404 137.749 117.337 137.932 116.635 140.987C115.967 143.897 115.606 147.379 115.917 147.916C116.663 149.208 116.711 149.239 117.255 148.79C117.651 148.464 117.797 148.451 117.893 148.735C118.14 149.472 118.718 149.078 119.077 147.928C119.278 147.281 119.443 146.028 119.443 145.143C119.443 143.514 119.83 142.018 120.248 142.023C120.374 142.025 121.008 143.047 121.657 144.295C122.472 145.86 123.652 147.416 125.465 149.319C126.91 150.835 128.238 152.027 128.417 151.966C128.595 151.906 128.874 152.034 129.037 152.25C129.278 152.572 129.481 152.546 130.15 152.103L130.969 151.563L130.35 150.777C129.722 149.977 129.923 149.686 130.639 150.359C130.855 150.562 130.813 150.383 130.546 149.961C130.065 149.201 130.068 149.194 130.919 149.17C131.813 149.145 140.053 148.019 141.213 147.763C142.205 147.545 142.013 147.044 140.917 146.994C140.124 146.957 140.187 146.919 141.284 146.773C142.369 146.628 142.684 146.441 143.015 145.748C143.356 145.033 143.356 144.86 143.017 144.646C142.451 144.287 138.887 144.321 135.387 144.719C133.754 144.905 132.368 145.004 132.308 144.941C132.248 144.877 132.302 144.293 132.428 143.644C132.636 142.577 132.663 142.548 132.71 143.349C132.758 144.185 132.798 144.151 133.441 142.739C134.094 141.301 134.161 141.248 135.16 141.365C135.731 141.432 136.289 141.341 136.399 141.163C136.531 140.95 136.166 140.826 135.327 140.799C134.562 140.775 135.055 140.663 136.562 140.518C139.413 140.244 143.057 139.179 143.057 138.621C143.057 138.415 142.72 138.162 142.307 138.059C141.861 137.947 141.639 137.738 141.76 137.543C141.906 137.307 141.061 137.274 138.704 137.427C136.912 137.543 135.386 137.528 135.313 137.394C135.239 137.26 135.239 136.591 135.311 135.909C135.441 134.678 135.453 134.667 136.815 134.499C137.57 134.406 138.851 134.218 139.663 134.081C141.052 133.847 140.987 133.831 138.556 133.794C137.136 133.773 135.973 133.643 135.973 133.505C135.973 133.368 137.452 133.171 139.258 133.067C142.598 132.876 143.232 132.658 143.64 131.555C144.07 130.391 143.286 130.222 137.544 130.239L132.179 130.256L131.99 132.227C131.887 133.311 131.679 134.464 131.528 134.788C131.225 135.441 130.874 138.811 130.906 140.766C130.917 141.456 130.8 142.02 130.645 142.02C130.491 142.02 130.376 142.253 130.388 142.537C130.402 142.845 130.472 142.905 130.56 142.684C130.794 142.106 131.25 142.253 131.25 142.906C131.25 143.23 131.151 143.48 131.029 143.461C130.414 143.364 130.07 143.542 130.07 143.956C130.07 144.209 130.204 144.334 130.367 144.233C130.826 143.949 131.068 144.927 130.718 145.652C130.407 146.297 130.405 146.296 130.359 145.562C130.333 145.145 130.123 145.626 129.876 146.669C129.635 147.684 129.341 148.514 129.221 148.514C129.101 148.514 128.349 147.623 127.549 146.534C126.75 145.446 125.595 143.976 124.983 143.269C124.372 142.563 123.871 141.858 123.871 141.705C123.871 141.551 124.405 141.211 125.059 140.95C126.278 140.462 128.123 138.592 128.389 137.574C128.593 136.794 128.484 136.838 127.063 138.109C125.745 139.289 125.782 139.124 127.324 136.967C129.775 133.539 127.476 130.296 122.4 130.02C120.654 129.925 120.279 130.017 118.334 131.016ZM149.271 131.588C148.062 132.529 147.179 133.126 147.31 132.915C147.501 132.605 147.423 132.607 146.905 132.922C146.263 133.312 144.238 136.604 144.238 137.257C144.238 137.83 146.98 140.294 147.207 139.926C147.356 139.686 147.574 139.686 148.019 139.924C148.353 140.103 148.935 140.25 149.31 140.252C149.687 140.254 150.697 140.582 151.556 140.982L153.117 141.709L152.668 142.576C152.422 143.054 151.864 143.724 151.429 144.066C150.359 144.907 146.939 145.914 145.53 145.801C144.477 145.717 144.378 145.774 144.293 146.514C144.223 147.122 144.478 147.599 145.337 148.467C145.963 149.099 146.802 149.723 147.201 149.855L147.928 150.094L147.19 150.327C146.723 150.474 146.939 150.497 147.78 150.389C149.489 150.17 151.123 149.497 150.883 149.111C150.778 148.939 150.991 148.808 151.379 148.806C152.936 148.799 156.931 144.576 156.931 142.937C156.931 142.776 156.185 141.839 155.273 140.854C154.086 139.572 153.03 138.785 151.551 138.083L149.487 137.102L151.113 136.023C152.607 135.032 155.393 134.051 156.715 134.051C157.015 134.051 157.179 133.918 157.078 133.755C156.978 133.593 157.202 133.45 157.577 133.438C158.134 133.419 158.07 133.343 157.226 133.017C156.407 132.702 156.33 132.615 156.857 132.597C158.343 132.547 157.149 131.19 155.36 130.896C154.254 130.715 154.203 130.672 154.864 130.483C155.473 130.309 155.389 130.267 154.385 130.243C153.715 130.227 152.785 130.138 152.319 130.045C151.608 129.904 151.113 130.155 149.271 131.588ZM163.056 131.552C161.96 132.456 161.063 133.118 161.063 133.022C161.063 132.927 160.812 132.983 160.505 133.148C159.67 133.595 158.035 136.656 158.225 137.416C158.441 138.277 159.948 139.677 160.807 139.816C162.545 140.097 164.303 140.546 165.438 141C166.974 141.615 167.04 142.301 165.693 143.648C164.531 144.811 160.989 146.018 159.467 145.772C158.188 145.564 157.736 145.877 157.97 146.809C158.191 147.692 159.843 149.369 160.991 149.878C161.794 150.234 161.795 150.237 161.088 150.261C160.695 150.274 160.452 150.363 160.548 150.458C160.885 150.795 164.071 149.931 164.549 149.373C164.814 149.063 165.26 148.809 165.54 148.809C166.296 148.809 169.478 145.731 170.173 144.326C170.752 143.156 170.756 143.063 170.275 142.233C169.482 140.867 167.287 139.068 165.223 138.092L163.331 137.198L164.151 136.545C165.475 135.489 167.411 134.633 169.392 134.229C170.41 134.022 171.044 133.775 170.802 133.679C170.52 133.569 170.628 133.494 171.099 133.47C171.825 133.434 171.822 133.427 170.952 133.028C170.161 132.666 170.137 132.62 170.73 132.599C171.095 132.586 171.394 132.44 171.394 132.275C171.394 131.796 169.557 130.809 168.59 130.77L167.705 130.734L168.59 130.508C169.39 130.305 169.344 130.28 168.11 130.248C167.36 130.229 166.363 130.144 165.897 130.06C165.191 129.933 164.713 130.183 163.056 131.552ZM122.5 132.868C121.996 133.071 121.744 133.656 121.269 135.726C120.94 137.157 120.715 138.372 120.768 138.425C121.105 138.763 125.178 136.059 125.829 135.065C126.407 134.183 126.067 133.645 124.523 133C123.37 132.519 123.365 132.519 122.5 132.868ZM151.707 133.898C150.576 134.464 149.396 135.223 149.085 135.584L148.518 136.241L149.399 135.684C150.947 134.705 153.435 133.46 153.844 133.46C154.061 133.46 154.321 133.327 154.422 133.165C154.771 132.601 153.751 132.876 151.707 133.898ZM165.63 133.888C163.494 134.944 162.339 135.72 162.567 135.947C162.639 136.02 163.521 135.556 164.526 134.917C165.531 134.278 166.533 133.755 166.751 133.755C167.218 133.755 168.439 132.893 167.992 132.879C167.824 132.874 166.762 133.328 165.63 133.888ZM108.905 134.36C106.865 134.763 106.556 135.048 106.333 136.731C106.222 137.568 106.198 138.319 106.28 138.401C106.692 138.813 111.769 135.028 111.769 134.308C111.769 134.001 110.615 134.022 108.905 134.36ZM110.883 136.29C110.315 136.694 108.987 137.504 107.932 138.09C105.677 139.342 105.716 139.313 105.945 139.542C106.295 139.892 109.288 138.25 110.736 136.913C112.382 135.393 112.43 135.19 110.883 136.29ZM89.2293 140.945C87.8397 142.892 85.5098 146.966 85.5024 147.462C85.5001 147.614 86.3735 146.352 87.4432 144.658C88.5129 142.964 89.7279 141.077 90.1435 140.465C91.4579 138.531 90.6494 138.955 89.2293 140.945ZM75.334 141.124C75.5102 141.301 76.3488 141.315 77.533 141.162L79.4472 140.915L77.2482 140.877C75.8352 140.853 75.1509 140.941 75.334 141.124Z" fill="white"/>
</svg>
