<svg width="104" height="104" viewBox="0 0 104 104" fill="none" xmlns="http://www.w3.org/2000/svg">
<path d="M72.7475 56.3475L30.6742 101.194L1.15416 73.3142L22.4742 50.3542L26.5742 54.4542L9.35416 73.3142L30.6742 93.8142L69.2142 52.8142L73.3142 56.9142" stroke="white" stroke-width="1.64"/>
<path d="M72.4942 56.0942L62.6542 60.1942L59.3742 70.0342L49.5342 74.1342L45.4342 83.9742L36.4142 88.0742L32.3142 99.5542M27.3942 97.0942L30.6742 93.8142" stroke="white" stroke-width="1.64"/>
<path d="M27.3942 90.5342L16.7342 87.2542L11.8142 75.7742L9.35416 73.3142L5.25416 77.4142" stroke="white" stroke-width="1.64"/>
<path d="M2.79416 71.6742L16.7342 65.1142L21.6542 51.1742" stroke="white" stroke-width="1.64"/>
<path d="M31.2209 48.8409L73.2942 3.99416L102.814 31.8742L81.4942 54.8342L77.3942 50.7342L94.6142 31.8742L73.2942 11.3742L34.7542 52.3742L30.6542 48.2742" stroke="white" stroke-width="1.64"/>
<path d="M31.4742 49.0942L41.3142 44.9942L44.5942 35.1542L54.4342 31.0542L58.5342 21.2142L67.5542 17.1142L71.6542 5.63416M76.5742 8.09416L73.2942 11.3742" stroke="white" stroke-width="1.64"/>
<path d="M76.5742 14.6542L87.2342 17.9342L92.1542 29.4142L94.6142 31.8742L98.7142 27.7742" stroke="white" stroke-width="1.64"/>
<path d="M101.174 33.5142L87.2342 40.0742L82.3142 54.0142" stroke="white" stroke-width="1.64"/>
<path d="M48.4609 72.7475L3.61416 30.6742L31.4942 1.15416L54.4542 22.4742L50.3542 26.5742L31.4942 9.35416L10.9942 30.6742L51.9942 69.2142L47.8942 73.3142" stroke="white" stroke-width="1.64"/>
<path d="M48.7142 72.4942L44.6142 62.6542L34.7742 59.3742L30.6742 49.5342L20.8342 45.4342L16.7342 36.4142L5.25416 32.3142M7.71416 27.3942L10.9942 30.6742" stroke="white" stroke-width="1.64"/>
<path d="M14.2742 27.3942L17.5542 16.7342L29.0342 11.8142L31.4942 9.35416L27.3942 5.25416" stroke="white" stroke-width="1.64"/>
<path d="M33.1342 2.79416L39.6942 16.7342L53.6342 21.6542" stroke="white" stroke-width="1.64"/>
<path d="M55.5275 31.2409L100.374 73.3142L72.4942 102.834L49.5342 81.5142L53.6342 77.4142L72.4942 94.6342L92.9942 73.3142L51.9942 34.7742L56.0942 30.6742" stroke="white" stroke-width="1.64"/>
<path d="M55.2742 31.4942L59.3742 41.3342L69.2142 44.6142L73.3142 54.4542L83.1542 58.5542L87.2542 67.5742L98.7342 71.6742M96.2742 76.5942L92.9942 73.3142" stroke="white" stroke-width="1.64"/>
<path d="M89.7142 76.5942L86.4342 87.2542L74.9542 92.1742L72.4942 94.6342L76.5942 98.7342" stroke="white" stroke-width="1.64"/>
<path d="M70.8542 101.194L64.2942 87.2542L50.3542 82.3342" stroke="white" stroke-width="1.64"/>
</svg>
