<svg width="503" height="141" viewBox="0 0 503 141" fill="none" xmlns="http://www.w3.org/2000/svg">
<g clip-path="url(#clip0_1_3)">
<path d="M20.022 70.982L1.269 14.3H17.766L28.341 50.537H28.623L39.198 14.3H54.285L35.532 70.982V113H20.022V70.982ZM66.7855 14.3H87.7945L103.869 113H88.3585L85.5385 93.401V93.683H67.9135L65.0935 113H50.7115L66.7855 14.3ZM83.7055 80.288L76.7965 31.502H76.5145L69.7465 80.288H83.7055ZM133.114 114.41C125.594 114.41 119.86 112.295 115.912 108.065C111.964 103.741 109.99 97.584 109.99 89.594V37.706C109.99 29.716 111.964 23.606 115.912 19.376C119.86 15.052 125.594 12.89 133.114 12.89C140.634 12.89 146.368 15.052 150.316 19.376C154.264 23.606 156.238 29.716 156.238 37.706V46.166H141.574V36.719C141.574 30.233 138.895 26.99 133.537 26.99C128.179 26.99 125.5 30.233 125.5 36.719V90.722C125.5 97.114 128.179 100.31 133.537 100.31C138.895 100.31 141.574 97.114 141.574 90.722V71.405H133.819V57.305H156.238V89.594C156.238 97.584 154.264 103.741 150.316 108.065C146.368 112.295 140.634 114.41 133.114 114.41ZM188.615 114.41C181.001 114.41 175.173 112.248 171.131 107.924C167.089 103.6 165.068 97.49 165.068 89.594V37.706C165.068 29.81 167.089 23.7 171.131 19.376C175.173 15.052 181.001 12.89 188.615 12.89C196.229 12.89 202.057 15.052 206.099 19.376C210.141 23.7 212.162 29.81 212.162 37.706V89.594C212.162 97.49 210.141 103.6 206.099 107.924C202.057 112.248 196.229 114.41 188.615 114.41ZM188.615 100.31C193.973 100.31 196.652 97.067 196.652 90.581V36.719C196.652 30.233 193.973 26.99 188.615 26.99C183.257 26.99 180.578 30.233 180.578 36.719V90.581C180.578 97.067 183.257 100.31 188.615 100.31ZM245.233 14.3H260.743V98.9H286.264V113H245.233V14.3ZM315.57 114.41C307.956 114.41 302.128 112.248 298.086 107.924C294.044 103.6 292.023 97.49 292.023 89.594V37.706C292.023 29.81 294.044 23.7 298.086 19.376C302.128 15.052 307.956 12.89 315.57 12.89C323.184 12.89 329.012 15.052 333.054 19.376C337.096 23.7 339.117 29.81 339.117 37.706V89.594C339.117 97.49 337.096 103.6 333.054 107.924C329.012 112.248 323.184 114.41 315.57 114.41ZM315.57 100.31C320.928 100.31 323.607 97.067 323.607 90.581V36.719C323.607 30.233 320.928 26.99 315.57 26.99C310.212 26.99 307.533 30.233 307.533 36.719V90.581C307.533 97.067 310.212 100.31 315.57 100.31ZM349.606 14.3H372.448C380.156 14.3 385.937 16.368 389.791 20.504C393.645 24.64 395.572 30.703 395.572 38.693V48.422C395.572 56.412 393.645 62.475 389.791 66.611C385.937 70.747 380.156 72.815 372.448 72.815H365.116V113H349.606V14.3ZM372.448 58.715C374.986 58.715 376.866 58.01 378.088 56.6C379.404 55.19 380.062 52.793 380.062 49.409V37.706C380.062 34.322 379.404 31.925 378.088 30.515C376.866 29.105 374.986 28.4 372.448 28.4H365.116V58.715H372.448ZM403.996 14.3H446.296V28.4H419.506V54.485H440.797V68.585H419.506V98.9H446.296V113H403.996V14.3ZM475.657 114.41C468.137 114.41 462.45 112.295 458.596 108.065C454.742 103.741 452.815 97.584 452.815 89.594V83.954H467.479V90.722C467.479 97.114 470.158 100.31 475.516 100.31C478.148 100.31 480.122 99.558 481.438 98.054C482.848 96.456 483.553 93.918 483.553 90.44C483.553 86.304 482.613 82.685 480.733 79.583C478.853 76.387 475.375 72.58 470.299 68.162C463.907 62.522 459.442 57.446 456.904 52.934C454.366 48.328 453.097 43.158 453.097 37.424C453.097 29.622 455.071 23.606 459.019 19.376C462.967 15.052 468.701 12.89 476.221 12.89C483.647 12.89 489.24 15.052 493 19.376C496.854 23.606 498.781 29.716 498.781 37.706V41.795H484.117V36.719C484.117 33.335 483.459 30.891 482.143 29.387C480.827 27.789 478.9 26.99 476.362 26.99C471.192 26.99 468.607 30.139 468.607 36.437C468.607 40.009 469.547 43.346 471.427 46.448C473.401 49.55 476.926 53.31 482.002 57.728C488.488 63.368 492.953 68.491 495.397 73.097C497.841 77.703 499.063 83.108 499.063 89.312C499.063 97.396 497.042 103.6 493 107.924C489.052 112.248 483.271 114.41 475.657 114.41Z" fill="white"/>
</g>
<defs>
<clipPath id="clip0_1_3">
<rect width="503" height="141" fill="white"/>
</clipPath>
</defs>
</svg>
